<?xml version="1.0" encoding="utf-8" standalone="no"?>
<!DOCTYPE svg PUBLIC "-//W3C//DTD SVG 1.1//EN"
  "http://www.w3.org/Graphics/SVG/1.1/DTD/svg11.dtd">
<svg xmlns:xlink="http://www.w3.org/1999/xlink" width="863.506406pt" height="596.268pt" viewBox="0 0 863.506406 596.268" xmlns="http://www.w3.org/2000/svg" version="1.1">
 <metadata>
  <rdf:RDF xmlns:dc="http://purl.org/dc/elements/1.1/" xmlns:cc="http://creativecommons.org/ns#" xmlns:rdf="http://www.w3.org/1999/02/22-rdf-syntax-ns#">
   <cc:Work>
    <dc:type rdf:resource="http://purl.org/dc/dcmitype/StillImage"/>
    <dc:format>image/svg+xml</dc:format>
    <dc:creator>
     <cc:Agent>
      <dc:title>Matplotlib v3.11.1, https://matplotlib.org/</dc:title>
     </cc:Agent>
    </dc:creator>
   </cc:Work>
  </rdf:RDF>
 </metadata>
 <defs>
  <style type="text/css">*{stroke-linejoin: round; stroke-linecap: butt}</style>
 </defs>
 <g id="figure_1">
  <g id="patch_1">
   <path d="M 0 596.268 
L 863.506406 596.268 
L 863.506406 0 
L 0 0 
z
" style="fill: #ffffff"/>
  </g>
  <g id="axes_1">
   <g id="patch_2">
    <path d="M 62.64 282.264106 
L 425.988837 282.264106 
L 425.988837 79.776 
L 62.64 79.776 
z
" style="fill: #ffffff"/>
   </g>
   <g id="matplotlib.axis_1">
    <g id="xtick_1">
     <g id="line2d_1">
      <defs>
       <path id="me47fdb84ba" d="M 0 0 
L 0 3.5 
" style="stroke: #000000; stroke-width: 0.8"/>
      </defs>
      <g>
       <use xlink:href="#me47fdb84ba" x="62.64" y="282.264106" style="stroke: #000000; stroke-width: 0.8"/>
      </g>
     </g>
    </g>
    <g id="xtick_2">
     <g id="line2d_2">
      <g>
       <use xlink:href="#me47fdb84ba" x="153.477209" y="282.264106" style="stroke: #000000; stroke-width: 0.8"/>
      </g>
     </g>
    </g>
    <g id="xtick_3">
     <g id="line2d_3">
      <g>
       <use xlink:href="#me47fdb84ba" x="244.314419" y="282.264106" style="stroke: #000000; stroke-width: 0.8"/>
      </g>
     </g>
    </g>
    <g id="xtick_4">
     <g id="line2d_4">
      <g>
       <use xlink:href="#me47fdb84ba" x="335.151628" y="282.264106" style="stroke: #000000; stroke-width: 0.8"/>
      </g>
     </g>
    </g>
    <g id="xtick_5">
     <g id="line2d_5">
      <g>
       <use xlink:href="#me47fdb84ba" x="425.988837" y="282.264106" style="stroke: #000000; stroke-width: 0.8"/>
      </g>
     </g>
    </g>
   </g>
   <g id="matplotlib.axis_2">
    <g id="ytick_1">
     <g id="line2d_6">
      <path d="M 62.64 273.904505 
L 425.988837 273.904505 
" clip-path="url(#pb5f85498f5)" style="fill: none; stroke: #e5e7eb; stroke-width: 0.5; stroke-linecap: square"/>
     </g>
     <g id="line2d_7">
      <defs>
       <path id="m373bba67d5" d="M 0 0 
L -3.5 0 
" style="stroke: #000000; stroke-width: 0.8"/>
      </defs>
      <g>
       <use xlink:href="#m373bba67d5" x="62.64" y="273.904505" style="stroke: #000000; stroke-width: 0.8"/>
      </g>
     </g>
     <g id="text_1">
      <text style="font-size: 10px; font-family: 'Heiti TC'; text-anchor: end" x="55.64" y="278.204505" transform="rotate(-0 55.64 278.204505)">-5000</text>
     </g>
    </g>
    <g id="ytick_2">
     <g id="line2d_8">
      <path d="M 62.64 181.020053 
L 425.988837 181.020053 
" clip-path="url(#pb5f85498f5)" style="fill: none; stroke: #e5e7eb; stroke-width: 0.5; stroke-linecap: square"/>
     </g>
     <g id="line2d_9">
      <g>
       <use xlink:href="#m373bba67d5" x="62.64" y="181.020053" style="stroke: #000000; stroke-width: 0.8"/>
      </g>
     </g>
     <g id="text_2">
      <text style="font-size: 10px; font-family: 'Heiti TC'; text-anchor: end" x="55.64" y="185.320053" transform="rotate(-0 55.64 185.320053)">0</text>
     </g>
    </g>
    <g id="ytick_3">
     <g id="line2d_10">
      <path d="M 62.64 88.135601 
L 425.988837 88.135601 
" clip-path="url(#pb5f85498f5)" style="fill: none; stroke: #e5e7eb; stroke-width: 0.5; stroke-linecap: square"/>
     </g>
     <g id="line2d_11">
      <g>
       <use xlink:href="#m373bba67d5" x="62.64" y="88.135601" style="stroke: #000000; stroke-width: 0.8"/>
      </g>
     </g>
     <g id="text_3">
      <text style="font-size: 10px; font-family: 'Heiti TC'; text-anchor: end" x="55.64" y="92.435601" transform="rotate(-0 55.64 92.435601)">5000</text>
     </g>
    </g>
    <g id="text_4">
     <text style="font-size: 10px; font-family: 'Heiti TC'; text-anchor: middle" x="24.757188" y="181.020053" transform="rotate(-90 24.757188 181.020053)">净电池功率 / kW</text>
    </g>
   </g>
   <g id="line2d_12">
    <path d="M 65.163256 91.250565 
L 67.686512 90.843119 
L 70.209767 88.135601 
L 72.733023 88.135601 
L 75.256279 88.135601 
L 77.779535 89.082234 
L 80.302791 95.098121 
L 82.826047 99.763737 
L 85.349302 100.850779 
L 87.872558 171.707299 
L 90.395814 173.107941 
L 92.91907 176.457663 
L 95.442326 174.72089 
L 97.965581 176.382664 
L 100.488837 181.020053 
L 103.012093 176.496478 
L 105.535349 175.06932 
L 108.058605 178.636689 
L 110.58186 181.916064 
L 113.105116 181.020053 
L 115.628372 178.102896 
L 118.151628 176.503149 
L 120.674884 176.866225 
L 123.19814 178.214886 
L 125.721395 178.363135 
L 128.244651 175.676294 
L 130.767907 171.979893 
L 133.291163 175.0034 
L 135.814419 176.313697 
L 138.337674 174.897523 
L 140.86093 177.510053 
L 143.384186 183.244776 
L 145.907442 177.375736 
L 148.430698 90.974991 
L 150.953953 250.045582 
L 153.477209 260.510939 
L 156.000465 258.639328 
L 158.523721 250.826772 
L 161.046977 244.497705 
L 163.570233 240.697903 
L 166.093488 236.540274 
L 168.616744 229.626069 
L 171.14 220.044133 
L 173.663256 211.981133 
L 176.186512 206.018417 
L 178.709767 201.568717 
L 181.233023 210.730128 
L 183.756279 223.864214 
L 186.279535 216.922491 
L 188.802791 207.142267 
L 191.326047 201.692463 
L 193.849302 191.196672 
L 196.372558 182.368406 
L 198.895814 177.407916 
L 201.41907 171.66565 
L 203.942326 167.851269 
L 206.465581 163.947983 
L 208.988837 154.530668 
L 211.512093 146.968189 
L 214.035349 146.833419 
L 216.558605 152.097904 
L 219.08186 151.232171 
L 221.605116 144.800968 
L 224.128372 143.314377 
L 226.651628 139.904954 
L 229.174884 134.492559 
L 231.69814 135.020739 
L 234.221395 136.526622 
L 236.744651 134.315382 
L 239.267907 128.66546 
L 241.791163 125.009311 
L 244.314419 108.75774 
L 246.837674 122.573323 
L 249.36093 125.938384 
L 251.884186 130.157502 
L 254.407442 126.812049 
L 256.930698 133.992562 
L 259.453953 150.116142 
L 261.977209 154.530693 
L 264.500465 155.638721 
L 267.023721 181.020053 
L 269.546977 181.020053 
L 272.070233 181.020053 
L 274.593488 181.020053 
L 277.116744 181.020053 
L 279.64 181.020053 
L 282.163256 181.020053 
L 284.686512 181.579641 
L 287.209767 184.919104 
L 289.733023 181.020053 
L 292.256279 181.399654 
L 294.779535 182.661716 
L 297.302791 181.462453 
L 299.826047 183.065542 
L 302.349302 181.5291 
L 304.872558 184.162893 
L 307.395814 187.009882 
L 309.91907 185.213345 
L 312.442326 181.020053 
L 314.965581 181.759023 
L 317.488837 184.480602 
L 320.012093 183.432751 
L 322.535349 182.102589 
L 325.058605 181.976453 
L 327.58186 184.970185 
L 330.105116 188.042487 
L 332.628372 189.389314 
L 335.151628 187.318311 
L 337.674884 183.05882 
L 340.19814 182.964474 
L 342.721395 183.94713 
L 345.244651 182.950585 
L 347.767907 240.359007 
L 350.291163 260.866686 
L 352.814419 263.162596 
L 355.337674 263.719177 
L 357.86093 263.079565 
L 360.384186 264.429044 
L 362.907442 264.735723 
L 365.430698 262.110595 
L 367.953953 258.312109 
L 370.477209 258.417903 
L 373.000465 261.856834 
L 375.523721 259.525043 
L 378.046977 181.020053 
L 380.570233 181.020053 
L 383.093488 181.020053 
L 385.616744 181.020053 
L 388.14 176.014286 
L 390.663256 184.511547 
L 393.186512 182.033749 
L 395.709767 181.020053 
L 398.233023 167.28859 
L 400.756279 181.020053 
L 403.279535 175.160752 
L 405.802791 176.548224 
L 408.326047 181.634529 
L 410.849302 184.168065 
L 413.372558 181.020053 
L 415.895814 176.298319 
L 418.41907 177.446145 
L 420.942326 181.020053 
L 423.465581 177.184103 
L 425.988837 178.711148 
" clip-path="url(#pb5f85498f5)" style="fill: none; stroke-dasharray: 3.885,1.68; stroke-dashoffset: 0; stroke: #7d8187; stroke-width: 1.05"/>
   </g>
   <g id="line2d_13">
    <path d="M 65.163256 91.250565 
L 67.686512 90.843119 
L 70.209767 88.135601 
L 72.733023 88.135601 
L 75.256279 88.135601 
L 77.779535 88.135601 
L 80.302791 178.301883 
L 82.826047 178.244888 
L 85.349302 91.665705 
L 87.872558 178.314417 
L 90.395814 178.946149 
L 92.91907 180.03187 
L 95.442326 89.887311 
L 97.965581 178.262785 
L 100.488837 180.564069 
L 103.012093 178.644294 
L 105.535349 176.483145 
L 108.058605 178.636689 
L 110.58186 181.916064 
L 113.105116 181.218228 
L 115.628372 173.548518 
L 118.151628 176.756252 
L 120.674884 176.866225 
L 123.19814 178.214886 
L 125.721395 178.363135 
L 128.244651 175.676294 
L 130.767907 173.219399 
L 133.291163 177.121882 
L 135.814419 176.313697 
L 138.337674 174.897523 
L 140.86093 180.133997 
L 143.384186 184.876303 
L 145.907442 104.083635 
L 148.430698 90.329465 
L 150.953953 250.045582 
L 153.477209 260.510939 
L 156.000465 258.639328 
L 158.523721 250.826772 
L 161.046977 244.497705 
L 163.570233 240.697903 
L 166.093488 236.540274 
L 168.616744 229.626069 
L 171.14 220.044133 
L 173.663256 211.981133 
L 176.186512 206.018417 
L 178.709767 201.568717 
L 181.233023 210.730128 
L 183.756279 223.864214 
L 186.279535 216.922491 
L 188.802791 207.142267 
L 191.326047 201.692463 
L 193.849302 191.196672 
L 196.372558 182.368406 
L 198.895814 177.407916 
L 201.41907 171.66565 
L 203.942326 167.851269 
L 206.465581 163.947983 
L 208.988837 154.530668 
L 211.512093 146.968189 
L 214.035349 146.833419 
L 216.558605 152.097904 
L 219.08186 151.232171 
L 221.605116 144.800968 
L 224.128372 143.314377 
L 226.651628 139.904954 
L 229.174884 134.492559 
L 231.69814 135.020739 
L 234.221395 136.526622 
L 236.744651 134.315382 
L 239.267907 128.66546 
L 241.791163 125.009311 
L 244.314419 107.619576 
L 246.837674 122.573323 
L 249.36093 125.938384 
L 251.884186 130.157502 
L 254.407442 126.812049 
L 256.930698 133.992562 
L 259.453953 150.116142 
L 261.977209 154.530693 
L 264.500465 155.638721 
L 267.023721 180.075554 
L 269.546977 181.020053 
L 272.070233 181.020053 
L 274.593488 181.020053 
L 277.116744 181.020053 
L 279.64 181.020053 
L 282.163256 181.020053 
L 284.686512 181.579641 
L 287.209767 184.919104 
L 289.733023 180.178834 
L 292.256279 181.399654 
L 294.779535 182.661716 
L 297.302791 181.462453 
L 299.826047 183.065542 
L 302.349302 181.5291 
L 304.872558 184.162893 
L 307.395814 187.009882 
L 309.91907 184.960798 
L 312.442326 179.613363 
L 314.965581 181.759023 
L 317.488837 184.73315 
L 320.012093 183.432751 
L 322.535349 182.102589 
L 325.058605 181.976453 
L 327.58186 184.970185 
L 330.105116 188.19395 
L 332.628372 189.389314 
L 335.151628 187.318311 
L 337.674884 180.411808 
L 340.19814 180.843578 
L 342.721395 183.905791 
L 345.244651 182.950585 
L 347.767907 247.889956 
L 350.291163 260.866686 
L 352.814419 263.162596 
L 355.337674 263.719177 
L 357.86093 263.079565 
L 360.384186 264.429044 
L 362.907442 264.735723 
L 365.430698 262.110595 
L 367.953953 258.312109 
L 370.477209 258.417903 
L 373.000465 261.856834 
L 375.523721 259.446571 
L 378.046977 181.020053 
L 380.570233 181.020053 
L 383.093488 181.020053 
L 385.616744 181.020053 
L 388.14 176.014286 
L 390.663256 184.929545 
L 393.186512 181.615751 
L 395.709767 179.467679 
L 398.233023 88.238818 
L 400.756279 228.465648 
L 403.279535 177.265095 
L 405.802791 177.468968 
L 408.326047 182.555273 
L 410.849302 186.01 
L 413.372558 181.058395 
L 415.895814 176.65819 
L 418.41907 179.968638 
L 420.942326 182.144792 
L 423.465581 184.762381 
L 425.988837 179.196946 
" clip-path="url(#pb5f85498f5)" style="fill: none; stroke: #245a82; stroke-width: 1.05; stroke-linecap: square"/>
   </g>
   <g id="line2d_14">
    <path d="M 62.64 181.020053 
L 425.988837 181.020053 
" clip-path="url(#pb5f85498f5)" style="fill: none; stroke: #52565d; stroke-width: 0.7; stroke-linecap: square"/>
   </g>
   <g id="line2d_15">
    <path d="M 62.64 273.904505 
L 425.988837 273.904505 
" clip-path="url(#pb5f85498f5)" style="fill: none; stroke-dasharray: 0.7,1.155; stroke-dashoffset: 0; stroke: #a8abb0; stroke-width: 0.7"/>
   </g>
   <g id="line2d_16">
    <path d="M 62.64 88.135601 
L 425.988837 88.135601 
" clip-path="url(#pb5f85498f5)" style="fill: none; stroke-dasharray: 0.7,1.155; stroke-dashoffset: 0; stroke: #a8abb0; stroke-width: 0.7"/>
   </g>
   <g id="patch_3">
    <path d="M 62.64 282.264106 
L 62.64 79.776 
" style="fill: none; stroke: #51545a; stroke-width: 0.8; stroke-linejoin: miter; stroke-linecap: square"/>
   </g>
   <g id="patch_4">
    <path d="M 62.64 282.264106 
L 425.988837 282.264106 
" style="fill: none; stroke: #51545a; stroke-width: 0.8; stroke-linejoin: miter; stroke-linecap: square"/>
   </g>
   <g id="text_5">
    <text style="font-size: 12px; font-family: 'Heiti TC'; text-anchor: start; fill: #30343b" x="62.64" y="73.776" transform="rotate(-0 62.64 73.776)">2025-04-15</text>
   </g>
  </g>
  <g id="axes_2">
   <g id="patch_5">
    <path d="M 480.491163 282.264106 
L 843.84 282.264106 
L 843.84 79.776 
L 480.491163 79.776 
z
" style="fill: #ffffff"/>
   </g>
   <g id="matplotlib.axis_3">
    <g id="xtick_6">
     <g id="line2d_17">
      <g>
       <use xlink:href="#me47fdb84ba" x="480.491163" y="282.264106" style="stroke: #000000; stroke-width: 0.8"/>
      </g>
     </g>
    </g>
    <g id="xtick_7">
     <g id="line2d_18">
      <g>
       <use xlink:href="#me47fdb84ba" x="571.328372" y="282.264106" style="stroke: #000000; stroke-width: 0.8"/>
      </g>
     </g>
    </g>
    <g id="xtick_8">
     <g id="line2d_19">
      <g>
       <use xlink:href="#me47fdb84ba" x="662.165581" y="282.264106" style="stroke: #000000; stroke-width: 0.8"/>
      </g>
     </g>
    </g>
    <g id="xtick_9">
     <g id="line2d_20">
      <g>
       <use xlink:href="#me47fdb84ba" x="753.002791" y="282.264106" style="stroke: #000000; stroke-width: 0.8"/>
      </g>
     </g>
    </g>
    <g id="xtick_10">
     <g id="line2d_21">
      <g>
       <use xlink:href="#me47fdb84ba" x="843.84" y="282.264106" style="stroke: #000000; stroke-width: 0.8"/>
      </g>
     </g>
    </g>
   </g>
   <g id="matplotlib.axis_4">
    <g id="ytick_4">
     <g id="line2d_22">
      <path d="M 480.491163 273.904505 
L 843.84 273.904505 
" clip-path="url(#p195f245dc8)" style="fill: none; stroke: #e5e7eb; stroke-width: 0.5; stroke-linecap: square"/>
     </g>
     <g id="line2d_23">
      <g>
       <use xlink:href="#m373bba67d5" x="480.491163" y="273.904505" style="stroke: #000000; stroke-width: 0.8"/>
      </g>
     </g>
    </g>
    <g id="ytick_5">
     <g id="line2d_24">
      <path d="M 480.491163 181.020053 
L 843.84 181.020053 
" clip-path="url(#p195f245dc8)" style="fill: none; stroke: #e5e7eb; stroke-width: 0.5; stroke-linecap: square"/>
     </g>
     <g id="line2d_25">
      <g>
       <use xlink:href="#m373bba67d5" x="480.491163" y="181.020053" style="stroke: #000000; stroke-width: 0.8"/>
      </g>
     </g>
    </g>
    <g id="ytick_6">
     <g id="line2d_26">
      <path d="M 480.491163 88.135601 
L 843.84 88.135601 
" clip-path="url(#p195f245dc8)" style="fill: none; stroke: #e5e7eb; stroke-width: 0.5; stroke-linecap: square"/>
     </g>
     <g id="line2d_27">
      <g>
       <use xlink:href="#m373bba67d5" x="480.491163" y="88.135601" style="stroke: #000000; stroke-width: 0.8"/>
      </g>
     </g>
    </g>
    <g id="text_6">
     <text style="font-size: 10px; font-family: 'Heiti TC'; text-anchor: middle" x="471.591163" y="181.020053" transform="rotate(-90 471.591163 181.020053)">净电池功率 / kW</text>
    </g>
   </g>
   <g id="line2d_28">
    <path d="M 483.014419 168.982492 
L 485.537674 175.98925 
L 488.06093 175.163556 
L 490.584186 175.146626 
L 493.107442 176.50554 
L 495.630698 177.13486 
L 498.153953 176.474744 
L 500.677209 175.765955 
L 503.200465 177.50385 
L 505.723721 183.822397 
L 508.246977 185.841294 
L 510.770233 182.658059 
L 513.293488 183.301393 
L 515.816744 181.020053 
L 518.34 177.496815 
L 520.863256 181.020053 
L 523.386512 181.54014 
L 525.909767 177.644462 
L 528.433023 181.020053 
L 530.956279 181.020053 
L 533.479535 181.020053 
L 536.002791 182.937633 
L 538.526047 183.338923 
L 541.049302 181.020053 
L 543.572558 183.300965 
L 546.095814 184.890853 
L 548.61907 181.679367 
L 551.142326 181.754717 
L 553.665581 181.489015 
L 556.188837 181.020053 
L 558.712093 182.39432 
L 561.235349 181.934392 
L 563.758605 177.877208 
L 566.28186 105.368848 
L 568.805116 224.987635 
L 571.328372 216.096752 
L 573.851628 207.820353 
L 576.374884 204.204499 
L 578.89814 202.889418 
L 581.421395 198.243112 
L 583.944651 193.147599 
L 586.467907 188.423923 
L 588.991163 189.764265 
L 591.514419 182.233929 
L 594.037674 181.020053 
L 596.56093 181.020053 
L 599.084186 178.142214 
L 601.607442 174.438353 
L 604.130698 176.310072 
L 606.653953 174.569679 
L 609.177209 168.10108 
L 611.700465 165.062675 
L 614.223721 167.271417 
L 616.746977 171.141188 
L 619.270233 170.669829 
L 621.793488 165.147205 
L 624.316744 158.888335 
L 626.84 157.970366 
L 629.363256 160.780848 
L 631.886512 161.648397 
L 634.409767 155.748244 
L 636.933023 149.768265 
L 639.456279 147.402569 
L 641.979535 145.992221 
L 644.502791 141.333233 
L 647.026047 135.435011 
L 649.549302 133.295148 
L 652.072558 126.514867 
L 654.595814 121.255781 
L 657.11907 132.280356 
L 659.642326 138.054639 
L 662.165581 135.646834 
L 664.688837 142.470468 
L 667.212093 146.491545 
L 669.735349 143.172704 
L 672.258605 140.90561 
L 674.78186 139.40344 
L 677.305116 142.066357 
L 679.828372 152.227234 
L 682.351628 150.122454 
L 684.874884 138.943582 
L 687.39814 142.388921 
L 689.921395 151.428274 
L 692.444651 158.234011 
L 694.967907 171.149154 
L 697.491163 181.020053 
L 700.014419 181.020053 
L 702.537674 181.020053 
L 705.06093 181.020053 
L 707.584186 181.020053 
L 710.107442 181.020053 
L 712.630698 181.020053 
L 715.153953 182.151757 
L 717.677209 182.331 
L 720.200465 178.305996 
L 722.723721 181.020053 
L 725.246977 195.225016 
L 727.770233 198.510854 
L 730.293488 185.773043 
L 732.816744 177.176207 
L 735.34 177.449496 
L 737.863256 187.8041 
L 740.386512 187.4614 
L 742.909767 192.128481 
L 745.433023 189.707156 
L 747.956279 187.32069 
L 750.479535 188.479942 
L 753.002791 227.679534 
L 755.526047 196.458917 
L 758.049302 196.336716 
L 760.572558 206.455831 
L 763.095814 215.960462 
L 765.61907 252.506695 
L 768.142326 249.359789 
L 770.665581 248.325972 
L 773.188837 248.391628 
L 775.712093 248.536461 
L 778.235349 250.318822 
L 780.758605 250.167837 
L 783.28186 249.950348 
L 785.805116 254.577972 
L 788.328372 254.388421 
L 790.851628 250.321143 
L 793.374884 216.165644 
L 795.89814 181.020053 
L 798.421395 173.082754 
L 800.944651 181.020053 
L 803.467907 177.919233 
L 805.991163 182.837009 
L 808.514419 185.923874 
L 811.037674 184.233582 
L 813.56093 181.020053 
L 816.084186 89.628481 
L 818.607442 181.020053 
L 821.130698 181.156808 
L 823.653953 181.020053 
L 826.177209 182.567313 
L 828.700465 181.978362 
L 831.223721 172.733279 
L 833.746977 175.40571 
L 836.270233 183.140979 
L 838.793488 182.231247 
L 841.316744 182.604825 
L 843.84 175.557979 
" clip-path="url(#p195f245dc8)" style="fill: none; stroke-dasharray: 3.885,1.68; stroke-dashoffset: 0; stroke: #7d8187; stroke-width: 1.05"/>
   </g>
   <g id="line2d_29">
    <path d="M 483.014419 168.982492 
L 485.537674 175.98925 
L 488.06093 175.163556 
L 490.584186 175.126149 
L 493.107442 173.442585 
L 495.630698 174.071905 
L 498.153953 175.668985 
L 500.677209 174.364433 
L 503.200465 172.806117 
L 505.723721 183.173315 
L 508.246977 185.841294 
L 510.770233 174.784628 
L 513.293488 176.081467 
L 515.816744 179.783299 
L 518.34 177.496815 
L 520.863256 180.640205 
L 523.386512 181.54014 
L 525.909767 177.644462 
L 528.433023 183.95644 
L 530.956279 187.600985 
L 533.479535 179.52655 
L 536.002791 182.937633 
L 538.526047 183.338923 
L 541.049302 186.46448 
L 543.572558 187.830717 
L 546.095814 188.152751 
L 548.61907 181.679367 
L 551.142326 186.444072 
L 553.665581 184.588368 
L 556.188837 182.931539 
L 558.712093 181.844414 
L 561.235349 186.788948 
L 563.758605 177.877208 
L 566.28186 105.368848 
L 568.805116 224.987635 
L 571.328372 216.096752 
L 573.851628 207.820353 
L 576.374884 204.204499 
L 578.89814 202.889418 
L 581.421395 198.243112 
L 583.944651 193.147599 
L 586.467907 190.521203 
L 588.991163 190.697556 
L 591.514419 183.015309 
L 594.037674 181.020053 
L 596.56093 181.020053 
L 599.084186 178.142214 
L 601.607442 174.438353 
L 604.130698 176.310072 
L 606.653953 174.569679 
L 609.177209 168.10108 
L 611.700465 165.062675 
L 614.223721 167.271417 
L 616.746977 171.141188 
L 619.270233 170.669829 
L 621.793488 165.147205 
L 624.316744 158.888335 
L 626.84 157.970366 
L 629.363256 160.780848 
L 631.886512 161.648397 
L 634.409767 155.748244 
L 636.933023 149.768265 
L 639.456279 147.402569 
L 641.979535 145.992221 
L 644.502791 141.333233 
L 647.026047 135.435011 
L 649.549302 133.295148 
L 652.072558 126.514867 
L 654.595814 121.255781 
L 657.11907 132.280356 
L 659.642326 138.054639 
L 662.165581 135.646834 
L 664.688837 142.470468 
L 667.212093 146.491545 
L 669.735349 143.172704 
L 672.258605 140.90561 
L 674.78186 139.40344 
L 677.305116 142.066357 
L 679.828372 152.227234 
L 682.351628 150.122454 
L 684.874884 138.943582 
L 687.39814 142.388921 
L 689.921395 151.428274 
L 692.444651 158.234011 
L 694.967907 171.149154 
L 697.491163 181.020053 
L 700.014419 181.020053 
L 702.537674 181.020053 
L 705.06093 181.020053 
L 707.584186 181.020053 
L 710.107442 181.020053 
L 712.630698 181.020053 
L 715.153953 182.151757 
L 717.677209 182.331 
L 720.200465 178.305996 
L 722.723721 181.020053 
L 725.246977 192.599025 
L 727.770233 200.662119 
L 730.293488 185.773043 
L 732.816744 177.176207 
L 735.34 177.449496 
L 737.863256 188.2346 
L 740.386512 186.983067 
L 742.909767 192.479905 
L 745.433023 189.707156 
L 747.956279 186.060981 
L 750.479535 188.479942 
L 753.002791 227.938544 
L 755.526047 231.888784 
L 758.049302 183.017417 
L 760.572558 207.963282 
L 763.095814 193.514277 
L 765.61907 252.506695 
L 768.142326 249.359789 
L 770.665581 248.325972 
L 773.188837 248.391628 
L 775.712093 248.536461 
L 778.235349 250.318822 
L 780.758605 250.167837 
L 783.28186 249.950348 
L 785.805116 254.577972 
L 788.328372 254.388421 
L 790.851628 250.321143 
L 793.374884 216.165644 
L 795.89814 181.020053 
L 798.421395 173.082754 
L 800.944651 179.608133 
L 803.467907 177.919233 
L 805.991163 176.138119 
L 808.514419 192.622764 
L 811.037674 185.016116 
L 813.56093 175.071906 
L 816.084186 89.628481 
L 818.607442 181.553497 
L 821.130698 177.12146 
L 823.653953 178.118465 
L 826.177209 182.567313 
L 828.700465 181.978362 
L 831.223721 175.160234 
L 833.746977 175.40571 
L 836.270233 183.928975 
L 838.793488 182.178059 
L 841.316744 182.648428 
L 843.84 175.557979 
" clip-path="url(#p195f245dc8)" style="fill: none; stroke: #245a82; stroke-width: 1.05; stroke-linecap: square"/>
   </g>
   <g id="line2d_30">
    <path d="M 480.491163 181.020053 
L 843.84 181.020053 
" clip-path="url(#p195f245dc8)" style="fill: none; stroke: #52565d; stroke-width: 0.7; stroke-linecap: square"/>
   </g>
   <g id="line2d_31">
    <path d="M 480.491163 273.904505 
L 843.84 273.904505 
" clip-path="url(#p195f245dc8)" style="fill: none; stroke-dasharray: 0.7,1.155; stroke-dashoffset: 0; stroke: #a8abb0; stroke-width: 0.7"/>
   </g>
   <g id="line2d_32">
    <path d="M 480.491163 88.135601 
L 843.84 88.135601 
" clip-path="url(#p195f245dc8)" style="fill: none; stroke-dasharray: 0.7,1.155; stroke-dashoffset: 0; stroke: #a8abb0; stroke-width: 0.7"/>
   </g>
   <g id="patch_6">
    <path d="M 480.491163 282.264106 
L 480.491163 79.776 
" style="fill: none; stroke: #51545a; stroke-width: 0.8; stroke-linejoin: miter; stroke-linecap: square"/>
   </g>
   <g id="patch_7">
    <path d="M 480.491163 282.264106 
L 843.84 282.264106 
" style="fill: none; stroke: #51545a; stroke-width: 0.8; stroke-linejoin: miter; stroke-linecap: square"/>
   </g>
   <g id="text_7">
    <text style="font-size: 12px; font-family: 'Heiti TC'; text-anchor: start; fill: #30343b" x="480.491163" y="73.776" transform="rotate(-0 480.491163 73.776)">2025-06-07</text>
   </g>
  </g>
  <g id="axes_3">
   <g id="patch_8">
    <path d="M 62.64 539.424 
L 425.988837 539.424 
L 425.988837 336.935894 
L 62.64 336.935894 
z
" style="fill: #ffffff"/>
   </g>
   <g id="matplotlib.axis_5">
    <g id="xtick_11">
     <g id="line2d_33">
      <g>
       <use xlink:href="#me47fdb84ba" x="62.64" y="539.424" style="stroke: #000000; stroke-width: 0.8"/>
      </g>
     </g>
     <g id="text_8">
      <text style="font-size: 10px; font-family: 'Heiti TC'; text-anchor: middle" x="62.64" y="555.024" transform="rotate(-0 62.64 555.024)">00:00</text>
     </g>
    </g>
    <g id="xtick_12">
     <g id="line2d_34">
      <g>
       <use xlink:href="#me47fdb84ba" x="153.477209" y="539.424" style="stroke: #000000; stroke-width: 0.8"/>
      </g>
     </g>
     <g id="text_9">
      <text style="font-size: 10px; font-family: 'Heiti TC'; text-anchor: middle" x="153.477209" y="555.024" transform="rotate(-0 153.477209 555.024)">06:00</text>
     </g>
    </g>
    <g id="xtick_13">
     <g id="line2d_35">
      <g>
       <use xlink:href="#me47fdb84ba" x="244.314419" y="539.424" style="stroke: #000000; stroke-width: 0.8"/>
      </g>
     </g>
     <g id="text_10">
      <text style="font-size: 10px; font-family: 'Heiti TC'; text-anchor: middle" x="244.314419" y="555.024" transform="rotate(-0 244.314419 555.024)">12:00</text>
     </g>
    </g>
    <g id="xtick_14">
     <g id="line2d_36">
      <g>
       <use xlink:href="#me47fdb84ba" x="335.151628" y="539.424" style="stroke: #000000; stroke-width: 0.8"/>
      </g>
     </g>
     <g id="text_11">
      <text style="font-size: 10px; font-family: 'Heiti TC'; text-anchor: middle" x="335.151628" y="555.024" transform="rotate(-0 335.151628 555.024)">18:00</text>
     </g>
    </g>
    <g id="xtick_15">
     <g id="line2d_37">
      <g>
       <use xlink:href="#me47fdb84ba" x="425.988837" y="539.424" style="stroke: #000000; stroke-width: 0.8"/>
      </g>
     </g>
     <g id="text_12">
      <text style="font-size: 10px; font-family: 'Heiti TC'; text-anchor: middle" x="425.988837" y="555.024" transform="rotate(-0 425.988837 555.024)">24:00</text>
     </g>
    </g>
   </g>
   <g id="matplotlib.axis_6">
    <g id="ytick_7">
     <g id="line2d_38">
      <path d="M 62.64 531.064399 
L 425.988837 531.064399 
" clip-path="url(#pea0b19ce5f)" style="fill: none; stroke: #e5e7eb; stroke-width: 0.5; stroke-linecap: square"/>
     </g>
     <g id="line2d_39">
      <g>
       <use xlink:href="#m373bba67d5" x="62.64" y="531.064399" style="stroke: #000000; stroke-width: 0.8"/>
      </g>
     </g>
     <g id="text_13">
      <text style="font-size: 10px; font-family: 'Heiti TC'; text-anchor: end" x="55.64" y="535.364399" transform="rotate(-0 55.64 535.364399)">-5000</text>
     </g>
    </g>
    <g id="ytick_8">
     <g id="line2d_40">
      <path d="M 62.64 438.179947 
L 425.988837 438.179947 
" clip-path="url(#pea0b19ce5f)" style="fill: none; stroke: #e5e7eb; stroke-width: 0.5; stroke-linecap: square"/>
     </g>
     <g id="line2d_41">
      <g>
       <use xlink:href="#m373bba67d5" x="62.64" y="438.179947" style="stroke: #000000; stroke-width: 0.8"/>
      </g>
     </g>
     <g id="text_14">
      <text style="font-size: 10px; font-family: 'Heiti TC'; text-anchor: end" x="55.64" y="442.479947" transform="rotate(-0 55.64 442.479947)">0</text>
     </g>
    </g>
    <g id="ytick_9">
     <g id="line2d_42">
      <path d="M 62.64 345.295495 
L 425.988837 345.295495 
" clip-path="url(#pea0b19ce5f)" style="fill: none; stroke: #e5e7eb; stroke-width: 0.5; stroke-linecap: square"/>
     </g>
     <g id="line2d_43">
      <g>
       <use xlink:href="#m373bba67d5" x="62.64" y="345.295495" style="stroke: #000000; stroke-width: 0.8"/>
      </g>
     </g>
     <g id="text_15">
      <text style="font-size: 10px; font-family: 'Heiti TC'; text-anchor: end" x="55.64" y="349.595495" transform="rotate(-0 55.64 349.595495)">5000</text>
     </g>
    </g>
    <g id="text_16">
     <text style="font-size: 10px; font-family: 'Heiti TC'; text-anchor: middle" x="24.757188" y="438.179947" transform="rotate(-90 24.757188 438.179947)">净电池功率 / kW</text>
    </g>
   </g>
   <g id="line2d_44">
    <path d="M 65.163256 352.18053 
L 67.686512 351.990066 
L 70.209767 348.865152 
L 72.733023 348.716539 
L 75.256279 349.712606 
L 77.779535 347.104672 
L 80.302791 349.662377 
L 82.826047 351.397764 
L 85.349302 356.200722 
L 87.872558 425.819398 
L 90.395814 428.775162 
L 92.91907 433.891746 
L 95.442326 439.994456 
L 97.965581 438.179947 
L 100.488837 433.75196 
L 103.012093 435.203464 
L 105.535349 435.552088 
L 108.058605 433.387182 
L 110.58186 438.179947 
L 113.105116 439.69887 
L 115.628372 438.179947 
L 118.151628 438.404386 
L 120.674884 438.412321 
L 123.19814 439.629075 
L 125.721395 439.197112 
L 128.244651 438.179947 
L 130.767907 432.197179 
L 133.291163 442.396152 
L 135.814419 442.472733 
L 138.337674 438.179947 
L 140.86093 438.179947 
L 143.384186 438.179947 
L 145.907442 403.420129 
L 148.430698 352.024075 
L 150.953953 449.06437 
L 153.477209 500.261686 
L 156.000465 497.366994 
L 158.523721 497.853714 
L 161.046977 500.652915 
L 163.570233 497.313886 
L 166.093488 501.658501 
L 168.616744 511.261759 
L 171.14 506.491368 
L 173.663256 497.150553 
L 176.186512 492.135132 
L 178.709767 452.510957 
L 181.233023 483.783443 
L 183.756279 474.385889 
L 186.279535 472.162497 
L 188.802791 470.88938 
L 191.326047 463.798733 
L 193.849302 451.969575 
L 196.372558 452.249937 
L 198.895814 460.621806 
L 201.41907 456.391246 
L 203.942326 450.636967 
L 206.465581 445.006487 
L 208.988837 438.179947 
L 211.512093 438.179947 
L 214.035349 438.179947 
L 216.558605 431.637413 
L 219.08186 428.342219 
L 221.605116 427.091262 
L 224.128372 425.575592 
L 226.651628 423.959904 
L 229.174884 421.530502 
L 231.69814 417.749001 
L 234.221395 418.398208 
L 236.744651 419.36518 
L 239.267907 411.286342 
L 241.791163 393.878418 
L 244.314419 364.064352 
L 246.837674 345.295495 
L 249.36093 345.295495 
L 251.884186 346.541506 
L 254.407442 345.295495 
L 256.930698 348.734069 
L 259.453953 405.900417 
L 261.977209 404.045113 
L 264.500465 405.677305 
L 267.023721 412.000371 
L 269.546977 413.858514 
L 272.070233 414.071527 
L 274.593488 417.448648 
L 277.116744 425.518087 
L 279.64 431.589923 
L 282.163256 433.770722 
L 284.686512 435.662217 
L 287.209767 435.840877 
L 289.733023 382.599413 
L 292.256279 354.093313 
L 294.779535 444.044845 
L 297.302791 438.179947 
L 299.826047 438.179947 
L 302.349302 434.614012 
L 304.872558 435.45922 
L 307.395814 439.253451 
L 309.91907 440.746576 
L 312.442326 440.886999 
L 314.965581 443.364338 
L 317.488837 443.457028 
L 320.012093 430.833672 
L 322.535349 432.775029 
L 325.058605 439.770021 
L 327.58186 446.762903 
L 330.105116 445.846393 
L 332.628372 488.480796 
L 335.151628 492.878858 
L 337.674884 488.684044 
L 340.19814 488.294485 
L 342.721395 491.84171 
L 345.244651 487.724269 
L 347.767907 487.078807 
L 350.291163 491.248736 
L 352.814419 490.244673 
L 355.337674 490.954783 
L 357.86093 493.896686 
L 360.384186 491.382213 
L 362.907442 486.010192 
L 365.430698 484.479317 
L 367.953953 490.891094 
L 370.477209 493.837093 
L 373.000465 489.803825 
L 375.523721 486.096069 
L 378.046977 468.810016 
L 380.570233 441.901168 
L 383.093488 441.57641 
L 385.616744 438.179947 
L 388.14 438.179947 
L 390.663256 433.262269 
L 393.186512 433.622925 
L 395.709767 439.621205 
L 398.233023 423.355396 
L 400.756279 438.179947 
L 403.279535 434.005946 
L 405.802791 438.179947 
L 408.326047 440.043215 
L 410.849302 439.477117 
L 413.372558 438.179947 
L 415.895814 434.399713 
L 418.41907 433.618585 
L 420.942326 438.179947 
L 423.465581 441.484822 
L 425.988837 438.179947 
" clip-path="url(#pea0b19ce5f)" style="fill: none; stroke-dasharray: 3.885,1.68; stroke-dashoffset: 0; stroke: #7d8187; stroke-width: 1.05"/>
   </g>
   <g id="line2d_45">
    <path d="M 65.163256 352.18053 
L 67.686512 351.990066 
L 70.209767 348.865152 
L 72.733023 348.050528 
L 75.256279 349.712606 
L 77.779535 346.668401 
L 80.302791 432.551395 
L 82.826047 395.248428 
L 85.349302 350.119193 
L 87.872558 434.632765 
L 90.395814 436.190614 
L 92.91907 437.143709 
L 95.442326 354.172942 
L 97.965581 439.197743 
L 100.488837 433.75196 
L 103.012093 435.203464 
L 105.535349 435.552088 
L 108.058605 433.387182 
L 110.58186 436.506998 
L 113.105116 439.69887 
L 115.628372 436.878657 
L 118.151628 438.404386 
L 120.674884 438.412321 
L 123.19814 439.629075 
L 125.721395 439.197112 
L 128.244651 436.938372 
L 130.767907 432.197179 
L 133.291163 442.69024 
L 135.814419 442.472733 
L 138.337674 436.904625 
L 140.86093 436.996649 
L 143.384186 437.214414 
L 145.907442 350.356255 
L 148.430698 352.024075 
L 150.953953 475.394174 
L 153.477209 500.261686 
L 156.000465 497.366994 
L 158.523721 497.853714 
L 161.046977 500.652915 
L 163.570233 497.313886 
L 166.093488 501.658501 
L 168.616744 511.261759 
L 171.14 506.491368 
L 173.663256 497.150553 
L 176.186512 479.825856 
L 178.709767 446.199784 
L 181.233023 483.783443 
L 183.756279 474.385889 
L 186.279535 472.162497 
L 188.802791 470.88938 
L 191.326047 463.798733 
L 193.849302 451.969575 
L 196.372558 452.249937 
L 198.895814 460.621806 
L 201.41907 456.391246 
L 203.942326 450.636967 
L 206.465581 445.108698 
L 208.988837 438.179947 
L 211.512093 438.179947 
L 214.035349 436.784869 
L 216.558605 431.637413 
L 219.08186 428.342219 
L 221.605116 427.091262 
L 224.128372 425.575592 
L 226.651628 423.959904 
L 229.174884 421.530502 
L 231.69814 417.749001 
L 234.221395 418.398208 
L 236.744651 419.36518 
L 239.267907 411.680007 
L 241.791163 367.118253 
L 244.314419 364.064352 
L 246.837674 345.295495 
L 249.36093 345.295495 
L 251.884186 346.541506 
L 254.407442 345.295495 
L 256.930698 348.734069 
L 259.453953 405.900417 
L 261.977209 404.045113 
L 264.500465 405.677305 
L 267.023721 412.000371 
L 269.546977 413.858514 
L 272.070233 414.071527 
L 274.593488 417.448648 
L 277.116744 425.518087 
L 279.64 431.589923 
L 282.163256 433.770722 
L 284.686512 435.662217 
L 287.209767 435.840877 
L 289.733023 412.533221 
L 292.256279 354.093313 
L 294.779535 441.156008 
L 297.302791 438.257414 
L 299.826047 437.194885 
L 302.349302 434.220824 
L 304.872558 435.45922 
L 307.395814 439.253451 
L 309.91907 440.727226 
L 312.442326 440.906349 
L 314.965581 443.364338 
L 317.488837 443.435528 
L 320.012093 430.833672 
L 322.535349 432.77489 
L 325.058605 439.377485 
L 327.58186 438.609813 
L 330.105116 433.669226 
L 332.628372 488.480796 
L 335.151628 492.878858 
L 337.674884 488.684044 
L 340.19814 488.294485 
L 342.721395 491.84171 
L 345.244651 487.724269 
L 347.767907 487.078807 
L 350.291163 491.248736 
L 352.814419 490.244673 
L 355.337674 490.954783 
L 357.86093 493.896686 
L 360.384186 491.382213 
L 362.907442 486.010192 
L 365.430698 484.479317 
L 367.953953 490.891094 
L 370.477209 493.837093 
L 373.000465 489.803825 
L 375.523721 486.096069 
L 378.046977 486.037257 
L 380.570233 441.180257 
L 383.093488 442.251945 
L 385.616744 442.490372 
L 388.14 439.077791 
L 390.663256 438.179947 
L 393.186512 433.622925 
L 395.709767 438.980413 
L 398.233023 352.204726 
L 400.756279 481.120478 
L 403.279535 434.501314 
L 405.802791 437.815683 
L 408.326047 441.713129 
L 410.849302 440.490317 
L 413.372558 437.680162 
L 415.895814 437.067373 
L 418.41907 436.921185 
L 420.942326 438.890607 
L 423.465581 442.012665 
L 425.988837 444.045924 
" clip-path="url(#pea0b19ce5f)" style="fill: none; stroke: #245a82; stroke-width: 1.05; stroke-linecap: square"/>
   </g>
   <g id="line2d_46">
    <path d="M 62.64 438.179947 
L 425.988837 438.179947 
" clip-path="url(#pea0b19ce5f)" style="fill: none; stroke: #52565d; stroke-width: 0.7; stroke-linecap: square"/>
   </g>
   <g id="line2d_47">
    <path d="M 62.64 531.064399 
L 425.988837 531.064399 
" clip-path="url(#pea0b19ce5f)" style="fill: none; stroke-dasharray: 0.7,1.155; stroke-dashoffset: 0; stroke: #a8abb0; stroke-width: 0.7"/>
   </g>
   <g id="line2d_48">
    <path d="M 62.64 345.295495 
L 425.988837 345.295495 
" clip-path="url(#pea0b19ce5f)" style="fill: none; stroke-dasharray: 0.7,1.155; stroke-dashoffset: 0; stroke: #a8abb0; stroke-width: 0.7"/>
   </g>
   <g id="patch_9">
    <path d="M 62.64 539.424 
L 62.64 336.935894 
" style="fill: none; stroke: #51545a; stroke-width: 0.8; stroke-linejoin: miter; stroke-linecap: square"/>
   </g>
   <g id="patch_10">
    <path d="M 62.64 539.424 
L 425.988837 539.424 
" style="fill: none; stroke: #51545a; stroke-width: 0.8; stroke-linejoin: miter; stroke-linecap: square"/>
   </g>
   <g id="text_17">
    <text style="font-size: 12px; font-family: 'Heiti TC'; text-anchor: start; fill: #30343b" x="62.64" y="330.935894" transform="rotate(-0 62.64 330.935894)">2025-12-06</text>
   </g>
  </g>
  <g id="axes_4">
   <g id="patch_11">
    <path d="M 480.491163 539.424 
L 843.84 539.424 
L 843.84 336.935894 
L 480.491163 336.935894 
z
" style="fill: #ffffff"/>
   </g>
   <g id="matplotlib.axis_7">
    <g id="xtick_16">
     <g id="line2d_49">
      <g>
       <use xlink:href="#me47fdb84ba" x="480.491163" y="539.424" style="stroke: #000000; stroke-width: 0.8"/>
      </g>
     </g>
     <g id="text_18">
      <text style="font-size: 10px; font-family: 'Heiti TC'; text-anchor: middle" x="480.491163" y="555.024" transform="rotate(-0 480.491163 555.024)">00:00</text>
     </g>
    </g>
    <g id="xtick_17">
     <g id="line2d_50">
      <g>
       <use xlink:href="#me47fdb84ba" x="571.328372" y="539.424" style="stroke: #000000; stroke-width: 0.8"/>
      </g>
     </g>
     <g id="text_19">
      <text style="font-size: 10px; font-family: 'Heiti TC'; text-anchor: middle" x="571.328372" y="555.024" transform="rotate(-0 571.328372 555.024)">06:00</text>
     </g>
    </g>
    <g id="xtick_18">
     <g id="line2d_51">
      <g>
       <use xlink:href="#me47fdb84ba" x="662.165581" y="539.424" style="stroke: #000000; stroke-width: 0.8"/>
      </g>
     </g>
     <g id="text_20">
      <text style="font-size: 10px; font-family: 'Heiti TC'; text-anchor: middle" x="662.165581" y="555.024" transform="rotate(-0 662.165581 555.024)">12:00</text>
     </g>
    </g>
    <g id="xtick_19">
     <g id="line2d_52">
      <g>
       <use xlink:href="#me47fdb84ba" x="753.002791" y="539.424" style="stroke: #000000; stroke-width: 0.8"/>
      </g>
     </g>
     <g id="text_21">
      <text style="font-size: 10px; font-family: 'Heiti TC'; text-anchor: middle" x="753.002791" y="555.024" transform="rotate(-0 753.002791 555.024)">18:00</text>
     </g>
    </g>
    <g id="xtick_20">
     <g id="line2d_53">
      <g>
       <use xlink:href="#me47fdb84ba" x="843.84" y="539.424" style="stroke: #000000; stroke-width: 0.8"/>
      </g>
     </g>
     <g id="text_22">
      <text style="font-size: 10px; font-family: 'Heiti TC'; text-anchor: middle" x="843.84" y="555.024" transform="rotate(-0 843.84 555.024)">24:00</text>
     </g>
    </g>
   </g>
   <g id="matplotlib.axis_8">
    <g id="ytick_10">
     <g id="line2d_54">
      <path d="M 480.491163 531.064399 
L 843.84 531.064399 
" clip-path="url(#pe0113e9e3a)" style="fill: none; stroke: #e5e7eb; stroke-width: 0.5; stroke-linecap: square"/>
     </g>
     <g id="line2d_55">
      <g>
       <use xlink:href="#m373bba67d5" x="480.491163" y="531.064399" style="stroke: #000000; stroke-width: 0.8"/>
      </g>
     </g>
    </g>
    <g id="ytick_11">
     <g id="line2d_56">
      <path d="M 480.491163 438.179947 
L 843.84 438.179947 
" clip-path="url(#pe0113e9e3a)" style="fill: none; stroke: #e5e7eb; stroke-width: 0.5; stroke-linecap: square"/>
     </g>
     <g id="line2d_57">
      <g>
       <use xlink:href="#m373bba67d5" x="480.491163" y="438.179947" style="stroke: #000000; stroke-width: 0.8"/>
      </g>
     </g>
    </g>
    <g id="ytick_12">
     <g id="line2d_58">
      <path d="M 480.491163 345.295495 
L 843.84 345.295495 
" clip-path="url(#pe0113e9e3a)" style="fill: none; stroke: #e5e7eb; stroke-width: 0.5; stroke-linecap: square"/>
     </g>
     <g id="line2d_59">
      <g>
       <use xlink:href="#m373bba67d5" x="480.491163" y="345.295495" style="stroke: #000000; stroke-width: 0.8"/>
      </g>
     </g>
    </g>
    <g id="text_23">
     <text style="font-size: 10px; font-family: 'Heiti TC'; text-anchor: middle" x="471.591163" y="438.179947" transform="rotate(-90 471.591163 438.179947)">净电池功率 / kW</text>
    </g>
   </g>
   <g id="line2d_60">
    <path d="M 483.014419 349.464985 
L 485.537674 347.064084 
L 488.06093 345.347307 
L 490.584186 347.254481 
L 493.107442 347.256354 
L 495.630698 349.766808 
L 498.153953 358.672769 
L 500.677209 363.424116 
L 503.200465 360.119732 
L 505.723721 424.682998 
L 508.246977 420.092738 
L 510.770233 421.139991 
L 513.293488 431.045535 
L 515.816744 435.142453 
L 518.34 430.190885 
L 520.863256 435.743165 
L 523.386512 433.66923 
L 525.909767 424.278351 
L 528.433023 426.035039 
L 530.956279 430.10985 
L 533.479535 429.500855 
L 536.002791 429.459812 
L 538.526047 429.048763 
L 541.049302 431.830912 
L 543.572558 432.251194 
L 546.095814 425.810878 
L 548.61907 420.553853 
L 551.142326 422.009731 
L 553.665581 433.204879 
L 556.188837 435.126112 
L 558.712093 424.942137 
L 561.235349 422.292172 
L 563.758605 418.520769 
L 566.28186 368.518493 
L 568.805116 438.179947 
L 571.328372 519.290037 
L 573.851628 531.064399 
L 576.374884 442.855321 
L 578.89814 438.179947 
L 581.421395 438.179947 
L 583.944651 441.836724 
L 586.467907 444.805139 
L 588.991163 439.168274 
L 591.514419 438.179947 
L 594.037674 348.070653 
L 596.56093 345.295495 
L 599.084186 438.179947 
L 601.607442 526.310957 
L 604.130698 527.026718 
L 606.653953 522.666575 
L 609.177209 521.507982 
L 611.700465 517.311502 
L 614.223721 512.361721 
L 616.746977 506.7355 
L 619.270233 497.511056 
L 621.793488 494.099101 
L 624.316744 494.91665 
L 626.84 446.2785 
L 629.363256 473.011539 
L 631.886512 480.78363 
L 634.409767 476.632606 
L 636.933023 471.24605 
L 639.456279 464.795853 
L 641.979535 467.546086 
L 644.502791 440.35191 
L 647.026047 361.39658 
L 649.549302 358.385568 
L 652.072558 360.893288 
L 654.595814 366.355931 
L 657.11907 361.222453 
L 659.642326 357.308701 
L 662.165581 363.710779 
L 664.688837 347.496701 
L 667.212093 345.295495 
L 669.735349 345.295495 
L 672.258605 345.295495 
L 674.78186 345.295495 
L 677.305116 438.179947 
L 679.828372 448.631282 
L 682.351628 441.592608 
L 684.874884 463.521798 
L 687.39814 463.184789 
L 689.921395 466.612469 
L 692.444651 471.440383 
L 694.967907 472.822363 
L 697.491163 477.580361 
L 700.014419 483.813057 
L 702.537674 482.844813 
L 705.06093 485.174277 
L 707.584186 345.295495 
L 710.107442 348.04294 
L 712.630698 348.524528 
L 715.153953 345.295495 
L 717.677209 349.884382 
L 720.200465 438.179947 
L 722.723721 441.048379 
L 725.246977 439.53338 
L 727.770233 438.770215 
L 730.293488 438.179947 
L 732.816744 438.179947 
L 735.34 438.179947 
L 737.863256 438.179947 
L 740.386512 441.190096 
L 742.909767 439.10966 
L 745.433023 438.179947 
L 747.956279 438.405243 
L 750.479535 442.773326 
L 753.002791 444.857258 
L 755.526047 439.670087 
L 758.049302 440.742879 
L 760.572558 442.659048 
L 763.095814 440.544682 
L 765.61907 519.054661 
L 768.142326 516.55882 
L 770.665581 517.957734 
L 773.188837 519.309887 
L 775.712093 519.420776 
L 778.235349 521.24874 
L 780.758605 522.887759 
L 783.28186 522.094176 
L 785.805116 518.674799 
L 788.328372 516.74338 
L 790.851628 518.190243 
L 793.374884 521.120015 
L 795.89814 439.370315 
L 798.421395 438.179947 
L 800.944651 435.153409 
L 803.467907 438.179947 
L 805.991163 439.514579 
L 808.514419 439.5692 
L 811.037674 438.179947 
L 813.56093 434.999919 
L 816.084186 426.737873 
L 818.607442 438.179947 
L 821.130698 438.179947 
L 823.653953 438.179947 
L 826.177209 432.529991 
L 828.700465 432.121096 
L 831.223721 434.866945 
L 833.746977 438.567531 
L 836.270233 443.749868 
L 838.793488 446.107199 
L 841.316744 440.8445 
L 843.84 430.974387 
" clip-path="url(#pe0113e9e3a)" style="fill: none; stroke-dasharray: 3.885,1.68; stroke-dashoffset: 0; stroke: #7d8187; stroke-width: 1.05"/>
   </g>
   <g id="line2d_61">
    <path d="M 483.014419 349.464985 
L 485.537674 347.064084 
L 488.06093 345.295495 
L 490.584186 347.254481 
L 493.107442 347.151424 
L 495.630698 348.341595 
L 498.153953 442.235993 
L 500.677209 442.763487 
L 503.200465 349.352916 
L 505.723721 429.580533 
L 508.246977 424.457282 
L 510.770233 427.512213 
L 513.293488 349.060797 
L 515.816744 435.142453 
L 518.34 430.190885 
L 520.863256 435.743165 
L 523.386512 433.66923 
L 525.909767 424.278351 
L 528.433023 426.035039 
L 530.956279 430.10985 
L 533.479535 429.500855 
L 536.002791 429.459812 
L 538.526047 429.048763 
L 541.049302 431.830912 
L 543.572558 432.251194 
L 546.095814 425.810878 
L 548.61907 420.553853 
L 551.142326 422.009731 
L 553.665581 433.204879 
L 556.188837 435.126112 
L 558.712093 424.942137 
L 561.235349 422.292172 
L 563.758605 345.295495 
L 566.28186 362.946309 
L 568.805116 438.179947 
L 571.328372 519.290037 
L 573.851628 531.064399 
L 576.374884 445.234906 
L 578.89814 443.939147 
L 581.421395 439.576342 
L 583.944651 443.02361 
L 586.467907 445.992026 
L 588.991163 439.168274 
L 591.514419 422.444737 
L 594.037674 348.070653 
L 596.56093 345.295495 
L 599.084186 435.633908 
L 601.607442 526.310957 
L 604.130698 527.411111 
L 606.653953 522.666575 
L 609.177209 521.507982 
L 611.700465 517.311502 
L 614.223721 512.361721 
L 616.746977 506.7355 
L 619.270233 497.511056 
L 621.793488 494.099101 
L 624.316744 494.91665 
L 626.84 441.107052 
L 629.363256 483.240287 
L 631.886512 480.78363 
L 634.409767 476.632606 
L 636.933023 471.24605 
L 639.456279 464.206645 
L 641.979535 467.546086 
L 644.502791 440.35191 
L 647.026047 361.39658 
L 649.549302 358.385568 
L 652.072558 360.893288 
L 654.595814 366.355931 
L 657.11907 361.222453 
L 659.642326 357.308701 
L 662.165581 363.710779 
L 664.688837 347.496701 
L 667.212093 345.295495 
L 669.735349 345.295495 
L 672.258605 345.295495 
L 674.78186 345.295495 
L 677.305116 437.19623 
L 679.828372 464.656593 
L 682.351628 440.187741 
L 684.874884 448.770758 
L 687.39814 463.184789 
L 689.921395 466.612469 
L 692.444651 471.440383 
L 694.967907 472.822363 
L 697.491163 477.580361 
L 700.014419 483.813057 
L 702.537674 482.844813 
L 705.06093 485.174277 
L 707.584186 345.295495 
L 710.107442 348.04294 
L 712.630698 348.524528 
L 715.153953 345.295495 
L 717.677209 349.884382 
L 720.200465 436.506492 
L 722.723721 441.048379 
L 725.246977 439.343517 
L 727.770233 439.963659 
L 730.293488 437.498058 
L 732.816744 436.01087 
L 735.34 436.065913 
L 737.863256 436.413904 
L 740.386512 442.210766 
L 742.909767 439.10966 
L 745.433023 437.524106 
L 747.956279 436.261725 
L 750.479535 442.773326 
L 753.002791 444.857258 
L 755.526047 447.175952 
L 758.049302 440.742879 
L 760.572558 442.659048 
L 763.095814 441.828198 
L 765.61907 519.054661 
L 768.142326 516.55882 
L 770.665581 517.957734 
L 773.188837 519.309887 
L 775.712093 519.420776 
L 778.235349 521.24874 
L 780.758605 522.887759 
L 783.28186 522.094176 
L 785.805116 518.674799 
L 788.328372 516.74338 
L 790.851628 518.190243 
L 793.374884 521.120015 
L 795.89814 439.370315 
L 798.421395 438.179947 
L 800.944651 434.978795 
L 803.467907 435.681773 
L 805.991163 439.514579 
L 808.514419 441.534544 
L 811.037674 438.620111 
L 813.56093 434.999919 
L 816.084186 346.040314 
L 818.607442 493.885219 
L 821.130698 441.20351 
L 823.653953 436.640091 
L 826.177209 432.704639 
L 828.700465 432.483414 
L 831.223721 435.476187 
L 833.746977 439.167972 
L 836.270233 444.293593 
L 838.793488 446.341681 
L 841.316744 443.17895 
L 843.84 435.371178 
" clip-path="url(#pe0113e9e3a)" style="fill: none; stroke: #245a82; stroke-width: 1.05; stroke-linecap: square"/>
   </g>
   <g id="line2d_62">
    <path d="M 480.491163 438.179947 
L 843.84 438.179947 
" clip-path="url(#pe0113e9e3a)" style="fill: none; stroke: #52565d; stroke-width: 0.7; stroke-linecap: square"/>
   </g>
   <g id="line2d_63">
    <path d="M 480.491163 531.064399 
L 843.84 531.064399 
" clip-path="url(#pe0113e9e3a)" style="fill: none; stroke-dasharray: 0.7,1.155; stroke-dashoffset: 0; stroke: #a8abb0; stroke-width: 0.7"/>
   </g>
   <g id="line2d_64">
    <path d="M 480.491163 345.295495 
L 843.84 345.295495 
" clip-path="url(#pe0113e9e3a)" style="fill: none; stroke-dasharray: 0.7,1.155; stroke-dashoffset: 0; stroke: #a8abb0; stroke-width: 0.7"/>
   </g>
   <g id="patch_12">
    <path d="M 480.491163 539.424 
L 480.491163 336.935894 
" style="fill: none; stroke: #51545a; stroke-width: 0.8; stroke-linejoin: miter; stroke-linecap: square"/>
   </g>
   <g id="patch_13">
    <path d="M 480.491163 539.424 
L 843.84 539.424 
" style="fill: none; stroke: #51545a; stroke-width: 0.8; stroke-linejoin: miter; stroke-linecap: square"/>
   </g>
   <g id="text_24">
    <text style="font-size: 12px; font-family: 'Heiti TC'; text-anchor: start; fill: #30343b" x="480.491163" y="330.935894" transform="rotate(-0 480.491163 330.935894)">2025-12-25</text>
   </g>
  </g>
  <g id="text_25">
   <text style="font-size: 15px; font-family: 'Heiti TC'; text-anchor: start; fill: #30343b" x="7.2" y="20.1" transform="rotate(-0 7.2 20.1)">问题3：完整十分钟实际执行功率</text>
  </g>
  <g id="text_26">
   <text style="font-size: 9px; font-family: 'Heiti TC'; text-anchor: start; fill: #30343b" x="7.2" y="587.808" transform="rotate(-0 7.2 587.808)">固定种子20260912，不放回抽样后排序；充电为正、放电为负。每条每日144点；00:10代表00:00–00:10区间终点。</text>
  </g>
  <g id="legend_1">
   <g id="line2d_65">
    <path d="M 367.897812 36.42 
L 377.897812 36.42 
L 387.897812 36.42 
" style="fill: none; stroke-dasharray: 3.885,1.68; stroke-dashoffset: 0; stroke: #7d8187; stroke-width: 1.05"/>
   </g>
   <g id="text_27">
    <text style="font-size: 10px; font-family: 'Heiti TC'; text-anchor: start; fill: #30343b" x="395.897812" y="39.92" transform="rotate(-0 395.897812 39.92)">exp008</text>
   </g>
   <g id="line2d_66">
    <path d="M 450.64 36.42 
L 460.64 36.42 
L 470.64 36.42 
" style="fill: none; stroke: #245a82; stroke-width: 1.05; stroke-linecap: square"/>
   </g>
   <g id="text_28">
    <text style="font-size: 10px; font-family: 'Heiti TC'; text-anchor: start; fill: #30343b" x="478.64" y="39.92" transform="rotate(-0 478.64 39.92)">exp009</text>
   </g>
  </g>
 </g>
 <defs>
  <clipPath id="pb5f85498f5">
   <rect x="62.64" y="79.776" width="363.348837" height="202.488106"/>
  </clipPath>
  <clipPath id="p195f245dc8">
   <rect x="480.491163" y="79.776" width="363.348837" height="202.488106"/>
  </clipPath>
  <clipPath id="pea0b19ce5f">
   <rect x="62.64" y="336.935894" width="363.348837" height="202.488106"/>
  </clipPath>
  <clipPath id="pe0113e9e3a">
   <rect x="480.491163" y="336.935894" width="363.348837" height="202.488106"/>
  </clipPath>
 </defs>
</svg>
