<?xml version="1.0" encoding="utf-8" standalone="no"?>
<!DOCTYPE svg PUBLIC "-//W3C//DTD SVG 1.1//EN"
  "http://www.w3.org/Graphics/SVG/1.1/DTD/svg11.dtd">
<svg xmlns:xlink="http://www.w3.org/1999/xlink" width="863.52pt" height="34.24pt" viewBox="0 0 863.52 34.24" xmlns="http://www.w3.org/2000/svg" version="1.1">
 <metadata>
  <rdf:RDF xmlns:dc="http://purl.org/dc/elements/1.1/" xmlns:cc="http://creativecommons.org/ns#" xmlns:rdf="http://www.w3.org/1999/02/22-rdf-syntax-ns#">
   <cc:Work>
    <dc:type rdf:resource="http://purl.org/dc/dcmitype/StillImage"/>
    <dc:date>2026-09-13T10:23:56.863660</dc:date>
    <dc:format>image/svg+xml</dc:format>
    <dc:creator>
     <cc:Agent>
      <dc:title>Matplotlib v3.11.1, https://matplotlib.org/</dc:title>
     </cc:Agent>
    </dc:creator>
   </cc:Work>
  </rdf:RDF>
 </metadata>
 <defs>
  <style type="text/css">*{stroke-linejoin: round; stroke-linecap: butt}</style>
 </defs>
 <g id="figure_1">
  <g id="patch_1">
   <path d="M 0 34.24 
L 863.52 34.24 
L 863.52 0 
L 0 0 
z
" style="fill: #ffffff"/>
  </g>
  <g id="text_1">
   <!-- $\theta_p=(X^TWX+\Lambda_p)^{-1}(X^TWp+\Lambda_p\mu),\quad \Lambda_p=\operatorname{diag}(10^{-6},5,5,5,5,5,5,5,5,5),\quad \mu=(0,0,0.5,0.5,0,0,0,0,0,0)^T$ -->
   <g transform="translate(7.2 22.24) scale(0.16 -0.16)">
    <defs>
     <path id="DejaVuSans-Oblique-34c" d="M 2913 2219 
L 925 2219 
Q 791 1284 928 888 
Q 1100 400 1566 400 
Q 2034 400 2391 891 
Q 2703 1322 2913 2219 
z
M 3009 2750 
Q 3094 3638 2984 3950 
Q 2813 4444 2353 4444 
Q 1875 4444 1525 3956 
Q 1250 3563 1034 2750 
L 3009 2750 
z
M 2444 4913 
Q 3194 4913 3494 4250 
Q 3794 3591 3566 2422 
Q 3341 1256 2781 594 
Q 2225 -72 1475 -72 
Q 722 -72 425 594 
Q 128 1256 353 2422 
Q 581 3591 1134 4250 
Q 1691 4913 2444 4913 
z
" transform="scale(0.015625)"/>
     <path id="DejaVuSans-Oblique-53" d="M 3175 2156 
Q 3175 2616 2975 2859 
Q 2775 3103 2400 3103 
Q 2144 3103 1911 2972 
Q 1678 2841 1497 2591 
Q 1319 2344 1212 1994 
Q 1106 1644 1106 1300 
Q 1106 863 1306 627 
Q 1506 391 1875 391 
Q 2147 391 2380 519 
Q 2613 647 2778 891 
Q 2956 1147 3065 1494 
Q 3175 1841 3175 2156 
z
M 1394 2969 
Q 1625 3272 1939 3428 
Q 2253 3584 2638 3584 
Q 3175 3584 3472 3232 
Q 3769 2881 3769 2247 
Q 3769 1728 3584 1258 
Q 3400 788 3053 416 
Q 2822 169 2531 39 
Q 2241 -91 1919 -91 
Q 1547 -91 1294 64 
Q 1041 219 916 525 
L 556 -1331 
L -19 -1331 
L 922 3500 
L 1497 3500 
L 1394 2969 
z
" transform="scale(0.015625)"/>
     <path id="DejaVuSans-20" d="M 678 2906 
L 4684 2906 
L 4684 2381 
L 678 2381 
L 678 2906 
z
M 678 1631 
L 4684 1631 
L 4684 1100 
L 678 1100 
L 678 1631 
z
" transform="scale(0.015625)"/>
     <path id="DejaVuSans-b" d="M 1984 4856 
Q 1566 4138 1362 3434 
Q 1159 2731 1159 2009 
Q 1159 1288 1364 580 
Q 1569 -128 1984 -844 
L 1484 -844 
Q 1016 -109 783 600 
Q 550 1309 550 2009 
Q 550 2706 781 3412 
Q 1013 4119 1484 4856 
L 1984 4856 
z
" transform="scale(0.015625)"/>
     <path id="DejaVuSans-Oblique-3b" d="M 878 4666 
L 1516 4666 
L 2316 2981 
L 3763 4666 
L 4500 4666 
L 2578 2438 
L 3738 0 
L 3103 0 
L 2163 1966 
L 459 0 
L -275 0 
L 1906 2509 
L 878 4666 
z
" transform="scale(0.015625)"/>
     <path id="DejaVuSans-Oblique-37" d="M 378 4666 
L 4325 4666 
L 4225 4134 
L 2559 4134 
L 1759 0 
L 1125 0 
L 1925 4134 
L 275 4134 
L 378 4666 
z
" transform="scale(0.015625)"/>
     <path id="DejaVuSans-Oblique-3a" d="M 616 4666 
L 1228 4666 
L 1453 697 
L 3213 4666 
L 3916 4666 
L 4147 697 
L 5888 4666 
L 6528 4666 
L 4453 0 
L 3659 0 
L 3444 3891 
L 1697 0 
L 903 0 
L 616 4666 
z
" transform="scale(0.015625)"/>
     <path id="DejaVuSans-e" d="M 2944 4013 
L 2944 2272 
L 4684 2272 
L 4684 1741 
L 2944 1741 
L 2944 0 
L 2419 0 
L 2419 1741 
L 678 1741 
L 678 2272 
L 2419 2272 
L 2419 4013 
L 2944 4013 
z
" transform="scale(0.015625)"/>
     <path id="DejaVuSans-330" d="M 716 0 
L 50 0 
L 1831 4666 
L 2547 4666 
L 4325 0 
L 3669 0 
L 2188 4044 
L 716 0 
z
" transform="scale(0.015625)"/>
     <path id="DejaVuSans-c" d="M 513 4856 
L 1013 4856 
Q 1481 4119 1714 3412 
Q 1947 2706 1947 2009 
Q 1947 1309 1714 600 
Q 1481 -109 1013 -844 
L 513 -844 
Q 928 -128 1133 580 
Q 1338 1288 1338 2009 
Q 1338 2731 1133 3434 
Q 928 4138 513 4856 
z
" transform="scale(0.015625)"/>
     <path id="DejaVuSans-c9c" d="M 678 2272 
L 4684 2272 
L 4684 1741 
L 678 1741 
L 678 2272 
z
" transform="scale(0.015625)"/>
     <path id="DejaVuSans-14" d="M 794 531 
L 1825 531 
L 1825 4091 
L 703 3866 
L 703 4441 
L 1819 4666 
L 2450 4666 
L 2450 531 
L 3481 531 
L 3481 0 
L 794 0 
L 794 531 
z
" transform="scale(0.015625)"/>
     <path id="DejaVuSans-Oblique-350" d="M -84 -1331 
L 856 3500 
L 1434 3500 
L 1009 1322 
Q 997 1256 987 1175 
Q 978 1094 978 1013 
Q 978 722 1161 565 
Q 1344 409 1684 409 
Q 2147 409 2431 671 
Q 2716 934 2816 1459 
L 3213 3500 
L 3788 3500 
L 3266 809 
Q 3253 750 3248 706 
Q 3244 663 3244 628 
Q 3244 531 3283 486 
Q 3322 441 3406 441 
Q 3438 441 3492 456 
Q 3547 472 3647 513 
L 3559 50 
Q 3422 -19 3297 -55 
Q 3172 -91 3053 -91 
Q 2847 -91 2730 40 
Q 2613 172 2613 403 
Q 2438 153 2195 31 
Q 1953 -91 1625 -91 
Q 1334 -91 1117 43 
Q 900 178 831 397 
L 494 -1331 
L -84 -1331 
z
" transform="scale(0.015625)"/>
     <path id="DejaVuSans-f" d="M 750 794 
L 1409 794 
L 1409 256 
L 897 -744 
L 494 -744 
L 750 256 
L 750 794 
z
" transform="scale(0.015625)"/>
     <path id="DejaVuSans-47" d="M 2906 2969 
L 2906 4863 
L 3481 4863 
L 3481 0 
L 2906 0 
L 2906 525 
Q 2725 213 2448 61 
Q 2172 -91 1784 -91 
Q 1150 -91 751 415 
Q 353 922 353 1747 
Q 353 2572 751 3078 
Q 1150 3584 1784 3584 
Q 2172 3584 2448 3432 
Q 2725 3281 2906 2969 
z
M 947 1747 
Q 947 1113 1208 752 
Q 1469 391 1925 391 
Q 2381 391 2643 752 
Q 2906 1113 2906 1747 
Q 2906 2381 2643 2742 
Q 2381 3103 1925 3103 
Q 1469 3103 1208 2742 
Q 947 2381 947 1747 
z
" transform="scale(0.015625)"/>
     <path id="DejaVuSans-4c" d="M 603 3500 
L 1178 3500 
L 1178 0 
L 603 0 
L 603 3500 
z
M 603 4863 
L 1178 4863 
L 1178 4134 
L 603 4134 
L 603 4863 
z
" transform="scale(0.015625)"/>
     <path id="DejaVuSans-44" d="M 2194 1759 
Q 1497 1759 1228 1600 
Q 959 1441 959 1056 
Q 959 750 1161 570 
Q 1363 391 1709 391 
Q 2188 391 2477 730 
Q 2766 1069 2766 1631 
L 2766 1759 
L 2194 1759 
z
M 3341 1997 
L 3341 0 
L 2766 0 
L 2766 531 
Q 2569 213 2275 61 
Q 1981 -91 1556 -91 
Q 1019 -91 701 211 
Q 384 513 384 1019 
Q 384 1609 779 1909 
Q 1175 2209 1959 2209 
L 2766 2209 
L 2766 2266 
Q 2766 2663 2505 2880 
Q 2244 3097 1772 3097 
Q 1472 3097 1187 3025 
Q 903 2953 641 2809 
L 641 3341 
Q 956 3463 1253 3523 
Q 1550 3584 1831 3584 
Q 2591 3584 2966 3190 
Q 3341 2797 3341 1997 
z
" transform="scale(0.015625)"/>
     <path id="DejaVuSans-4a" d="M 2906 1791 
Q 2906 2416 2648 2759 
Q 2391 3103 1925 3103 
Q 1463 3103 1205 2759 
Q 947 2416 947 1791 
Q 947 1169 1205 825 
Q 1463 481 1925 481 
Q 2391 481 2648 825 
Q 2906 1169 2906 1791 
z
M 3481 434 
Q 3481 -459 3084 -895 
Q 2688 -1331 1869 -1331 
Q 1566 -1331 1297 -1286 
Q 1028 -1241 775 -1147 
L 775 -588 
Q 1028 -725 1275 -790 
Q 1522 -856 1778 -856 
Q 2344 -856 2625 -561 
Q 2906 -266 2906 331 
L 2906 616 
Q 2728 306 2450 153 
Q 2172 0 1784 0 
Q 1141 0 747 490 
Q 353 981 353 1791 
Q 353 2603 747 3093 
Q 1141 3584 1784 3584 
Q 2172 3584 2450 3431 
Q 2728 3278 2906 2969 
L 2906 3500 
L 3481 3500 
L 3481 434 
z
" transform="scale(0.015625)"/>
     <path id="DejaVuSans-13" d="M 2034 4250 
Q 1547 4250 1301 3770 
Q 1056 3291 1056 2328 
Q 1056 1369 1301 889 
Q 1547 409 2034 409 
Q 2525 409 2770 889 
Q 3016 1369 3016 2328 
Q 3016 3291 2770 3770 
Q 2525 4250 2034 4250 
z
M 2034 4750 
Q 2819 4750 3233 4129 
Q 3647 3509 3647 2328 
Q 3647 1150 3233 529 
Q 2819 -91 2034 -91 
Q 1250 -91 836 529 
Q 422 1150 422 2328 
Q 422 3509 836 4129 
Q 1250 4750 2034 4750 
z
" transform="scale(0.015625)"/>
     <path id="DejaVuSans-19" d="M 2113 2584 
Q 1688 2584 1439 2293 
Q 1191 2003 1191 1497 
Q 1191 994 1439 701 
Q 1688 409 2113 409 
Q 2538 409 2786 701 
Q 3034 994 3034 1497 
Q 3034 2003 2786 2293 
Q 2538 2584 2113 2584 
z
M 3366 4563 
L 3366 3988 
Q 3128 4100 2886 4159 
Q 2644 4219 2406 4219 
Q 1781 4219 1451 3797 
Q 1122 3375 1075 2522 
Q 1259 2794 1537 2939 
Q 1816 3084 2150 3084 
Q 2853 3084 3261 2657 
Q 3669 2231 3669 1497 
Q 3669 778 3244 343 
Q 2819 -91 2113 -91 
Q 1303 -91 875 529 
Q 447 1150 447 2328 
Q 447 3434 972 4092 
Q 1497 4750 2381 4750 
Q 2619 4750 2861 4703 
Q 3103 4656 3366 4563 
z
" transform="scale(0.015625)"/>
     <path id="DejaVuSans-18" d="M 691 4666 
L 3169 4666 
L 3169 4134 
L 1269 4134 
L 1269 2991 
Q 1406 3038 1543 3061 
Q 1681 3084 1819 3084 
Q 2600 3084 3056 2656 
Q 3513 2228 3513 1497 
Q 3513 744 3044 326 
Q 2575 -91 1722 -91 
Q 1428 -91 1123 -41 
Q 819 9 494 109 
L 494 744 
Q 775 591 1075 516 
Q 1375 441 1709 441 
Q 2250 441 2565 725 
Q 2881 1009 2881 1497 
Q 2881 1984 2565 2268 
Q 2250 2553 1709 2553 
Q 1456 2553 1204 2497 
Q 953 2441 691 2322 
L 691 4666 
z
" transform="scale(0.015625)"/>
     <path id="DejaVuSans-11" d="M 684 794 
L 1344 794 
L 1344 0 
L 684 0 
L 684 794 
z
" transform="scale(0.015625)"/>
    </defs>
    <use xlink:href="#DejaVuSans-Oblique-34c" transform="translate(0 0.746875)"/>
    <use xlink:href="#DejaVuSans-Oblique-53" transform="translate(61.181641 -14.253076) scale(0.7)"/>
    <use xlink:href="#DejaVuSans-20" transform="translate(127.832031 0.746875)"/>
    <use xlink:href="#DejaVuSans-b" transform="translate(231.103516 0.746875)"/>
    <use xlink:href="#DejaVuSans-Oblique-3b" transform="translate(270.117188 0.746875)"/>
    <use xlink:href="#DejaVuSans-Oblique-37" transform="translate(345.639818 42.046875) scale(0.7)"/>
    <use xlink:href="#DejaVuSans-Oblique-3a" transform="translate(391.132982 0.746875)"/>
    <use xlink:href="#DejaVuSans-Oblique-3b" transform="translate(490.009935 0.746875)"/>
    <use xlink:href="#DejaVuSans-e" transform="translate(577.998216 0.746875)"/>
    <use xlink:href="#DejaVuSans-330" transform="translate(681.269701 0.746875)"/>
    <use xlink:href="#DejaVuSans-Oblique-53" transform="translate(750.634935 -14.253076) scale(0.7)"/>
    <use xlink:href="#DejaVuSans-c" transform="translate(797.802904 0.746875)"/>
    <use xlink:href="#DejaVuSans-c9c" transform="translate(837.773607 42.046875) scale(0.7)"/>
    <use xlink:href="#DejaVuSans-14" transform="translate(896.425951 42.046875) scale(0.7)"/>
    <use xlink:href="#DejaVuSans-b" transform="translate(943.696458 0.746875)"/>
    <use xlink:href="#DejaVuSans-Oblique-3b" transform="translate(982.71013 0.746875)"/>
    <use xlink:href="#DejaVuSans-Oblique-37" transform="translate(1058.23276 42.046875) scale(0.7)"/>
    <use xlink:href="#DejaVuSans-Oblique-3a" transform="translate(1103.725924 0.746875)"/>
    <use xlink:href="#DejaVuSans-Oblique-53" transform="translate(1202.602878 0.746875)"/>
    <use xlink:href="#DejaVuSans-e" transform="translate(1285.561862 0.746875)"/>
    <use xlink:href="#DejaVuSans-330" transform="translate(1388.833346 0.746875)"/>
    <use xlink:href="#DejaVuSans-Oblique-53" transform="translate(1458.198581 -14.253076) scale(0.7)"/>
    <use xlink:href="#DejaVuSans-Oblique-350" transform="translate(1505.366549 0.746875)"/>
    <use xlink:href="#DejaVuSans-c" transform="translate(1568.989596 0.746875)"/>
    <use xlink:href="#DejaVuSans-f" transform="translate(1608.003268 0.746875)"/>
    <use xlink:href="#DejaVuSans-330" transform="translate(1756.684909 0.746875)"/>
    <use xlink:href="#DejaVuSans-Oblique-53" transform="translate(1826.050143 -14.253076) scale(0.7)"/>
    <use xlink:href="#DejaVuSans-20" transform="translate(1892.700534 0.746875)"/>
    <use xlink:href="#DejaVuSans-47" transform="translate(1995.972018 0.746875)"/>
    <use xlink:href="#DejaVuSans-4c" transform="translate(2059.448581 0.746875)"/>
    <use xlink:href="#DejaVuSans-44" transform="translate(2087.231784 0.746875)"/>
    <use xlink:href="#DejaVuSans-4a" transform="translate(2148.511081 0.746875)"/>
    <use xlink:href="#DejaVuSans-b" transform="translate(2211.987643 0.746875)"/>
    <use xlink:href="#DejaVuSans-14" transform="translate(2251.001315 0.746875)"/>
    <use xlink:href="#DejaVuSans-13" transform="translate(2314.624362 0.746875)"/>
    <use xlink:href="#DejaVuSans-c9c" transform="translate(2379.20444 42.046875) scale(0.7)"/>
    <use xlink:href="#DejaVuSans-19" transform="translate(2437.856784 42.046875) scale(0.7)"/>
    <use xlink:href="#DejaVuSans-f" transform="translate(2485.127292 0.746875)"/>
    <use xlink:href="#DejaVuSans-18" transform="translate(2536.396823 0.746875)"/>
    <use xlink:href="#DejaVuSans-f" transform="translate(2600.01987 0.746875)"/>
    <use xlink:href="#DejaVuSans-18" transform="translate(2651.289401 0.746875)"/>
    <use xlink:href="#DejaVuSans-f" transform="translate(2714.912448 0.746875)"/>
    <use xlink:href="#DejaVuSans-18" transform="translate(2766.181979 0.746875)"/>
    <use xlink:href="#DejaVuSans-f" transform="translate(2829.805026 0.746875)"/>
    <use xlink:href="#DejaVuSans-18" transform="translate(2881.074557 0.746875)"/>
    <use xlink:href="#DejaVuSans-f" transform="translate(2944.697604 0.746875)"/>
    <use xlink:href="#DejaVuSans-18" transform="translate(2995.967135 0.746875)"/>
    <use xlink:href="#DejaVuSans-f" transform="translate(3059.590182 0.746875)"/>
    <use xlink:href="#DejaVuSans-18" transform="translate(3110.859714 0.746875)"/>
    <use xlink:href="#DejaVuSans-f" transform="translate(3174.48276 0.746875)"/>
    <use xlink:href="#DejaVuSans-18" transform="translate(3225.752292 0.746875)"/>
    <use xlink:href="#DejaVuSans-f" transform="translate(3289.375339 0.746875)"/>
    <use xlink:href="#DejaVuSans-18" transform="translate(3340.64487 0.746875)"/>
    <use xlink:href="#DejaVuSans-f" transform="translate(3404.267917 0.746875)"/>
    <use xlink:href="#DejaVuSans-18" transform="translate(3455.537448 0.746875)"/>
    <use xlink:href="#DejaVuSans-c" transform="translate(3519.160495 0.746875)"/>
    <use xlink:href="#DejaVuSans-f" transform="translate(3558.174167 0.746875)"/>
    <use xlink:href="#DejaVuSans-Oblique-350" transform="translate(3706.855807 0.746875)"/>
    <use xlink:href="#DejaVuSans-20" transform="translate(3789.961276 0.746875)"/>
    <use xlink:href="#DejaVuSans-b" transform="translate(3893.23276 0.746875)"/>
    <use xlink:href="#DejaVuSans-13" transform="translate(3932.246432 0.746875)"/>
    <use xlink:href="#DejaVuSans-f" transform="translate(3995.869479 0.746875)"/>
    <use xlink:href="#DejaVuSans-13" transform="translate(4047.13901 0.746875)"/>
    <use xlink:href="#DejaVuSans-f" transform="translate(4110.762057 0.746875)"/>
    <use xlink:href="#DejaVuSans-13" transform="translate(4162.031589 0.746875)"/>
    <use xlink:href="#DejaVuSans-11" transform="translate(4225.654635 0.746875)"/>
    <use xlink:href="#DejaVuSans-18" transform="translate(4257.441745 0.746875)"/>
    <use xlink:href="#DejaVuSans-f" transform="translate(4321.064792 0.746875)"/>
    <use xlink:href="#DejaVuSans-13" transform="translate(4372.334323 0.746875)"/>
    <use xlink:href="#DejaVuSans-11" transform="translate(4435.95737 0.746875)"/>
    <use xlink:href="#DejaVuSans-18" transform="translate(4467.744479 0.746875)"/>
    <use xlink:href="#DejaVuSans-f" transform="translate(4531.367526 0.746875)"/>
    <use xlink:href="#DejaVuSans-13" transform="translate(4582.637057 0.746875)"/>
    <use xlink:href="#DejaVuSans-f" transform="translate(4646.260104 0.746875)"/>
    <use xlink:href="#DejaVuSans-13" transform="translate(4697.529635 0.746875)"/>
    <use xlink:href="#DejaVuSans-f" transform="translate(4761.152682 0.746875)"/>
    <use xlink:href="#DejaVuSans-13" transform="translate(4812.422214 0.746875)"/>
    <use xlink:href="#DejaVuSans-f" transform="translate(4876.04526 0.746875)"/>
    <use xlink:href="#DejaVuSans-13" transform="translate(4927.314792 0.746875)"/>
    <use xlink:href="#DejaVuSans-f" transform="translate(4990.937839 0.746875)"/>
    <use xlink:href="#DejaVuSans-13" transform="translate(5042.20737 0.746875)"/>
    <use xlink:href="#DejaVuSans-f" transform="translate(5105.830417 0.746875)"/>
    <use xlink:href="#DejaVuSans-13" transform="translate(5157.099948 0.746875)"/>
    <use xlink:href="#DejaVuSans-c" transform="translate(5220.722995 0.746875)"/>
    <use xlink:href="#DejaVuSans-Oblique-37" transform="translate(5260.693698 42.046875) scale(0.7)"/>
   </g>
  </g>
 </g>
</svg>
