<?xml version="1.0" encoding="utf-8" standalone="no"?>
<!DOCTYPE svg PUBLIC "-//W3C//DTD SVG 1.1//EN"
  "http://www.w3.org/Graphics/SVG/1.1/DTD/svg11.dtd">
<svg xmlns:xlink="http://www.w3.org/1999/xlink" width="756pt" height="360pt" viewBox="0 0 756 360" xmlns="http://www.w3.org/2000/svg" version="1.1">
 <metadata>
  <rdf:RDF xmlns:dc="http://purl.org/dc/elements/1.1/" xmlns:cc="http://creativecommons.org/ns#" xmlns:rdf="http://www.w3.org/1999/02/22-rdf-syntax-ns#">
   <cc:Work>
    <dc:type rdf:resource="http://purl.org/dc/dcmitype/StillImage"/>
    <dc:date>2026-09-13T11:18:20.053748</dc:date>
    <dc:format>image/svg+xml</dc:format>
    <dc:creator>
     <cc:Agent>
      <dc:title>Matplotlib v3.11.1, https://matplotlib.org/</dc:title>
     </cc:Agent>
    </dc:creator>
   </cc:Work>
  </rdf:RDF>
 </metadata>
 <defs>
  <style type="text/css">*{stroke-linejoin: round; stroke-linecap: butt}</style>
 </defs>
 <g id="figure_1">
  <g id="patch_1">
   <path d="M 0 360 
L 756 360 
L 756 0 
L 0 0 
z
" style="fill: #ffffff"/>
  </g>
  <g id="axes_1">
   <g id="patch_2">
    <path d="M 47.38957 288.601309 
L 373.672686 288.601309 
L 373.672686 64.040484 
L 47.38957 64.040484 
z
" style="fill: #ffffff"/>
   </g>
   <g id="matplotlib.axis_1">
    <g id="xtick_1">
     <g id="line2d_1">
      <defs>
       <path id="m5f5b6c15b3" d="M 0 0 
L 0 3.5 
" style="stroke: #41474c; stroke-width: 0.8"/>
      </defs>
      <g>
       <use xlink:href="#m5f5b6c15b3" x="62.220621" y="288.601309" style="fill: #41474c; stroke: #41474c; stroke-width: 0.8"/>
      </g>
     </g>
     <g id="text_1">
      <!-- 03-02 -->
      <g style="fill: #41474c" transform="translate(48.15523 303.609609) scale(0.11 -0.11)">
       <defs>
        <path id="ArialUnicodeMS-13" d="M 1778 4603 
Q 3272 4603 3272 2259 
Q 3272 1075 2886 498 
Q 2500 -78 1778 -78 
Q 288 -78 288 2259 
Q 288 3444 673 4023 
Q 1059 4603 1778 4603 
z
M 1778 384 
Q 2231 384 2462 823 
Q 2694 1263 2694 2259 
Q 2694 2953 2592 3351 
Q 2491 3750 2286 3945 
Q 2081 4141 1772 4141 
Q 1319 4141 1091 3694 
Q 863 3247 863 2259 
Q 863 1575 966 1175 
Q 1069 775 1272 579 
Q 1475 384 1778 384 
z
" transform="scale(0.015625)"/>
        <path id="ArialUnicodeMS-16" d="M 2425 2478 
Q 2850 2397 3067 2067 
Q 3284 1738 3284 1350 
Q 3284 725 2829 323 
Q 2375 -78 1741 -78 
Q 1134 -78 740 275 
Q 347 628 281 1209 
L 844 1288 
Q 928 834 1151 609 
Q 1375 384 1741 384 
Q 2134 384 2407 661 
Q 2681 938 2681 1338 
Q 2681 1722 2432 1975 
Q 2184 2228 1784 2228 
Q 1622 2228 1388 2169 
L 1453 2663 
Q 1678 2663 1809 2684 
Q 1941 2706 2103 2790 
Q 2266 2875 2372 3033 
Q 2478 3191 2478 3425 
Q 2478 3766 2251 3953 
Q 2025 4141 1728 4141 
Q 1388 4141 1173 3925 
Q 959 3709 903 3309 
L 341 3413 
Q 450 4009 823 4306 
Q 1197 4603 1716 4603 
Q 2288 4603 2670 4258 
Q 3053 3913 3053 3413 
Q 3053 2772 2425 2491 
L 2425 2478 
z
" transform="scale(0.015625)"/>
        <path id="ArialUnicodeMS-10" d="M 1925 1375 
L 206 1375 
L 206 1941 
L 1925 1941 
L 1925 1375 
z
" transform="scale(0.015625)"/>
        <path id="ArialUnicodeMS-15" d="M 3231 0 
L 197 0 
Q 197 388 467 784 
Q 738 1181 1478 1778 
Q 1931 2141 2287 2539 
Q 2644 2938 2644 3341 
Q 2644 3688 2398 3914 
Q 2153 4141 1778 4141 
Q 1400 4141 1144 3908 
Q 888 3675 884 3213 
L 306 3278 
Q 359 3922 764 4262 
Q 1169 4603 1791 4603 
Q 2466 4603 2842 4229 
Q 3219 3856 3219 3328 
Q 3219 2888 2901 2436 
Q 2584 1984 1638 1228 
Q 1141 831 978 544 
L 3231 544 
L 3231 0 
z
" transform="scale(0.015625)"/>
       </defs>
       <use xlink:href="#ArialUnicodeMS-13"/>
       <use xlink:href="#ArialUnicodeMS-16" transform="translate(55.609375 0)"/>
       <use xlink:href="#ArialUnicodeMS-10" transform="translate(111.21875 0)"/>
       <use xlink:href="#ArialUnicodeMS-13" transform="translate(144.515625 0)"/>
       <use xlink:href="#ArialUnicodeMS-15" transform="translate(200.125 0)"/>
      </g>
     </g>
    </g>
    <g id="xtick_2">
     <g id="line2d_2">
      <g>
       <use xlink:href="#m5f5b6c15b3" x="151.01178" y="288.601309" style="fill: #41474c; stroke: #41474c; stroke-width: 0.8"/>
      </g>
     </g>
     <g id="text_2">
      <!-- 06-01 -->
      <g style="fill: #41474c" transform="translate(136.946389 303.609609) scale(0.11 -0.11)">
       <defs>
        <path id="ArialUnicodeMS-19" d="M 838 2363 
Q 1225 2969 1941 2969 
Q 2503 2969 2897 2553 
Q 3291 2138 3291 1491 
Q 3291 838 2898 380 
Q 2506 -78 1856 -78 
Q 1197 -78 733 409 
Q 269 897 269 2144 
Q 269 3369 689 3986 
Q 1109 4603 1906 4603 
Q 2422 4603 2778 4315 
Q 3134 4028 3213 3463 
L 2650 3413 
Q 2497 4141 1875 4141 
Q 1444 4141 1134 3712 
Q 825 3284 825 2363 
L 838 2363 
z
M 1844 384 
Q 2231 384 2472 696 
Q 2713 1009 2713 1453 
Q 2713 1897 2472 2187 
Q 2231 2478 1825 2478 
Q 1453 2478 1184 2204 
Q 916 1931 916 1484 
Q 916 1028 1180 706 
Q 1444 384 1844 384 
z
" transform="scale(0.015625)"/>
        <path id="ArialUnicodeMS-14" d="M 2400 0 
L 1838 0 
L 1838 3584 
Q 1416 3184 709 2906 
L 709 3450 
Q 1681 3916 2034 4603 
L 2400 4603 
L 2400 0 
z
" transform="scale(0.015625)"/>
       </defs>
       <use xlink:href="#ArialUnicodeMS-13"/>
       <use xlink:href="#ArialUnicodeMS-19" transform="translate(55.609375 0)"/>
       <use xlink:href="#ArialUnicodeMS-10" transform="translate(111.21875 0)"/>
       <use xlink:href="#ArialUnicodeMS-13" transform="translate(144.515625 0)"/>
       <use xlink:href="#ArialUnicodeMS-14" transform="translate(200.125 0)"/>
      </g>
     </g>
    </g>
    <g id="xtick_3">
     <g id="line2d_3">
      <g>
       <use xlink:href="#m5f5b6c15b3" x="240.778666" y="288.601309" style="fill: #41474c; stroke: #41474c; stroke-width: 0.8"/>
      </g>
     </g>
     <g id="text_3">
      <!-- 09-01 -->
      <g style="fill: #41474c" transform="translate(226.713275 303.609609) scale(0.11 -0.11)">
       <defs>
        <path id="ArialUnicodeMS-1c" d="M 2713 2156 
Q 2547 1888 2258 1722 
Q 1969 1556 1631 1556 
Q 1066 1556 670 1970 
Q 275 2384 275 3053 
Q 275 3734 678 4168 
Q 1081 4603 1716 4603 
Q 2353 4603 2818 4106 
Q 3284 3609 3284 2388 
Q 3284 1147 2859 534 
Q 2434 -78 1644 -78 
Q 1128 -78 781 205 
Q 434 488 359 1063 
L 897 1106 
Q 1025 384 1656 384 
Q 2175 384 2450 857 
Q 2725 1331 2725 2156 
L 2713 2156 
z
M 1766 2047 
Q 2178 2047 2420 2339 
Q 2663 2631 2663 3078 
Q 2663 3531 2414 3836 
Q 2166 4141 1778 4141 
Q 1388 4141 1119 3817 
Q 850 3494 850 3034 
Q 850 2600 1114 2323 
Q 1378 2047 1766 2047 
z
" transform="scale(0.015625)"/>
       </defs>
       <use xlink:href="#ArialUnicodeMS-13"/>
       <use xlink:href="#ArialUnicodeMS-1c" transform="translate(55.609375 0)"/>
       <use xlink:href="#ArialUnicodeMS-10" transform="translate(111.21875 0)"/>
       <use xlink:href="#ArialUnicodeMS-13" transform="translate(144.515625 0)"/>
       <use xlink:href="#ArialUnicodeMS-14" transform="translate(200.125 0)"/>
      </g>
     </g>
    </g>
    <g id="xtick_4">
     <g id="line2d_4">
      <g>
       <use xlink:href="#m5f5b6c15b3" x="358.841635" y="288.601309" style="fill: #41474c; stroke: #41474c; stroke-width: 0.8"/>
      </g>
     </g>
     <g id="text_4">
      <!-- 12-31 -->
      <g style="fill: #41474c" transform="translate(344.776245 303.609609) scale(0.11 -0.11)">
       <use xlink:href="#ArialUnicodeMS-14"/>
       <use xlink:href="#ArialUnicodeMS-15" transform="translate(55.609375 0)"/>
       <use xlink:href="#ArialUnicodeMS-10" transform="translate(111.21875 0)"/>
       <use xlink:href="#ArialUnicodeMS-16" transform="translate(144.515625 0)"/>
       <use xlink:href="#ArialUnicodeMS-14" transform="translate(200.125 0)"/>
      </g>
     </g>
    </g>
    <g id="text_5">
     <!-- 滚动窗口结束日期 -->
     <g style="fill: #272c30" transform="translate(166.531128 319.167773) scale(0.11 -0.11)">
      <defs>
       <path id="ArialUnicodeMS-4169" d="M 5894 4275 
L 1888 4275 
L 1888 4744 
L 3647 4744 
Q 3434 4928 3047 5019 
L 3341 5381 
Q 3850 5266 4281 4884 
L 4147 4744 
L 5894 4744 
L 5894 4275 
z
M 1753 4097 
L 1319 3769 
Q 1063 4384 416 4800 
L 800 5106 
Q 1384 4756 1753 4097 
z
M 3372 3878 
Q 2853 3347 1875 3003 
L 1522 3397 
Q 2566 3706 3028 4184 
L 3372 3878 
z
M 6069 3372 
L 5716 3009 
Q 5138 3628 4184 3828 
L 4519 4178 
Q 5372 4016 6069 3372 
z
M 6150 141 
L 5819 -281 
Q 4288 291 3547 1734 
Q 3409 1569 3231 1409 
L 3231 178 
L 4206 616 
L 4206 116 
L 2919 -506 
L 2638 -116 
Q 2747 -9 2747 91 
L 2747 984 
Q 2216 500 1766 238 
L 1422 634 
Q 2416 1169 3256 2181 
Q 2994 2159 2547 2059 
L 2309 2522 
Q 3022 2881 3719 3809 
L 4147 3525 
Q 3625 2922 3116 2606 
L 4703 2706 
Q 4531 2834 4134 3009 
L 4506 3278 
Q 5250 3003 5747 2234 
L 5363 1972 
L 5644 1709 
Q 5103 1166 4703 966 
Q 5175 491 6150 141 
z
M 5300 2028 
Q 5175 2241 5075 2322 
L 3950 2241 
L 3853 2100 
Q 4103 1613 4422 1288 
Q 4875 1553 5300 2028 
z
M 1588 2797 
L 1172 2472 
Q 856 3109 281 3469 
L 634 3763 
Q 1213 3459 1588 2797 
z
M 1728 2028 
Q 1369 413 709 -359 
L 313 -44 
Q 994 788 1294 2259 
L 1728 2028 
z
" transform="scale(0.015625)"/>
       <path id="ArialUnicodeMS-2537" d="M 5678 3834 
Q 5613 2631 5508 1595 
Q 5403 559 5328 262 
Q 5253 -34 5048 -161 
Q 4844 -288 4591 -288 
Q 4416 -288 4097 -256 
Q 4016 25 3944 238 
Q 4550 172 4644 172 
Q 4703 172 4812 456 
Q 4922 741 5023 1741 
Q 5125 2741 5159 3391 
L 4359 3391 
Q 4366 1738 3883 889 
Q 3400 41 2528 -384 
L 2156 25 
Q 2716 300 3009 634 
Q 2913 850 2719 1075 
Q 1478 731 763 475 
L 428 959 
Q 678 1172 1014 1786 
Q 1350 2400 1503 2906 
L 353 2906 
L 353 3372 
L 3144 3372 
L 3144 2906 
L 2041 2906 
Q 1500 1597 1125 1125 
L 1141 1113 
L 2444 1484 
Q 2397 1556 2125 1797 
L 2478 2047 
Q 3131 1475 3359 997 
Q 3528 1178 3697 1742 
Q 3866 2306 3866 2888 
L 3866 3391 
L 3194 3391 
L 3194 3834 
L 3866 3834 
L 3866 5319 
L 4353 5325 
L 4353 3834 
L 5678 3834 
z
M 2881 4219 
L 603 4219 
L 603 4659 
L 2881 4659 
L 2881 4219 
z
" transform="scale(0.015625)"/>
       <path id="ArialUnicodeMS-4d26" d="M 5747 3897 
L 5453 3897 
L 5678 3781 
Q 5538 3334 5184 3334 
L 4044 3334 
Q 3519 3334 3519 3803 
L 3519 4391 
L 2316 4391 
L 2619 4206 
Q 2100 3416 1019 3128 
L 722 3553 
Q 1688 3738 2169 4391 
L 1131 4391 
L 1131 3859 
L 653 3859 
L 653 4856 
L 2956 4856 
L 2956 5319 
L 3444 5319 
L 3444 4856 
L 5747 4856 
L 5747 3897 
z
M 5269 3994 
L 5269 4391 
L 3994 4391 
L 3994 3922 
Q 3994 3803 4122 3803 
L 5019 3803 
Q 5188 3803 5222 4013 
L 5269 3994 
z
M 5447 -441 
L 4959 -441 
L 4959 -84 
L 1466 -84 
L 1466 -441 
L 978 -441 
L 978 3009 
L 2350 3009 
Q 2728 3378 2894 3909 
L 3328 3700 
Q 3241 3406 2919 3009 
L 5447 3009 
L 5447 -441 
z
M 4959 384 
L 4959 2541 
L 3078 2541 
L 3078 2534 
L 3419 2394 
L 3244 2175 
L 4653 2175 
L 4653 1797 
Q 4388 1475 4078 1247 
Q 4569 1044 4872 844 
L 4538 488 
Q 4119 763 3622 934 
Q 2928 534 1831 416 
L 1556 838 
Q 2209 850 3116 1166 
Q 2906 1253 2491 1381 
Q 2269 1228 2009 1094 
L 1650 1416 
Q 1775 1456 1925 1544 
L 1650 1606 
L 1959 1925 
L 2338 1838 
Q 2700 2147 2963 2541 
L 1466 2541 
L 1466 384 
L 4959 384 
z
M 3988 1741 
L 2938 1741 
L 2875 1684 
Q 3353 1538 3597 1441 
Q 3847 1591 3988 1741 
z
" transform="scale(0.015625)"/>
       <path id="ArialUnicodeMS-2672" d="M 5234 31 
L 4750 31 
L 4750 563 
L 1663 563 
L 1663 31 
L 1178 31 
L 1178 4447 
L 5234 4447 
L 5234 31 
z
M 4750 1031 
L 4750 3981 
L 1663 3981 
L 1663 1031 
L 4750 1031 
z
" transform="scale(0.015625)"/>
       <path id="ArialUnicodeMS-5162" d="M 5972 3847 
L 4434 3847 
L 4434 2969 
L 5650 2969 
L 5650 2509 
L 2753 2509 
L 2753 2969 
L 3950 2969 
L 3950 3847 
L 2516 3847 
L 2516 4306 
L 3950 4306 
L 3950 5356 
L 4434 5356 
L 4434 4306 
L 5972 4306 
L 5972 3847 
z
M 2613 1728 
Q 2266 1631 1628 1482 
Q 991 1334 684 1234 
L 453 1663 
Q 1106 2319 1363 2725 
Q 863 2600 672 2534 
L 428 2975 
Q 925 3784 1503 5259 
L 1941 5056 
Q 1375 3766 1013 3116 
Q 1150 3134 1684 3250 
Q 1888 3556 2088 3956 
L 2516 3725 
Q 1875 2516 1247 1894 
L 1259 1881 
L 2613 2188 
L 2613 1728 
z
M 5466 -422 
L 4978 -422 
L 4978 19 
L 3413 19 
L 3413 -422 
L 2925 -422 
L 2925 1894 
L 5466 1894 
L 5466 -422 
z
M 4978 481 
L 4978 1434 
L 3413 1434 
L 3413 481 
L 4978 481 
z
M 2700 709 
L 703 31 
L 469 475 
Q 2447 1119 2700 1197 
L 2700 709 
z
" transform="scale(0.015625)"/>
       <path id="ArialUnicodeMS-39ee" d="M 6081 647 
L 5850 191 
Q 4131 703 3513 1856 
L 3494 1856 
L 3494 -428 
L 3009 -428 
L 3009 1831 
L 2981 1831 
Q 2731 1375 2120 903 
Q 1509 431 722 153 
L 453 603 
Q 1859 1047 2478 1919 
L 1319 1919 
L 1319 3603 
L 2975 3603 
L 2975 4141 
L 756 4141 
L 756 4609 
L 2975 4609 
L 2975 5331 
L 3481 5331 
L 3481 4609 
L 5722 4609 
L 5722 4141 
L 3481 4141 
L 3481 3603 
L 5172 3603 
L 5172 1919 
L 4000 1919 
Q 4659 1028 6081 647 
z
M 4684 2388 
L 4684 3138 
L 3494 3138 
L 3494 2388 
L 4684 2388 
z
M 2975 2388 
L 2975 3138 
L 1806 3138 
L 1806 2388 
L 2975 2388 
z
" transform="scale(0.015625)"/>
       <path id="ArialUnicodeMS-3874" d="M 5044 -178 
L 4538 -178 
L 4538 441 
L 2022 441 
L 2022 -206 
L 1516 -206 
L 1516 4781 
L 5044 4781 
L 5044 -178 
z
M 4538 2881 
L 4538 4313 
L 2022 4313 
L 2022 2881 
L 4538 2881 
z
M 4538 909 
L 4538 2413 
L 2022 2413 
L 2022 909 
L 4538 909 
z
" transform="scale(0.015625)"/>
       <path id="ArialUnicodeMS-39ae" d="M 3738 1281 
L 506 1281 
L 506 1747 
L 1075 1747 
L 1075 4134 
L 531 4134 
L 531 4603 
L 1075 4603 
L 1075 5281 
L 1563 5281 
L 1563 4603 
L 2741 4603 
L 2741 5306 
L 3225 5306 
L 3225 4603 
L 3738 4603 
L 3738 4134 
L 3225 4134 
L 3225 1747 
L 3738 1747 
L 3738 1281 
z
M 2741 3688 
L 2741 4134 
L 1563 4134 
L 1563 3688 
L 2741 3688 
z
M 2741 2766 
L 2741 3219 
L 1563 3219 
L 1563 2766 
L 2741 2766 
z
M 2741 1747 
L 2741 2297 
L 1563 2297 
L 1563 1747 
L 2741 1747 
z
M 5753 366 
Q 5753 38 5672 -57 
Q 5591 -153 5489 -233 
Q 5388 -313 4697 -313 
L 4538 178 
L 5147 159 
Q 5269 159 5269 300 
L 5269 1753 
L 4331 1753 
Q 4275 494 3719 -447 
L 3284 -153 
Q 3853 716 3853 1984 
L 3853 4997 
L 5753 4997 
L 5753 366 
z
M 5269 3688 
L 5269 4531 
L 4341 4531 
L 4341 3688 
L 5269 3688 
z
M 5269 2222 
L 5269 3219 
L 4341 3219 
L 4341 2222 
L 5269 2222 
z
M 1931 934 
Q 1556 213 750 -422 
L 384 -84 
Q 1203 488 1588 1247 
L 1931 934 
z
M 3494 366 
L 3150 0 
Q 2775 566 2222 850 
L 2547 1178 
Q 3075 947 3494 366 
z
" transform="scale(0.015625)"/>
      </defs>
      <use xlink:href="#ArialUnicodeMS-4169"/>
      <use xlink:href="#ArialUnicodeMS-2537" transform="translate(100 0)"/>
      <use xlink:href="#ArialUnicodeMS-4d26" transform="translate(200 0)"/>
      <use xlink:href="#ArialUnicodeMS-2672" transform="translate(300 0)"/>
      <use xlink:href="#ArialUnicodeMS-5162" transform="translate(400 0)"/>
      <use xlink:href="#ArialUnicodeMS-39ee" transform="translate(500 0)"/>
      <use xlink:href="#ArialUnicodeMS-3874" transform="translate(600 0)"/>
      <use xlink:href="#ArialUnicodeMS-39ae" transform="translate(700 0)"/>
     </g>
    </g>
   </g>
   <g id="matplotlib.axis_2">
    <g id="ytick_1">
     <g id="line2d_5">
      <path d="M 47.38957 288.601309 
L 373.672686 288.601309 
" clip-path="url(#p6b7d550b5e)" style="fill: none; stroke: #e0e3e5; stroke-width: 0.65; stroke-linecap: square"/>
     </g>
     <g id="line2d_6">
      <defs>
       <path id="m958714c4c0" d="M 0 0 
L -3.5 0 
" style="stroke: #41474c; stroke-width: 0.8"/>
      </defs>
      <g>
       <use xlink:href="#m958714c4c0" x="47.38957" y="288.601309" style="fill: #41474c; stroke: #41474c; stroke-width: 0.8"/>
      </g>
     </g>
     <g id="text_6">
      <!-- 0 -->
      <g style="fill: #41474c" transform="translate(34.272539 292.605459) scale(0.11 -0.11)">
       <use xlink:href="#ArialUnicodeMS-13"/>
      </g>
     </g>
    </g>
    <g id="ytick_2">
     <g id="line2d_7">
      <path d="M 47.38957 251.503187 
L 373.672686 251.503187 
" clip-path="url(#p6b7d550b5e)" style="fill: none; stroke: #e0e3e5; stroke-width: 0.65; stroke-linecap: square"/>
     </g>
     <g id="line2d_8">
      <g>
       <use xlink:href="#m958714c4c0" x="47.38957" y="251.503187" style="fill: #41474c; stroke: #41474c; stroke-width: 0.8"/>
      </g>
     </g>
     <g id="text_7">
      <!-- 2 -->
      <g style="fill: #41474c" transform="translate(34.272539 255.507337) scale(0.11 -0.11)">
       <use xlink:href="#ArialUnicodeMS-15"/>
      </g>
     </g>
    </g>
    <g id="ytick_3">
     <g id="line2d_9">
      <path d="M 47.38957 214.405065 
L 373.672686 214.405065 
" clip-path="url(#p6b7d550b5e)" style="fill: none; stroke: #e0e3e5; stroke-width: 0.65; stroke-linecap: square"/>
     </g>
     <g id="line2d_10">
      <g>
       <use xlink:href="#m958714c4c0" x="47.38957" y="214.405065" style="fill: #41474c; stroke: #41474c; stroke-width: 0.8"/>
      </g>
     </g>
     <g id="text_8">
      <!-- 4 -->
      <g style="fill: #41474c" transform="translate(34.272539 218.409215) scale(0.11 -0.11)">
       <defs>
        <path id="ArialUnicodeMS-17" d="M 3263 1094 
L 2644 1094 
L 2644 0 
L 2081 0 
L 2081 1094 
L 97 1094 
L 97 1613 
L 2181 4581 
L 2644 4581 
L 2644 1613 
L 3263 1613 
L 3263 1094 
z
M 2081 1613 
L 2081 3681 
L 2069 3681 
L 647 1613 
L 2081 1613 
z
" transform="scale(0.015625)"/>
       </defs>
       <use xlink:href="#ArialUnicodeMS-17"/>
      </g>
     </g>
    </g>
    <g id="ytick_4">
     <g id="line2d_11">
      <path d="M 47.38957 177.306943 
L 373.672686 177.306943 
" clip-path="url(#p6b7d550b5e)" style="fill: none; stroke: #e0e3e5; stroke-width: 0.65; stroke-linecap: square"/>
     </g>
     <g id="line2d_12">
      <g>
       <use xlink:href="#m958714c4c0" x="47.38957" y="177.306943" style="fill: #41474c; stroke: #41474c; stroke-width: 0.8"/>
      </g>
     </g>
     <g id="text_9">
      <!-- 6 -->
      <g style="fill: #41474c" transform="translate(34.272539 181.311093) scale(0.11 -0.11)">
       <use xlink:href="#ArialUnicodeMS-19"/>
      </g>
     </g>
    </g>
    <g id="ytick_5">
     <g id="line2d_13">
      <path d="M 47.38957 140.20882 
L 373.672686 140.20882 
" clip-path="url(#p6b7d550b5e)" style="fill: none; stroke: #e0e3e5; stroke-width: 0.65; stroke-linecap: square"/>
     </g>
     <g id="line2d_14">
      <g>
       <use xlink:href="#m958714c4c0" x="47.38957" y="140.20882" style="fill: #41474c; stroke: #41474c; stroke-width: 0.8"/>
      </g>
     </g>
     <g id="text_10">
      <!-- 8 -->
      <g style="fill: #41474c" transform="translate(34.272539 144.212971) scale(0.11 -0.11)">
       <defs>
        <path id="ArialUnicodeMS-1b" d="M 2425 2478 
Q 3284 2203 3284 1306 
Q 3284 716 2862 319 
Q 2441 -78 1778 -78 
Q 1109 -78 689 322 
Q 269 722 269 1325 
Q 269 1759 505 2084 
Q 741 2409 1141 2478 
L 1141 2491 
Q 453 2703 453 3419 
Q 453 3925 815 4264 
Q 1178 4603 1766 4603 
Q 2363 4603 2730 4253 
Q 3097 3903 3097 3406 
Q 3097 2731 2425 2491 
L 2425 2478 
z
M 1778 2700 
Q 2094 2700 2308 2901 
Q 2522 3103 2522 3406 
Q 2522 3716 2305 3928 
Q 2088 4141 1772 4141 
Q 1450 4141 1240 3931 
Q 1031 3722 1031 3438 
Q 1031 3097 1247 2898 
Q 1463 2700 1778 2700 
z
M 1778 384 
Q 2175 384 2440 640 
Q 2706 897 2706 1306 
Q 2706 1716 2432 1978 
Q 2159 2241 1766 2241 
Q 1356 2241 1100 1970 
Q 844 1700 844 1319 
Q 844 922 1108 653 
Q 1372 384 1778 384 
z
" transform="scale(0.015625)"/>
       </defs>
       <use xlink:href="#ArialUnicodeMS-1b"/>
      </g>
     </g>
    </g>
    <g id="ytick_6">
     <g id="line2d_15">
      <path d="M 47.38957 103.110698 
L 373.672686 103.110698 
" clip-path="url(#p6b7d550b5e)" style="fill: none; stroke: #e0e3e5; stroke-width: 0.65; stroke-linecap: square"/>
     </g>
     <g id="line2d_16">
      <g>
       <use xlink:href="#m958714c4c0" x="47.38957" y="103.110698" style="fill: #41474c; stroke: #41474c; stroke-width: 0.8"/>
      </g>
     </g>
     <g id="text_11">
      <!-- 10 -->
      <g style="fill: #41474c" transform="translate(28.155508 107.114849) scale(0.11 -0.11)">
       <use xlink:href="#ArialUnicodeMS-14"/>
       <use xlink:href="#ArialUnicodeMS-13" transform="translate(55.609375 0)"/>
      </g>
     </g>
    </g>
    <g id="ytick_7">
     <g id="line2d_17">
      <path d="M 47.38957 66.012576 
L 373.672686 66.012576 
" clip-path="url(#p6b7d550b5e)" style="fill: none; stroke: #e0e3e5; stroke-width: 0.65; stroke-linecap: square"/>
     </g>
     <g id="line2d_18">
      <g>
       <use xlink:href="#m958714c4c0" x="47.38957" y="66.012576" style="fill: #41474c; stroke: #41474c; stroke-width: 0.8"/>
      </g>
     </g>
     <g id="text_12">
      <!-- 12 -->
      <g style="fill: #41474c" transform="translate(28.155508 70.016727) scale(0.11 -0.11)">
       <use xlink:href="#ArialUnicodeMS-14"/>
       <use xlink:href="#ArialUnicodeMS-15" transform="translate(55.609375 0)"/>
      </g>
     </g>
    </g>
    <g id="text_13">
     <!-- 相对 exp006 费用降低 / % -->
     <g style="fill: #272c30" transform="translate(21.845938 239.894021) rotate(-90) scale(0.11 -0.11)">
      <defs>
       <path id="ArialUnicodeMS-4987" d="M 3009 1791 
L 2566 1503 
Q 2322 1975 2003 2406 
L 2003 -416 
L 1509 -416 
L 1509 2094 
Q 1313 1497 659 678 
L 275 972 
Q 1053 1969 1459 3603 
L 519 3603 
L 519 4072 
L 1516 4072 
L 1516 5300 
L 2003 5300 
L 2003 4072 
L 2881 4072 
L 2881 3603 
L 2003 3603 
L 2003 2900 
L 2131 2975 
Q 2681 2434 3009 1791 
z
M 5691 -416 
L 5178 -416 
L 5178 38 
L 3659 38 
L 3659 -416 
L 3150 -416 
L 3150 4966 
L 5691 4966 
L 5691 -416 
z
M 5178 3547 
L 5178 4500 
L 3659 4500 
L 3659 3547 
L 5178 3547 
z
M 5178 2059 
L 5178 3078 
L 3659 3078 
L 3659 2059 
L 5178 2059 
z
M 5178 506 
L 5178 1594 
L 3659 1594 
L 3659 506 
L 5178 506 
z
" transform="scale(0.015625)"/>
       <path id="ArialUnicodeMS-2e88" d="M 5856 3616 
L 5247 3616 
L 5247 38 
Q 5206 -163 5042 -273 
Q 4878 -384 4806 -384 
L 4103 -384 
L 3944 103 
Q 4438 63 4678 63 
Q 4716 63 4763 134 
L 4763 3616 
L 2988 3616 
L 2988 4084 
L 4763 4084 
L 4763 5306 
L 5247 5306 
L 5247 4084 
L 5856 4084 
L 5856 3616 
z
M 3175 366 
L 2694 153 
Q 2422 1059 2100 1538 
Q 1609 353 525 -384 
L 153 -13 
Q 1288 719 1813 1984 
Q 1306 2706 628 3256 
L 984 3541 
Q 1794 2828 2009 2497 
Q 2341 3403 2381 4116 
L 359 4116 
L 359 4556 
L 2869 4556 
Q 2844 3303 2328 2028 
Q 2866 1222 3175 366 
z
M 4441 1453 
L 3988 1178 
Q 3663 2072 3091 2700 
L 3444 2950 
Q 4084 2334 4441 1453 
z
" transform="scale(0.015625)"/>
       <path id="ArialUnicodeMS-3" transform="scale(0.015625)"/>
       <path id="ArialUnicodeMS-48" d="M 3309 1516 
L 825 1516 
Q 859 966 1139 675 
Q 1419 384 1838 384 
Q 2159 384 2378 554 
Q 2597 725 2713 1069 
L 3291 997 
Q 3150 478 2775 200 
Q 2400 -78 1838 -78 
Q 1091 -78 670 380 
Q 250 838 250 1631 
Q 250 2416 658 2903 
Q 1066 3391 1806 3391 
Q 2169 3391 2505 3231 
Q 2841 3072 3075 2689 
Q 3309 2306 3309 1516 
z
M 2731 1978 
Q 2697 2484 2417 2707 
Q 2138 2931 1806 2931 
Q 1409 2931 1153 2665 
Q 897 2400 856 1978 
L 2731 1978 
z
" transform="scale(0.015625)"/>
       <path id="ArialUnicodeMS-5b" d="M 3156 0 
L 2463 0 
L 1600 1313 
L 728 0 
L 44 0 
L 1259 1728 
L 141 3316 
L 838 3316 
Q 1519 2288 1581 2169 
L 2394 3316 
L 3066 3316 
L 1919 1759 
L 3156 0 
z
" transform="scale(0.015625)"/>
       <path id="ArialUnicodeMS-53" d="M 959 2888 
Q 1275 3391 1906 3391 
Q 2559 3391 2937 2917 
Q 3316 2444 3316 1684 
Q 3316 875 2897 398 
Q 2478 -78 1869 -78 
Q 1334 -78 1013 347 
L 997 347 
L 997 -1275 
L 434 -1275 
L 434 3316 
L 947 3316 
L 947 2888 
L 959 2888 
z
M 1831 384 
Q 2225 384 2483 711 
Q 2741 1038 2741 1684 
Q 2741 2294 2492 2622 
Q 2244 2950 1856 2950 
Q 1456 2950 1198 2584 
Q 941 2219 941 1638 
Q 941 1022 1187 703 
Q 1434 384 1831 384 
z
" transform="scale(0.015625)"/>
       <path id="ArialUnicodeMS-5fc8" d="M 5844 3559 
Q 5788 2353 5444 2353 
Q 5338 2353 4959 2419 
L 4959 844 
L 4475 844 
L 4475 2138 
L 2106 2138 
L 2106 722 
L 1619 722 
L 1619 2203 
Q 1394 2047 616 1838 
L 384 2278 
Q 1659 2544 2028 3116 
L 909 3116 
Q 1103 3900 1141 4281 
L 2328 4281 
L 2328 4494 
L 947 4494 
L 947 4934 
L 2328 4934 
L 2328 5313 
L 2791 5313 
L 2791 4934 
L 3738 4934 
L 3738 5313 
L 4225 5313 
L 4225 4934 
L 5416 4934 
L 5416 3841 
L 4225 3841 
L 4225 3559 
L 5844 3559 
z
M 4953 4281 
L 4953 4494 
L 4225 4494 
L 4225 4281 
L 4953 4281 
z
M 3738 4281 
L 3738 4494 
L 2791 4494 
L 2791 4281 
L 3738 4281 
z
M 3738 3559 
L 3738 3841 
L 2759 3841 
Q 2753 3806 2747 3693 
Q 2741 3581 2731 3559 
L 3738 3559 
z
M 2303 3841 
L 1522 3841 
L 1459 3559 
L 2253 3559 
Q 2272 3644 2303 3841 
z
M 5356 3116 
L 4225 3116 
L 4225 2669 
L 3738 2669 
L 3738 3116 
L 2584 3116 
Q 2409 2747 2188 2591 
L 2188 2578 
L 4763 2578 
L 4709 2931 
L 5141 2784 
Q 5197 2763 5241 2763 
Q 5281 2763 5306 2845 
Q 5331 2928 5356 3116 
z
M 3494 1838 
Q 3409 784 2836 268 
Q 2263 -247 959 -403 
L 722 63 
Q 1913 184 2448 553 
Q 2984 922 3053 1972 
L 3494 1838 
z
M 5722 13 
L 5409 -384 
Q 4544 319 3372 641 
L 3659 1013 
Q 5181 506 5722 13 
z
" transform="scale(0.015625)"/>
       <path id="ArialUnicodeMS-47b7" d="M 5472 159 
Q 5472 -66 5340 -219 
Q 5209 -372 5013 -372 
L 4347 -372 
L 4191 128 
L 4722 113 
Q 4966 113 4966 256 
L 4966 1722 
L 3572 1722 
L 3572 13 
L 3084 13 
L 3084 1722 
L 1678 1722 
Q 1584 466 744 -469 
L 331 -159 
Q 794 394 1001 936 
Q 1209 1478 1209 2194 
L 1209 5044 
L 5472 5044 
L 5472 159 
z
M 4966 3641 
L 4966 4575 
L 3572 4575 
L 3572 3641 
L 4966 3641 
z
M 3084 3641 
L 3084 4575 
L 1697 4575 
L 1697 3641 
L 3084 3641 
z
M 4966 2188 
L 4966 3175 
L 3572 3175 
L 3572 2188 
L 4966 2188 
z
M 3084 2188 
L 3084 3175 
L 1697 3175 
L 1697 2188 
L 3084 2188 
z
" transform="scale(0.015625)"/>
       <path id="ArialUnicodeMS-68dc" d="M 6113 2656 
L 5850 2222 
Q 4938 2403 4141 3009 
Q 3450 2575 2394 2278 
L 2150 2694 
Q 3259 2997 3788 3359 
Q 3497 3672 3316 4000 
Q 2800 3316 2613 3156 
L 2188 3438 
Q 3081 4234 3419 5416 
L 3878 5228 
Q 3813 5009 3706 4769 
L 5453 4769 
L 5453 4325 
Q 5169 3813 4531 3303 
Q 5122 2859 6113 2656 
z
M 4863 4306 
L 3694 4306 
Q 3863 3972 4166 3616 
Q 4609 3966 4863 4306 
z
M 1734 3219 
Q 2363 2516 2363 1881 
Q 2363 1063 1656 1063 
Q 1469 1063 1253 1106 
L 1131 1522 
L 1131 -416 
L 647 -416 
L 647 5031 
L 2363 5031 
L 2363 4634 
L 1734 3219 
z
M 1131 1619 
Q 1413 1522 1575 1522 
Q 1894 1522 1894 1844 
Q 1894 2447 1197 3097 
Q 1359 3503 1831 4569 
L 1131 4569 
L 1131 1619 
z
M 5831 594 
L 4428 594 
L 4428 -434 
L 3922 -434 
L 3922 594 
L 2259 594 
L 2259 1056 
L 2681 1056 
L 2681 1778 
L 2566 1778 
L 2566 2241 
L 3922 2241 
L 3922 2688 
L 4428 2688 
L 4428 2241 
L 5491 2241 
L 5491 1778 
L 4428 1778 
L 4428 1056 
L 5831 1056 
L 5831 594 
z
M 3922 1056 
L 3922 1778 
L 3175 1778 
L 3175 1056 
L 3922 1056 
z
" transform="scale(0.015625)"/>
       <path id="ArialUnicodeMS-21dd" d="M 2188 5153 
Q 1994 4550 1828 4150 
L 1663 3794 
L 1663 -434 
L 1172 -434 
L 1172 2956 
Q 997 2628 622 2253 
L 244 2591 
Q 1125 3463 1741 5363 
L 2188 5153 
z
M 6150 872 
Q 6053 -13 5886 -186 
Q 5719 -359 5478 -359 
Q 4941 -359 4542 559 
Q 4144 1478 4013 2875 
L 2869 2875 
L 2869 1031 
L 4050 1281 
L 4050 788 
L 2175 372 
L 1906 831 
L 2363 928 
L 2363 4594 
Q 4388 4797 5459 5319 
L 5797 4947 
Q 5131 4625 4428 4469 
Q 4419 3966 4469 3341 
L 5894 3341 
L 5894 2875 
L 4500 2875 
Q 4625 1759 4904 978 
Q 5184 197 5478 197 
Q 5559 197 5603 420 
Q 5647 644 5684 1106 
L 6150 872 
z
M 3975 3328 
Q 3938 3875 3928 4353 
Q 3438 4266 2869 4191 
L 2869 3328 
L 3975 3328 
z
M 4263 -250 
L 2188 -250 
L 2188 219 
L 4263 219 
L 4263 -250 
z
" transform="scale(0.015625)"/>
       <path id="ArialUnicodeMS-12" d="M 1778 4581 
L 453 -153 
L 0 -153 
L 1325 4581 
L 1778 4581 
z
" transform="scale(0.015625)"/>
       <path id="ArialUnicodeMS-8" d="M 4325 4659 
L 1838 -159 
L 1369 -159 
L 3872 4659 
L 4325 4659 
z
M 1428 4653 
Q 1856 4653 2137 4343 
Q 2419 4034 2419 3438 
Q 2419 2850 2131 2539 
Q 1844 2228 1434 2228 
Q 1009 2228 739 2540 
Q 469 2853 469 3475 
Q 469 3984 722 4318 
Q 975 4653 1428 4653 
z
M 1441 2619 
Q 1931 2619 1931 3463 
Q 1931 4269 1441 4269 
Q 953 4269 953 3419 
Q 953 2619 1441 2619 
z
M 4250 2253 
Q 4681 2253 4961 1943 
Q 5241 1634 5241 1038 
Q 5241 600 5087 328 
Q 4934 56 4709 -58 
Q 4484 -172 4256 -172 
Q 3831 -172 3561 140 
Q 3291 453 3291 1075 
Q 3291 1584 3544 1918 
Q 3797 2253 4250 2253 
z
M 4263 219 
Q 4756 219 4756 1063 
Q 4756 1869 4263 1869 
Q 3775 1869 3775 1019 
Q 3775 219 4263 219 
z
" transform="scale(0.015625)"/>
      </defs>
      <use xlink:href="#ArialUnicodeMS-4987"/>
      <use xlink:href="#ArialUnicodeMS-2e88" transform="translate(100 0)"/>
      <use xlink:href="#ArialUnicodeMS-3" transform="translate(200 0)"/>
      <use xlink:href="#ArialUnicodeMS-48" transform="translate(227.78125 0)"/>
      <use xlink:href="#ArialUnicodeMS-5b" transform="translate(283.390625 0)"/>
      <use xlink:href="#ArialUnicodeMS-53" transform="translate(333.390625 0)"/>
      <use xlink:href="#ArialUnicodeMS-13" transform="translate(389 0)"/>
      <use xlink:href="#ArialUnicodeMS-13" transform="translate(444.609375 0)"/>
      <use xlink:href="#ArialUnicodeMS-19" transform="translate(500.21875 0)"/>
      <use xlink:href="#ArialUnicodeMS-3" transform="translate(555.828125 0)"/>
      <use xlink:href="#ArialUnicodeMS-5fc8" transform="translate(583.609375 0)"/>
      <use xlink:href="#ArialUnicodeMS-47b7" transform="translate(683.609375 0)"/>
      <use xlink:href="#ArialUnicodeMS-68dc" transform="translate(783.609375 0)"/>
      <use xlink:href="#ArialUnicodeMS-21dd" transform="translate(883.609375 0)"/>
      <use xlink:href="#ArialUnicodeMS-3" transform="translate(983.609375 0)"/>
      <use xlink:href="#ArialUnicodeMS-12" transform="translate(1011.390625 0)"/>
      <use xlink:href="#ArialUnicodeMS-3" transform="translate(1039.171875 0)"/>
      <use xlink:href="#ArialUnicodeMS-8" transform="translate(1066.953125 0)"/>
     </g>
    </g>
   </g>
   <g id="line2d_19">
    <path d="M 62.220621 183.854101 
L 63.196348 213.774819 
L 64.172075 214.301465 
L 65.147802 216.306095 
L 66.123529 212.837748 
L 67.099256 214.781015 
L 68.074983 213.803402 
L 69.05071 217.854233 
L 70.026437 226.163349 
L 71.002164 227.86802 
L 71.977891 224.988113 
L 72.953618 229.536402 
L 74.905072 228.702694 
L 75.880799 227.058509 
L 76.856526 232.021548 
L 77.832253 228.763516 
L 79.783707 220.356332 
L 80.759434 220.98959 
L 81.735161 222.207679 
L 82.710888 220.322822 
L 83.686615 217.280881 
L 84.662342 215.061245 
L 85.63807 215.763486 
L 86.613797 214.079414 
L 87.589524 211.531672 
L 88.565251 216.241195 
L 89.540978 216.584705 
L 90.516705 216.187473 
L 91.492432 216.116579 
L 92.468159 202.843247 
L 93.443886 204.176363 
L 94.419613 204.294431 
L 95.39534 207.433972 
L 96.371067 205.094665 
L 97.346794 204.216612 
L 98.322521 199.196262 
L 99.298248 187.740455 
L 100.273975 184.891214 
L 101.249702 183.537472 
L 102.225429 175.385676 
L 103.201156 173.609249 
L 104.176883 172.383793 
L 105.15261 173.47797 
L 106.128337 168.888004 
L 107.104064 173.280694 
L 108.079791 172.388597 
L 109.055518 174.974488 
L 110.031245 175.661277 
L 111.006972 173.440801 
L 111.982699 174.955991 
L 112.958426 176.166733 
L 113.934153 178.213937 
L 114.90988 176.021544 
L 116.861334 178.859089 
L 117.837061 211.765744 
L 119.788515 205.007054 
L 120.764242 176.802301 
L 121.739969 170.773903 
L 122.715696 169.225073 
L 123.691423 159.884684 
L 124.66715 143.797485 
L 125.642877 138.982002 
L 126.618604 131.961702 
L 127.594331 132.89799 
L 128.570058 130.992198 
L 129.545785 131.221462 
L 130.521512 131.812673 
L 132.472966 135.695543 
L 133.448694 134.370211 
L 134.424421 132.371857 
L 135.400148 130.003073 
L 136.375875 130.535855 
L 137.351602 129.107029 
L 138.327329 129.830443 
L 139.303056 126.606286 
L 140.278783 128.486122 
L 142.230237 126.422119 
L 143.205964 124.280499 
L 144.181691 124.71242 
L 145.157418 124.503232 
L 146.133145 121.439913 
L 147.108872 89.788758 
L 148.084599 88.968476 
L 149.060326 86.992322 
L 150.036053 79.997216 
L 151.01178 155.680844 
L 151.987507 170.275037 
L 152.963234 170.719492 
L 153.938961 177.383176 
L 154.914688 172.82081 
L 155.890415 164.903651 
L 156.866142 171.555452 
L 157.841869 183.077332 
L 158.817596 182.781894 
L 160.76905 190.708917 
L 161.744777 190.940872 
L 162.720504 190.494954 
L 163.696231 187.985747 
L 164.671958 193.402584 
L 165.647685 193.906026 
L 166.623412 194.220102 
L 167.599139 195.788897 
L 168.574866 199.255716 
L 169.550593 200.501842 
L 170.52632 198.354114 
L 171.502047 200.420899 
L 172.477774 197.432055 
L 173.453501 215.241771 
L 174.429228 213.937729 
L 175.404955 215.555123 
L 176.380682 218.031847 
L 177.356409 215.427715 
L 178.332136 221.80137 
L 179.307863 219.359786 
L 180.28359 174.464457 
L 182.235045 142.954682 
L 183.210772 138.466056 
L 184.186499 144.179396 
L 185.162226 147.133748 
L 186.137953 143.541042 
L 187.11368 133.011685 
L 188.089407 131.032825 
L 189.065134 124.707908 
L 191.016588 115.677692 
L 191.992315 115.166687 
L 192.968042 118.42708 
L 193.943769 113.719999 
L 194.919496 109.818277 
L 195.895223 109.294799 
L 196.87095 107.250049 
L 197.846677 101.529739 
L 198.822404 97.490265 
L 199.798131 100.709004 
L 200.773858 97.872908 
L 201.749585 96.91115 
L 202.725312 77.413117 
L 203.701039 77.277498 
L 204.676766 73.855622 
L 205.652493 74.579919 
L 206.62822 87.002976 
L 207.603947 81.0919 
L 208.579674 81.83437 
L 209.555401 72.826317 
L 210.531128 74.482313 
L 211.506855 93.111093 
L 212.482582 102.374062 
L 213.458309 106.154066 
L 214.434036 113.280245 
L 215.409763 115.80844 
L 216.38549 115.724305 
L 217.361217 117.624403 
L 218.336944 120.883314 
L 219.312671 118.192034 
L 221.264125 121.323282 
L 222.239852 120.40608 
L 223.215579 116.261603 
L 224.191306 116.715522 
L 225.167033 119.920264 
L 226.14276 118.507971 
L 227.118487 122.69738 
L 228.094214 125.412507 
L 229.069942 145.674223 
L 230.045669 144.127862 
L 231.021396 150.045841 
L 231.997123 152.662632 
L 232.97285 151.03262 
L 233.948577 162.392325 
L 234.924304 161.288964 
L 235.900031 153.565196 
L 236.875758 155.190977 
L 237.851485 154.974794 
L 238.827212 158.879935 
L 239.802939 160.877048 
L 240.778666 160.455418 
L 241.754393 154.590275 
L 242.73012 145.105573 
L 243.705847 137.082333 
L 244.681574 125.31334 
L 245.657301 121.995256 
L 246.633028 125.644143 
L 247.608755 169.394371 
L 249.560209 182.108179 
L 250.535936 182.095416 
L 251.511663 186.604587 
L 252.48739 193.223063 
L 253.463117 195.422864 
L 254.438844 196.16807 
L 255.414571 200.090068 
L 257.366025 205.60459 
L 258.341752 183.841822 
L 259.317479 187.270516 
L 260.293206 186.373564 
L 261.268933 190.233277 
L 262.24466 195.240043 
L 263.220387 186.17341 
L 265.171841 191.755228 
L 266.147568 189.036338 
L 267.123295 193.866612 
L 268.099022 195.534351 
L 269.074749 198.478796 
L 270.050476 202.973704 
L 271.026203 216.116791 
L 273.953384 246.564487 
L 274.929111 248.542985 
L 275.904839 242.52539 
L 276.880566 192.503188 
L 277.856293 189.756718 
L 278.83202 185.421548 
L 279.807747 187.757186 
L 280.783474 185.038698 
L 281.759201 185.766824 
L 282.734928 183.110594 
L 283.710655 182.278597 
L 284.686382 184.867956 
L 285.662109 183.803981 
L 286.637836 182.237759 
L 287.613563 184.530812 
L 288.58929 187.80483 
L 289.565017 185.873187 
L 290.540744 183.650434 
L 291.516471 182.874343 
L 292.492198 183.395953 
L 293.467925 181.697029 
L 294.443652 182.163873 
L 295.419379 188.279074 
L 297.370833 188.889041 
L 298.34656 187.362836 
L 299.322287 184.700979 
L 300.298014 179.985528 
L 301.273741 179.213891 
L 302.249468 184.551553 
L 304.200922 193.03449 
L 305.176649 188.450625 
L 306.152376 189.554529 
L 307.128103 191.085992 
L 308.10383 191.677465 
L 309.079557 190.973509 
L 310.055284 195.875598 
L 311.031011 197.149197 
L 312.006738 199.803171 
L 312.982465 199.538213 
L 313.958192 195.878554 
L 314.933919 195.607244 
L 315.909646 199.280953 
L 316.885373 198.465131 
L 317.8611 194.37792 
L 319.812554 195.874155 
L 320.788281 194.89357 
L 321.764008 193.498575 
L 322.739735 194.005288 
L 323.715463 193.778857 
L 324.69119 193.021851 
L 325.666917 191.382441 
L 326.642644 188.77988 
L 327.618371 190.135215 
L 328.594098 195.495427 
L 329.569825 208.356894 
L 330.545552 209.615125 
L 331.521279 206.887012 
L 332.497006 199.580497 
L 333.472733 197.880308 
L 334.44846 203.069046 
L 335.424187 206.64485 
L 336.399914 208.697967 
L 337.375641 210.469384 
L 338.351368 213.475143 
L 339.327095 212.592309 
L 340.302822 210.649144 
L 341.278549 208.372999 
L 342.254276 208.813252 
L 343.230003 212.695534 
L 344.20573 214.644935 
L 345.181457 215.26551 
L 347.132911 219.253576 
L 348.108638 218.638796 
L 349.084365 218.922341 
L 350.060092 219.996161 
L 351.035819 222.834103 
L 352.011546 223.539394 
L 352.987273 223.628396 
L 353.963 223.22878 
L 354.938727 222.42288 
L 355.914454 221.925656 
L 356.890181 219.762794 
L 357.865908 215.776367 
L 358.841635 207.799274 
L 358.841635 207.799274 
" clip-path="url(#p6b7d550b5e)" style="fill: none; stroke: #27658a; stroke-width: 1.8; stroke-linecap: square"/>
   </g>
   <g id="line2d_20">
    <path d="M 91.492432 198.745191 
L 92.468159 208.772069 
L 93.443886 209.665261 
L 94.419613 210.876822 
L 95.39534 210.424908 
L 96.371067 210.326826 
L 97.346794 209.271666 
L 98.322521 209.127941 
L 99.298248 208.45203 
L 100.273975 208.020942 
L 101.249702 206.046451 
L 102.225429 205.233236 
L 104.176883 202.012009 
L 105.15261 202.038725 
L 106.128337 202.914733 
L 107.104064 203.253305 
L 108.079791 200.84289 
L 109.055518 200.03585 
L 110.031245 200.131153 
L 111.006972 199.145396 
L 111.982699 199.182413 
L 112.958426 198.400851 
L 113.934153 198.167007 
L 114.90988 197.766643 
L 115.885607 197.689147 
L 116.861334 196.54744 
L 117.837061 214.1277 
L 118.812788 212.769513 
L 119.788515 211.033612 
L 120.764242 197.812933 
L 121.739969 188.0647 
L 122.715696 188.211783 
L 123.691423 183.345934 
L 124.66715 176.42418 
L 126.618604 169.648368 
L 127.594331 167.423462 
L 128.570058 160.788091 
L 130.521512 158.54614 
L 131.497239 154.683976 
L 132.472966 154.924765 
L 133.448694 153.826593 
L 134.424421 153.316589 
L 135.400148 149.971222 
L 136.375875 152.628758 
L 137.351602 150.88015 
L 138.327329 151.917021 
L 139.303056 150.837092 
L 141.25451 151.094892 
L 143.205964 151.42311 
L 144.181691 149.841408 
L 145.157418 149.701589 
L 146.133145 149.053355 
L 147.108872 149.189285 
L 149.060326 144.847223 
L 150.036053 128.357454 
L 151.01178 162.910988 
L 151.987507 169.788444 
L 153.938961 161.428546 
L 154.914688 156.851725 
L 155.890415 149.272588 
L 156.866142 153.08441 
L 157.841869 158.935836 
L 158.817596 159.607613 
L 159.793323 161.886787 
L 160.76905 164.794371 
L 161.744777 165.9561 
L 162.720504 164.935019 
L 163.696231 162.450161 
L 164.671958 165.09792 
L 165.647685 166.433239 
L 166.623412 165.74697 
L 167.599139 166.733791 
L 168.574866 167.407496 
L 169.550593 168.686698 
L 170.52632 166.840421 
L 171.502047 168.358634 
L 172.477774 166.559764 
L 173.453501 176.827432 
L 174.429228 175.69092 
L 175.404955 175.468201 
L 176.380682 163.051624 
L 177.356409 160.817725 
L 178.332136 165.044883 
L 179.307863 162.590905 
L 180.28359 166.50452 
L 181.259318 163.974209 
L 182.235045 154.927134 
L 183.210772 155.429775 
L 184.186499 156.876151 
L 185.162226 154.889052 
L 186.137953 155.520474 
L 187.11368 154.782682 
L 188.089407 153.870664 
L 189.065134 152.223022 
L 190.040861 152.08522 
L 191.016588 150.25419 
L 191.992315 149.147986 
L 192.968042 149.238602 
L 193.943769 149.567345 
L 194.919496 148.224433 
L 195.895223 148.311078 
L 196.87095 148.520824 
L 197.846677 147.714158 
L 198.822404 145.294197 
L 200.773858 145.22325 
L 202.725312 142.39298 
L 203.701039 142.649109 
L 204.676766 142.487201 
L 205.652493 142.870949 
L 206.62822 147.048293 
L 207.603947 147.600566 
L 208.579674 147.64382 
L 209.555401 121.368742 
L 210.531128 115.517155 
L 212.482582 120.08504 
L 213.458309 124.563245 
L 214.434036 129.99503 
L 215.409763 129.689022 
L 216.38549 124.428147 
L 217.361217 124.475412 
L 218.336944 122.863601 
L 219.312671 119.254611 
L 220.288398 117.698375 
L 221.264125 118.195198 
L 222.239852 119.388634 
L 223.215579 114.952558 
L 224.191306 113.121398 
L 225.167033 114.3192 
L 226.14276 112.65725 
L 228.094214 110.915904 
L 229.069942 122.093719 
L 230.045669 119.776693 
L 231.021396 121.729276 
L 231.997123 112.132495 
L 232.97285 111.910213 
L 233.948577 116.077726 
L 234.924304 115.412223 
L 235.900031 117.896124 
L 236.875758 115.356966 
L 237.851485 115.234099 
L 238.827212 111.741051 
L 239.802939 114.441135 
L 240.778666 125.125222 
L 241.754393 127.008568 
L 242.73012 124.409496 
L 243.705847 124.519554 
L 244.681574 120.255073 
L 245.657301 118.637933 
L 246.633028 121.434554 
L 247.608755 144.391855 
L 248.584482 145.681647 
L 249.560209 149.448963 
L 250.535936 150.263092 
L 251.511663 151.587199 
L 252.48739 152.033774 
L 253.463117 153.999649 
L 254.438844 156.749812 
L 255.414571 157.513474 
L 256.390298 160.680833 
L 257.366025 163.371659 
L 258.341752 163.455948 
L 259.317479 163.987731 
L 260.293206 167.101661 
L 261.268933 170.674544 
L 262.24466 171.99164 
L 263.220387 173.552468 
L 264.196114 174.269329 
L 265.171841 171.272172 
L 266.147568 170.679688 
L 267.123295 173.148089 
L 268.099022 176.387191 
L 269.074749 178.648939 
L 270.050476 180.33002 
L 271.026203 183.302845 
L 272.00193 182.554951 
L 272.977657 182.529593 
L 273.953384 181.603201 
L 274.929111 181.914735 
L 275.904839 180.386215 
L 276.880566 180.120313 
L 277.856293 182.095048 
L 278.83202 183.623099 
L 279.807747 184.656399 
L 280.783474 185.878567 
L 281.759201 189.679148 
L 282.734928 189.611573 
L 283.710655 189.661105 
L 284.686382 192.931765 
L 285.662109 194.016718 
L 286.637836 194.819326 
L 287.613563 184.168844 
L 288.58929 187.530799 
L 289.565017 186.131429 
L 290.540744 187.069814 
L 291.516471 189.277324 
L 292.492198 184.847237 
L 293.467925 185.539764 
L 295.419379 188.65997 
L 296.395106 191.276087 
L 297.370833 192.284887 
L 298.34656 193.030183 
L 299.322287 194.111088 
L 301.273741 203.019297 
L 303.225195 217.300287 
L 304.200922 220.694409 
L 305.176649 215.198726 
L 306.152376 191.025273 
L 307.128103 190.417246 
L 308.10383 188.622789 
L 309.079557 189.44732 
L 310.055284 190.694101 
L 311.031011 191.671918 
L 312.006738 191.797545 
L 314.933919 189.974653 
L 315.909646 191.361869 
L 316.885373 191.93397 
L 319.812554 190.032243 
L 320.788281 189.081515 
L 322.739735 188.376407 
L 323.715463 188.416345 
L 324.69119 190.812583 
L 325.666917 190.093876 
L 326.642644 188.831264 
L 327.618371 188.815432 
L 328.594098 190.501949 
L 329.569825 195.652879 
L 330.545552 195.878737 
L 331.521279 196.712072 
L 332.497006 194.597263 
L 333.472733 195.659542 
L 334.44846 196.256432 
L 335.424187 198.894186 
L 336.399914 200.93574 
L 338.351368 203.314568 
L 339.327095 205.049711 
L 340.302822 204.479744 
L 341.278549 204.408581 
L 342.254276 204.636503 
L 343.230003 205.32951 
L 344.20573 206.199827 
L 345.181457 208.092536 
L 346.157184 208.887858 
L 347.132911 207.947075 
L 348.108638 207.802514 
L 349.084365 208.605249 
L 350.060092 209.063054 
L 351.035819 209.886586 
L 352.011546 210.342446 
L 352.987273 210.288225 
L 353.963 209.565011 
L 354.938727 208.207742 
L 355.914454 207.160514 
L 356.890181 206.886071 
L 357.865908 206.826914 
L 358.841635 208.051382 
L 358.841635 208.051382 
" clip-path="url(#p6b7d550b5e)" style="fill: none; stroke-dasharray: 6.66,2.88; stroke-dashoffset: 0; stroke: #c06a36; stroke-width: 1.8"/>
   </g>
   <g id="line2d_21">
    <path d="M 120.764242 192.452389 
L 121.739969 198.088122 
L 122.715696 198.423576 
L 123.691423 196.214485 
L 124.66715 190.573859 
L 125.642877 188.941905 
L 126.618604 185.889163 
L 127.594331 186.190412 
L 128.570058 185.658152 
L 129.545785 185.716486 
L 130.521512 183.826619 
L 132.472966 182.513311 
L 133.448694 180.954887 
L 134.424421 180.434812 
L 135.400148 180.750312 
L 136.375875 181.394434 
L 137.351602 178.624426 
L 139.303056 176.574516 
L 141.25451 176.211964 
L 142.230237 175.766226 
L 143.205964 175.147228 
L 145.157418 173.581947 
L 146.133145 171.678101 
L 147.108872 172.820272 
L 149.060326 170.841557 
L 150.036053 160.341434 
L 151.01178 177.253367 
L 151.987507 182.007311 
L 152.963234 178.942688 
L 153.938961 176.759843 
L 154.914688 173.081585 
L 155.890415 168.005107 
L 156.866142 168.843721 
L 157.841869 168.694831 
L 158.817596 168.115197 
L 159.793323 168.956923 
L 160.76905 168.12536 
L 161.744777 168.386813 
L 162.720504 167.342253 
L 163.696231 166.011606 
L 164.671958 166.311927 
L 165.647685 168.602761 
L 166.623412 167.784888 
L 167.599139 169.17917 
L 168.574866 169.880928 
L 169.550593 170.138921 
L 170.52632 169.317953 
L 171.502047 170.720819 
L 172.477774 170.050313 
L 173.453501 176.594195 
L 174.429228 176.169678 
L 175.404955 176.427658 
L 176.380682 177.142076 
L 177.356409 174.618446 
L 178.332136 176.561868 
L 179.307863 166.699187 
L 180.28359 167.701669 
L 181.259318 165.402379 
L 182.235045 156.291908 
L 183.210772 152.139351 
L 184.186499 151.798776 
L 185.162226 148.40794 
L 186.137953 149.158194 
L 187.11368 148.285798 
L 188.089407 147.871736 
L 189.065134 146.740223 
L 190.040861 147.079837 
L 191.016588 146.250547 
L 191.992315 145.100188 
L 192.968042 144.629153 
L 193.943769 144.35865 
L 194.919496 143.642884 
L 195.895223 143.258691 
L 196.87095 143.503002 
L 197.846677 142.025979 
L 198.822404 140.779334 
L 200.773858 140.31781 
L 201.749585 138.898008 
L 202.725312 137.833312 
L 203.701039 137.871165 
L 204.676766 136.923076 
L 205.652493 128.898683 
L 206.62822 131.82012 
L 207.603947 132.097711 
L 208.579674 130.901284 
L 209.555401 130.287729 
L 210.531128 130.286841 
L 211.506855 132.341587 
L 212.482582 135.838247 
L 213.458309 137.990702 
L 214.434036 139.650575 
L 215.409763 141.083324 
L 216.38549 140.804499 
L 217.361217 141.241614 
L 218.336944 141.518081 
L 219.312671 140.378027 
L 220.288398 139.585693 
L 222.239852 139.294783 
L 223.215579 138.202423 
L 224.191306 137.731619 
L 225.167033 139.039621 
L 226.14276 138.604998 
L 227.118487 139.35453 
L 228.094214 138.699361 
L 229.069942 145.375699 
L 230.045669 144.865912 
L 231.021396 145.846526 
L 232.97285 145.297497 
L 233.948577 148.852247 
L 234.924304 148.728376 
L 235.900031 149.105093 
L 236.875758 149.969212 
L 237.851485 149.877712 
L 238.827212 132.671394 
L 239.802939 129.454905 
L 240.778666 131.211726 
L 241.754393 130.873117 
L 242.73012 130.987474 
L 243.705847 132.204386 
L 244.681574 128.353933 
L 245.657301 123.695506 
L 246.633028 124.834013 
L 247.608755 137.379445 
L 248.584482 136.770782 
L 249.560209 137.797394 
L 250.535936 137.941481 
L 251.511663 139.687346 
L 252.48739 138.148505 
L 253.463117 137.911673 
L 254.438844 139.399922 
L 255.414571 139.37354 
L 256.390298 139.609496 
L 257.366025 139.488841 
L 258.341752 140.198377 
L 259.317479 139.195476 
L 260.293206 140.635864 
L 261.268933 135.421887 
L 262.24466 136.694084 
L 264.196114 137.00726 
L 265.171841 139.044708 
L 266.147568 136.036308 
L 267.123295 137.722721 
L 268.099022 136.252956 
L 269.074749 139.067828 
L 270.050476 148.044291 
L 271.026203 153.045246 
L 272.00193 153.574549 
L 272.977657 156.309379 
L 273.953384 156.688679 
L 275.904839 157.162425 
L 276.880566 158.61619 
L 277.856293 158.645144 
L 279.807747 160.84694 
L 280.783474 161.266604 
L 282.734928 162.659623 
L 283.710655 164.372946 
L 284.686382 165.664079 
L 285.662109 167.438492 
L 286.637836 168.817295 
L 287.613563 169.698826 
L 289.565017 172.839364 
L 290.540744 174.661458 
L 291.516471 175.324813 
L 292.492198 176.506764 
L 293.467925 176.465283 
L 294.443652 174.579774 
L 295.419379 176.159884 
L 296.395106 177.968726 
L 297.370833 180.308744 
L 298.34656 181.371405 
L 299.322287 181.666097 
L 300.298014 182.300153 
L 301.273741 181.515231 
L 302.249468 183.175378 
L 303.225195 183.845271 
L 304.200922 185.504467 
L 305.176649 182.996123 
L 306.152376 183.120993 
L 307.128103 184.923214 
L 308.10383 186.232206 
L 309.079557 186.764679 
L 310.055284 189.237698 
L 311.031011 192.210058 
L 312.006738 193.063414 
L 312.982465 192.94786 
L 313.958192 193.899801 
L 314.933919 194.554164 
L 315.909646 196.368279 
L 316.885373 189.169817 
L 317.8611 189.940091 
L 318.836827 189.275998 
L 319.812554 190.10072 
L 320.788281 191.186426 
L 321.764008 187.871241 
L 322.739735 188.580709 
L 323.715463 189.515621 
L 324.69119 190.2435 
L 325.666917 191.314649 
L 326.642644 191.041442 
L 327.618371 192.01569 
L 328.594098 194.609989 
L 329.569825 202.311961 
L 331.521279 209.053067 
L 333.472733 212.201482 
L 334.44846 210.750807 
L 335.424187 196.90679 
L 336.399914 197.486542 
L 337.375641 197.117971 
L 338.351368 198.808441 
L 339.327095 199.196848 
L 340.302822 198.908973 
L 341.278549 198.042723 
L 342.254276 197.990232 
L 343.230003 199.266987 
L 344.20573 199.74502 
L 346.157184 201.980226 
L 347.132911 202.112082 
L 348.108638 201.412578 
L 349.084365 201.351872 
L 350.060092 201.476751 
L 351.035819 202.424361 
L 352.987273 202.4952 
L 353.963 203.543848 
L 354.938727 202.643162 
L 357.865908 200.736021 
L 358.841635 200.522502 
L 358.841635 200.522502 
" clip-path="url(#p6b7d550b5e)" style="fill: none; stroke-dasharray: 1.8,2.97; stroke-dashoffset: 0; stroke: #b48e2f; stroke-width: 1.8"/>
   </g>
   <g id="patch_3">
    <path d="M 47.38957 288.601309 
L 47.38957 64.040484 
" style="fill: none; stroke: #60656b; stroke-width: 0.8; stroke-linejoin: miter; stroke-linecap: square"/>
   </g>
   <g id="patch_4">
    <path d="M 47.38957 288.601309 
L 373.672686 288.601309 
" style="fill: none; stroke: #60656b; stroke-width: 0.8; stroke-linejoin: miter; stroke-linecap: square"/>
   </g>
   <g id="legend_1">
    <g id="line2d_22">
     <path d="M 292.772686 77.851421 
L 302.772686 77.851421 
L 312.772686 77.851421 
" style="fill: none; stroke: #27658a; stroke-width: 1.8; stroke-linecap: square"/>
    </g>
    <g id="text_14">
     <!-- 30 日窗口 -->
     <g style="fill: #272c30" transform="translate(320.772686 81.351421) scale(0.1 -0.1)">
      <use xlink:href="#ArialUnicodeMS-16"/>
      <use xlink:href="#ArialUnicodeMS-13" transform="translate(55.609375 0)"/>
      <use xlink:href="#ArialUnicodeMS-3" transform="translate(111.21875 0)"/>
      <use xlink:href="#ArialUnicodeMS-3874" transform="translate(139 0)"/>
      <use xlink:href="#ArialUnicodeMS-4d26" transform="translate(239 0)"/>
      <use xlink:href="#ArialUnicodeMS-2672" transform="translate(339 0)"/>
     </g>
    </g>
    <g id="line2d_23">
     <path d="M 292.772686 93.261968 
L 302.772686 93.261968 
L 312.772686 93.261968 
" style="fill: none; stroke-dasharray: 6.66,2.88; stroke-dashoffset: 0; stroke: #c06a36; stroke-width: 1.8"/>
    </g>
    <g id="text_15">
     <!-- 60 日窗口 -->
     <g style="fill: #272c30" transform="translate(320.772686 96.761968) scale(0.1 -0.1)">
      <use xlink:href="#ArialUnicodeMS-19"/>
      <use xlink:href="#ArialUnicodeMS-13" transform="translate(55.609375 0)"/>
      <use xlink:href="#ArialUnicodeMS-3" transform="translate(111.21875 0)"/>
      <use xlink:href="#ArialUnicodeMS-3874" transform="translate(139 0)"/>
      <use xlink:href="#ArialUnicodeMS-4d26" transform="translate(239 0)"/>
      <use xlink:href="#ArialUnicodeMS-2672" transform="translate(339 0)"/>
     </g>
    </g>
    <g id="line2d_24">
     <path d="M 292.772686 108.672515 
L 302.772686 108.672515 
L 312.772686 108.672515 
" style="fill: none; stroke-dasharray: 1.8,2.97; stroke-dashoffset: 0; stroke: #b48e2f; stroke-width: 1.8"/>
    </g>
    <g id="text_16">
     <!-- 90 日窗口 -->
     <g style="fill: #272c30" transform="translate(320.772686 112.172515) scale(0.1 -0.1)">
      <use xlink:href="#ArialUnicodeMS-1c"/>
      <use xlink:href="#ArialUnicodeMS-13" transform="translate(55.609375 0)"/>
      <use xlink:href="#ArialUnicodeMS-3" transform="translate(111.21875 0)"/>
      <use xlink:href="#ArialUnicodeMS-3874" transform="translate(139 0)"/>
      <use xlink:href="#ArialUnicodeMS-4d26" transform="translate(239 0)"/>
      <use xlink:href="#ArialUnicodeMS-2672" transform="translate(339 0)"/>
     </g>
    </g>
   </g>
  </g>
  <g id="axes_2">
   <g id="patch_5">
    <path d="M 416.516884 288.601309 
L 742.8 288.601309 
L 742.8 64.040484 
L 416.516884 64.040484 
z
" style="fill: #ffffff"/>
   </g>
   <g id="matplotlib.axis_3">
    <g id="xtick_5">
     <g id="line2d_25">
      <g>
       <use xlink:href="#m5f5b6c15b3" x="463.336476" y="288.601309" style="fill: #41474c; stroke: #41474c; stroke-width: 0.8"/>
      </g>
     </g>
     <g id="text_17">
      <!-- 末尾 20% -->
      <g style="fill: #41474c" transform="translate(439.800773 304.829277) scale(0.11 -0.11)">
       <defs>
        <path id="ArialUnicodeMS-39ba" d="M 6113 616 
L 5778 184 
Q 4184 888 3475 2644 
L 3475 -428 
L 2969 -428 
L 2956 2606 
Q 2238 1034 659 147 
L 353 581 
Q 1709 1228 2516 2656 
L 1050 2656 
L 1050 3122 
L 2969 3122 
L 2969 3975 
L 744 3975 
L 744 4441 
L 2969 4441 
L 2969 5369 
L 3475 5369 
L 3475 4441 
L 5709 4441 
L 5709 3975 
L 3475 3975 
L 3475 3122 
L 5416 3122 
L 5416 2656 
L 3963 2656 
Q 4675 1159 6113 616 
z
" transform="scale(0.015625)"/>
        <path id="ArialUnicodeMS-2ecd" d="M 5638 3456 
L 1466 3456 
L 1466 2003 
Q 1466 463 781 -428 
L 366 -147 
Q 972 619 972 2081 
L 972 5019 
L 5638 5019 
L 5638 3456 
z
M 5153 3922 
L 5153 4550 
L 1466 4550 
L 1466 3922 
L 5153 3922 
z
M 6016 844 
Q 5784 -166 5203 -166 
L 3775 -166 
Q 3181 -166 3181 366 
L 3181 781 
L 1600 581 
L 1516 1025 
L 3181 1222 
L 3181 1716 
L 1881 1581 
L 1791 2003 
L 3181 2169 
L 3181 2547 
Q 2453 2466 1797 2444 
L 1509 2950 
Q 4044 2969 5159 3438 
L 5528 3103 
Q 4741 2741 3669 2597 
L 3669 2209 
L 5428 2394 
L 5472 1947 
L 3669 1759 
L 3669 1288 
L 5791 1538 
L 5856 1094 
L 3669 844 
L 3669 469 
Q 3669 300 3816 300 
L 5203 300 
Q 5309 300 5376 390 
Q 5444 481 5563 1025 
L 6016 844 
z
" transform="scale(0.015625)"/>
       </defs>
       <use xlink:href="#ArialUnicodeMS-39ba"/>
       <use xlink:href="#ArialUnicodeMS-2ecd" transform="translate(100 0)"/>
       <use xlink:href="#ArialUnicodeMS-3" transform="translate(200 0)"/>
       <use xlink:href="#ArialUnicodeMS-15" transform="translate(227.78125 0)"/>
       <use xlink:href="#ArialUnicodeMS-13" transform="translate(283.390625 0)"/>
       <use xlink:href="#ArialUnicodeMS-8" transform="translate(339 0)"/>
      </g>
     </g>
    </g>
    <g id="xtick_6">
     <g id="line2d_26">
      <g>
       <use xlink:href="#m5f5b6c15b3" x="579.658442" y="288.601309" style="fill: #41474c; stroke: #41474c; stroke-width: 0.8"/>
      </g>
     </g>
     <g id="text_18">
      <!-- 末尾 30% -->
      <g style="fill: #41474c" transform="translate(556.122739 304.829277) scale(0.11 -0.11)">
       <use xlink:href="#ArialUnicodeMS-39ba"/>
       <use xlink:href="#ArialUnicodeMS-2ecd" transform="translate(100 0)"/>
       <use xlink:href="#ArialUnicodeMS-3" transform="translate(200 0)"/>
       <use xlink:href="#ArialUnicodeMS-16" transform="translate(227.78125 0)"/>
       <use xlink:href="#ArialUnicodeMS-13" transform="translate(283.390625 0)"/>
       <use xlink:href="#ArialUnicodeMS-8" transform="translate(339 0)"/>
      </g>
     </g>
    </g>
    <g id="xtick_7">
     <g id="line2d_27">
      <g>
       <use xlink:href="#m5f5b6c15b3" x="695.980409" y="288.601309" style="fill: #41474c; stroke: #41474c; stroke-width: 0.8"/>
      </g>
     </g>
     <g id="text_19">
      <!-- 末尾 40% -->
      <g style="fill: #41474c" transform="translate(672.444705 304.829277) scale(0.11 -0.11)">
       <use xlink:href="#ArialUnicodeMS-39ba"/>
       <use xlink:href="#ArialUnicodeMS-2ecd" transform="translate(100 0)"/>
       <use xlink:href="#ArialUnicodeMS-3" transform="translate(200 0)"/>
       <use xlink:href="#ArialUnicodeMS-17" transform="translate(227.78125 0)"/>
       <use xlink:href="#ArialUnicodeMS-13" transform="translate(283.390625 0)"/>
       <use xlink:href="#ArialUnicodeMS-8" transform="translate(339 0)"/>
      </g>
     </g>
    </g>
   </g>
   <g id="matplotlib.axis_4">
    <g id="ytick_8">
     <g id="line2d_28">
      <path d="M 416.516884 288.601309 
L 742.8 288.601309 
" clip-path="url(#p659fae1d41)" style="fill: none; stroke: #e0e3e5; stroke-width: 0.65; stroke-linecap: square"/>
     </g>
     <g id="line2d_29">
      <g>
       <use xlink:href="#m958714c4c0" x="416.516884" y="288.601309" style="fill: #41474c; stroke: #41474c; stroke-width: 0.8"/>
      </g>
     </g>
     <g id="text_20">
      <!-- 0 -->
      <g style="fill: #41474c" transform="translate(403.399853 292.605459) scale(0.11 -0.11)">
       <use xlink:href="#ArialUnicodeMS-13"/>
      </g>
     </g>
    </g>
    <g id="ytick_9">
     <g id="line2d_30">
      <path d="M 416.516884 254.053489 
L 742.8 254.053489 
" clip-path="url(#p659fae1d41)" style="fill: none; stroke: #e0e3e5; stroke-width: 0.65; stroke-linecap: square"/>
     </g>
     <g id="line2d_31">
      <g>
       <use xlink:href="#m958714c4c0" x="416.516884" y="254.053489" style="fill: #41474c; stroke: #41474c; stroke-width: 0.8"/>
      </g>
     </g>
     <g id="text_21">
      <!-- 1 -->
      <g style="fill: #41474c" transform="translate(403.399853 258.05764) scale(0.11 -0.11)">
       <use xlink:href="#ArialUnicodeMS-14"/>
      </g>
     </g>
    </g>
    <g id="ytick_10">
     <g id="line2d_32">
      <path d="M 416.516884 219.50567 
L 742.8 219.50567 
" clip-path="url(#p659fae1d41)" style="fill: none; stroke: #e0e3e5; stroke-width: 0.65; stroke-linecap: square"/>
     </g>
     <g id="line2d_33">
      <g>
       <use xlink:href="#m958714c4c0" x="416.516884" y="219.50567" style="fill: #41474c; stroke: #41474c; stroke-width: 0.8"/>
      </g>
     </g>
     <g id="text_22">
      <!-- 2 -->
      <g style="fill: #41474c" transform="translate(403.399853 223.509821) scale(0.11 -0.11)">
       <use xlink:href="#ArialUnicodeMS-15"/>
      </g>
     </g>
    </g>
    <g id="ytick_11">
     <g id="line2d_34">
      <path d="M 416.516884 184.957851 
L 742.8 184.957851 
" clip-path="url(#p659fae1d41)" style="fill: none; stroke: #e0e3e5; stroke-width: 0.65; stroke-linecap: square"/>
     </g>
     <g id="line2d_35">
      <g>
       <use xlink:href="#m958714c4c0" x="416.516884" y="184.957851" style="fill: #41474c; stroke: #41474c; stroke-width: 0.8"/>
      </g>
     </g>
     <g id="text_23">
      <!-- 3 -->
      <g style="fill: #41474c" transform="translate(403.399853 188.962001) scale(0.11 -0.11)">
       <use xlink:href="#ArialUnicodeMS-16"/>
      </g>
     </g>
    </g>
    <g id="ytick_12">
     <g id="line2d_36">
      <path d="M 416.516884 150.410032 
L 742.8 150.410032 
" clip-path="url(#p659fae1d41)" style="fill: none; stroke: #e0e3e5; stroke-width: 0.65; stroke-linecap: square"/>
     </g>
     <g id="line2d_37">
      <g>
       <use xlink:href="#m958714c4c0" x="416.516884" y="150.410032" style="fill: #41474c; stroke: #41474c; stroke-width: 0.8"/>
      </g>
     </g>
     <g id="text_24">
      <!-- 4 -->
      <g style="fill: #41474c" transform="translate(403.399853 154.414182) scale(0.11 -0.11)">
       <use xlink:href="#ArialUnicodeMS-17"/>
      </g>
     </g>
    </g>
    <g id="ytick_13">
     <g id="line2d_38">
      <path d="M 416.516884 115.862213 
L 742.8 115.862213 
" clip-path="url(#p659fae1d41)" style="fill: none; stroke: #e0e3e5; stroke-width: 0.65; stroke-linecap: square"/>
     </g>
     <g id="line2d_39">
      <g>
       <use xlink:href="#m958714c4c0" x="416.516884" y="115.862213" style="fill: #41474c; stroke: #41474c; stroke-width: 0.8"/>
      </g>
     </g>
     <g id="text_25">
      <!-- 5 -->
      <g style="fill: #41474c" transform="translate(403.399853 119.866363) scale(0.11 -0.11)">
       <defs>
        <path id="ArialUnicodeMS-18" d="M 1013 2753 
Q 1431 3041 1881 3041 
Q 2453 3041 2878 2636 
Q 3303 2231 3303 1556 
Q 3303 875 2872 398 
Q 2441 -78 1741 -78 
Q 1169 -78 750 245 
Q 331 569 269 1203 
L 856 1247 
Q 928 813 1162 598 
Q 1397 384 1741 384 
Q 2169 384 2434 707 
Q 2700 1031 2700 1503 
Q 2700 1984 2428 2262 
Q 2156 2541 1728 2541 
Q 1188 2541 897 2100 
L 366 2163 
L 813 4519 
L 3084 4519 
L 3084 3975 
L 1259 3975 
L 1013 2753 
z
" transform="scale(0.015625)"/>
       </defs>
       <use xlink:href="#ArialUnicodeMS-18"/>
      </g>
     </g>
    </g>
    <g id="ytick_14">
     <g id="line2d_40">
      <path d="M 416.516884 81.314393 
L 742.8 81.314393 
" clip-path="url(#p659fae1d41)" style="fill: none; stroke: #e0e3e5; stroke-width: 0.65; stroke-linecap: square"/>
     </g>
     <g id="line2d_41">
      <g>
       <use xlink:href="#m958714c4c0" x="416.516884" y="81.314393" style="fill: #41474c; stroke: #41474c; stroke-width: 0.8"/>
      </g>
     </g>
     <g id="text_26">
      <!-- 6 -->
      <g style="fill: #41474c" transform="translate(403.399853 85.318544) scale(0.11 -0.11)">
       <use xlink:href="#ArialUnicodeMS-19"/>
      </g>
     </g>
    </g>
    <g id="text_27">
     <!-- 相对 exp006 费用降低 / % -->
     <g style="fill: #272c30" transform="translate(397.090283 239.894021) rotate(-90) scale(0.11 -0.11)">
      <use xlink:href="#ArialUnicodeMS-4987"/>
      <use xlink:href="#ArialUnicodeMS-2e88" transform="translate(100 0)"/>
      <use xlink:href="#ArialUnicodeMS-3" transform="translate(200 0)"/>
      <use xlink:href="#ArialUnicodeMS-48" transform="translate(227.78125 0)"/>
      <use xlink:href="#ArialUnicodeMS-5b" transform="translate(283.390625 0)"/>
      <use xlink:href="#ArialUnicodeMS-53" transform="translate(333.390625 0)"/>
      <use xlink:href="#ArialUnicodeMS-13" transform="translate(389 0)"/>
      <use xlink:href="#ArialUnicodeMS-13" transform="translate(444.609375 0)"/>
      <use xlink:href="#ArialUnicodeMS-19" transform="translate(500.21875 0)"/>
      <use xlink:href="#ArialUnicodeMS-3" transform="translate(555.828125 0)"/>
      <use xlink:href="#ArialUnicodeMS-5fc8" transform="translate(583.609375 0)"/>
      <use xlink:href="#ArialUnicodeMS-47b7" transform="translate(683.609375 0)"/>
      <use xlink:href="#ArialUnicodeMS-68dc" transform="translate(783.609375 0)"/>
      <use xlink:href="#ArialUnicodeMS-21dd" transform="translate(883.609375 0)"/>
      <use xlink:href="#ArialUnicodeMS-3" transform="translate(983.609375 0)"/>
      <use xlink:href="#ArialUnicodeMS-12" transform="translate(1011.390625 0)"/>
      <use xlink:href="#ArialUnicodeMS-3" transform="translate(1039.171875 0)"/>
      <use xlink:href="#ArialUnicodeMS-8" transform="translate(1066.953125 0)"/>
     </g>
    </g>
   </g>
   <g id="patch_6">
    <path d="M 416.516884 288.601309 
L 416.516884 64.040484 
" style="fill: none; stroke: #60656b; stroke-width: 0.8; stroke-linejoin: miter; stroke-linecap: square"/>
   </g>
   <g id="patch_7">
    <path d="M 416.516884 288.601309 
L 742.8 288.601309 
" style="fill: none; stroke: #60656b; stroke-width: 0.8; stroke-linejoin: miter; stroke-linecap: square"/>
   </g>
   <g id="patch_8">
    <path d="M 431.347935 288.601309 
L 495.325017 288.601309 
L 495.325017 139.439156 
L 431.347935 139.439156 
z
" clip-path="url(#p659fae1d41)" style="fill: #27658a"/>
   </g>
   <g id="patch_9">
    <path d="M 547.669901 288.601309 
L 611.646983 288.601309 
L 611.646983 127.677192 
L 547.669901 127.677192 
z
" clip-path="url(#p659fae1d41)" style="fill: #27658a"/>
   </g>
   <g id="patch_10">
    <path d="M 663.991868 288.601309 
L 727.968949 288.601309 
L 727.968949 128.075564 
L 663.991868 128.075564 
z
" clip-path="url(#p659fae1d41)" style="fill: #27658a"/>
   </g>
   <g id="text_28">
    <!-- 4.32% -->
    <g style="fill: #272c30" transform="translate(449.159913 124.405136) scale(0.1 -0.1)">
     <defs>
      <path id="ArialUnicodeMS-11" d="M 1209 0 
L 569 0 
L 569 641 
L 1209 641 
L 1209 0 
z
" transform="scale(0.015625)"/>
     </defs>
     <use xlink:href="#ArialUnicodeMS-17"/>
     <use xlink:href="#ArialUnicodeMS-11" transform="translate(55.609375 0)"/>
     <use xlink:href="#ArialUnicodeMS-16" transform="translate(83.390625 0)"/>
     <use xlink:href="#ArialUnicodeMS-15" transform="translate(139 0)"/>
     <use xlink:href="#ArialUnicodeMS-8" transform="translate(194.609375 0)"/>
    </g>
    <!-- 67日 -->
    <g style="fill: #272c30" transform="translate(452.775538 135.293418) scale(0.1 -0.1)">
     <defs>
      <path id="ArialUnicodeMS-1a" d="M 3272 4084 
Q 2597 3344 2103 2253 
Q 1609 1163 1522 0 
L 947 0 
Q 969 934 1408 2051 
Q 1847 3169 2547 3975 
L 306 3975 
L 306 4519 
L 3272 4519 
L 3272 4084 
z
" transform="scale(0.015625)"/>
     </defs>
     <use xlink:href="#ArialUnicodeMS-19"/>
     <use xlink:href="#ArialUnicodeMS-1a" transform="translate(55.609375 0)"/>
     <use xlink:href="#ArialUnicodeMS-3874" transform="translate(111.21875 0)"/>
    </g>
   </g>
   <g id="text_29">
    <!-- 4.66% -->
    <g style="fill: #272c30" transform="translate(565.48188 112.643172) scale(0.1 -0.1)">
     <use xlink:href="#ArialUnicodeMS-17"/>
     <use xlink:href="#ArialUnicodeMS-11" transform="translate(55.609375 0)"/>
     <use xlink:href="#ArialUnicodeMS-19" transform="translate(83.390625 0)"/>
     <use xlink:href="#ArialUnicodeMS-19" transform="translate(139 0)"/>
     <use xlink:href="#ArialUnicodeMS-8" transform="translate(194.609375 0)"/>
    </g>
    <!-- 101日 -->
    <g style="fill: #272c30" transform="translate(566.317036 123.531453) scale(0.1 -0.1)">
     <use xlink:href="#ArialUnicodeMS-14"/>
     <use xlink:href="#ArialUnicodeMS-13" transform="translate(55.609375 0)"/>
     <use xlink:href="#ArialUnicodeMS-14" transform="translate(111.21875 0)"/>
     <use xlink:href="#ArialUnicodeMS-3874" transform="translate(166.828125 0)"/>
    </g>
   </g>
   <g id="text_30">
    <!-- 4.65% -->
    <g style="fill: #272c30" transform="translate(681.803846 113.041544) scale(0.1 -0.1)">
     <use xlink:href="#ArialUnicodeMS-17"/>
     <use xlink:href="#ArialUnicodeMS-11" transform="translate(55.609375 0)"/>
     <use xlink:href="#ArialUnicodeMS-19" transform="translate(83.390625 0)"/>
     <use xlink:href="#ArialUnicodeMS-18" transform="translate(139 0)"/>
     <use xlink:href="#ArialUnicodeMS-8" transform="translate(194.609375 0)"/>
    </g>
    <!-- 134日 -->
    <g style="fill: #272c30" transform="translate(682.639002 123.929825) scale(0.1 -0.1)">
     <use xlink:href="#ArialUnicodeMS-14"/>
     <use xlink:href="#ArialUnicodeMS-16" transform="translate(55.609375 0)"/>
     <use xlink:href="#ArialUnicodeMS-17" transform="translate(111.21875 0)"/>
     <use xlink:href="#ArialUnicodeMS-3874" transform="translate(166.828125 0)"/>
    </g>
   </g>
  </g>
  <g id="text_31">
   <!-- 第二问：滚动窗口与后段样本调整 -->
   <g style="fill: #272c30" transform="translate(273 17.219062) scale(0.14 -0.14)">
    <defs>
     <path id="ArialUnicodeMS-4dbb" d="M 5966 4319 
L 4959 4319 
Q 5238 3963 5288 3853 
L 4819 3634 
Q 4706 3981 4397 4319 
L 4006 4319 
Q 3881 4091 3444 3603 
L 3016 3859 
Q 3769 4613 3922 5338 
L 4378 5178 
Q 4297 4863 4263 4788 
L 5966 4788 
L 5966 4319 
z
M 3353 4300 
L 2472 4300 
Q 2691 4050 2809 3828 
L 2381 3584 
Q 2175 4031 1906 4300 
L 1528 4300 
Q 1303 3922 831 3481 
L 409 3725 
Q 1250 4478 1478 5338 
L 1931 5216 
Q 1916 5075 1759 4769 
L 3353 4769 
L 3353 4300 
z
M 5734 1656 
Q 5659 722 5487 400 
Q 5316 78 4934 78 
Q 4603 78 4141 206 
L 4084 703 
Q 4628 519 4916 519 
Q 5034 519 5125 812 
Q 5216 1106 5216 1191 
L 3584 1191 
L 3584 -397 
L 3078 -397 
L 3078 1209 
Q 2497 225 641 -141 
L 397 347 
Q 1872 547 2456 1191 
L 1497 1191 
L 1441 972 
L 941 1013 
L 1269 2638 
L 3078 2638 
L 3078 3109 
L 1019 3109 
L 1019 3578 
L 5472 3578 
L 5472 2169 
L 3584 2169 
L 3584 1656 
L 5734 1656 
z
M 4984 2638 
L 4984 3109 
L 3584 3109 
L 3584 2638 
L 4984 2638 
z
M 3078 1656 
L 3078 2169 
L 1678 2169 
L 1563 1656 
L 3078 1656 
z
" transform="scale(0.015625)"/>
     <path id="ArialUnicodeMS-211b" d="M 5441 3694 
L 1075 3694 
L 1075 4206 
L 5441 4206 
L 5441 3694 
z
M 5863 659 
L 641 659 
L 641 1172 
L 5863 1172 
L 5863 659 
z
" transform="scale(0.015625)"/>
     <path id="ArialUnicodeMS-687d" d="M 2553 4325 
L 2188 3950 
Q 1828 4447 1191 4794 
L 1497 5131 
Q 2081 4834 2553 4325 
z
M 5528 159 
Q 5528 -50 5403 -190 
Q 5278 -331 5075 -331 
L 4416 -331 
L 4244 147 
L 4916 122 
Q 5044 113 5044 250 
L 5044 4513 
L 2822 4513 
L 2822 4978 
L 5528 4978 
L 5528 159 
z
M 1178 -409 
L 716 -409 
L 716 4213 
L 1178 4213 
L 1178 -409 
z
M 4256 1056 
L 3769 1056 
L 3769 1306 
L 2450 1306 
L 2450 916 
L 1966 916 
L 1966 3463 
L 4256 3463 
L 4256 1056 
z
M 3769 1772 
L 3769 2994 
L 2450 2994 
L 2450 1772 
L 3769 1772 
z
" transform="scale(0.015625)"/>
     <path id="ArialUnicodeMS-19f6" d="M 3516 2675 
L 2875 2675 
L 2875 3316 
L 3516 3316 
L 3516 2675 
z
M 3516 0 
L 2875 0 
L 2875 641 
L 3516 641 
L 3516 0 
z
" transform="scale(0.015625)"/>
     <path id="ArialUnicodeMS-209d" d="M 5953 3916 
L 1881 3916 
L 1784 3028 
L 5153 3028 
L 5081 1734 
L 5919 1734 
L 5919 1234 
L 5050 1234 
Q 4984 100 4750 -154 
Q 4516 -409 4159 -409 
Q 3856 -409 3225 -269 
L 3144 300 
Q 3863 103 4091 103 
Q 4253 103 4348 201 
Q 4444 300 4487 711 
Q 4531 1122 4531 1234 
L 434 1234 
L 434 1734 
L 4569 1734 
Q 4597 2088 4609 2509 
L 1728 2509 
L 1672 2069 
L 1172 2113 
L 1528 5281 
L 2041 5228 
L 1947 4428 
L 5953 4428 
L 5953 3916 
z
" transform="scale(0.015625)"/>
     <path id="ArialUnicodeMS-269d" d="M 5925 3138 
L 1631 3138 
L 1631 1850 
Q 1631 747 709 -384 
L 281 -56 
Q 1147 881 1147 1869 
L 1147 4666 
Q 3191 4666 5275 5403 
L 5613 5025 
Q 3828 4219 1631 4178 
L 1631 3603 
L 5925 3603 
L 5925 3138 
z
M 5388 -409 
L 4903 -409 
L 4903 97 
L 2644 97 
L 2644 -409 
L 2156 -409 
L 2156 2338 
L 5388 2338 
L 5388 -409 
z
M 4903 563 
L 4903 1869 
L 2644 1869 
L 2644 563 
L 4903 563 
z
" transform="scale(0.015625)"/>
     <path id="ArialUnicodeMS-3e44" d="M 3163 1081 
L 1441 722 
L 1441 -469 
L 953 -469 
L 953 634 
L 525 556 
L 263 997 
L 953 1113 
L 953 4581 
Q 2138 4794 2828 5325 
L 3144 4972 
Q 2391 4403 1441 4184 
L 1441 3719 
L 2809 3719 
L 2809 3250 
L 1441 3250 
L 1441 2509 
L 2809 2509 
L 2809 2041 
L 1441 2041 
L 1441 1197 
L 3163 1509 
L 3163 1081 
z
M 6169 3597 
Q 5991 2969 5663 2969 
L 5253 2969 
Q 4775 2969 4775 3469 
L 4775 4538 
L 3788 4538 
Q 3822 3609 3620 3246 
Q 3419 2884 3016 2591 
L 2613 2900 
Q 3309 3328 3309 3956 
L 3309 5006 
L 5259 5006 
L 5259 3634 
Q 5259 3438 5428 3438 
L 5538 3438 
Q 5666 3438 5734 3866 
L 6169 3597 
z
M 6088 6 
L 5819 -397 
Q 5009 -188 4359 434 
Q 3706 -122 2859 -447 
L 2528 -44 
Q 3516 300 4025 800 
Q 3641 1338 3413 2222 
L 3213 2222 
L 3213 2694 
L 5434 2694 
Q 5384 1563 4684 794 
Q 5250 209 6088 6 
z
M 4916 2228 
L 3878 2228 
Q 4063 1563 4366 1141 
Q 4763 1603 4916 2228 
z
" transform="scale(0.015625)"/>
     <path id="ArialUnicodeMS-3ac6" d="M 2619 2009 
L 2156 1778 
Q 2047 2303 1722 2688 
L 1722 -391 
L 1234 -391 
L 1234 2497 
L 1228 2497 
Q 941 1550 459 1031 
L 109 1356 
Q 925 2313 1178 3634 
L 397 3634 
L 397 4103 
L 1234 4103 
L 1234 5319 
L 1722 5319 
L 1722 4103 
L 2309 4103 
L 2309 3634 
L 1722 3634 
L 1722 3066 
L 1906 3181 
Q 2403 2669 2619 2009 
z
M 5913 1203 
L 4319 1203 
L 4319 -391 
L 3859 -391 
L 3859 1203 
L 2209 1203 
L 2209 1672 
L 3859 1672 
L 3859 2356 
L 2631 2356 
L 2631 2822 
L 3859 2822 
L 3859 3513 
L 2472 3513 
L 2472 3981 
L 3450 3981 
Q 3288 4406 2688 4991 
L 3047 5247 
Q 3613 4788 3916 4172 
L 3622 3988 
L 3622 3981 
L 4494 3981 
L 4494 3988 
L 4153 4166 
Q 4694 4578 4953 5269 
L 5356 5031 
Q 5078 4334 4678 3981 
L 5766 3981 
L 5766 3513 
L 4319 3513 
L 4319 2822 
L 5600 2822 
L 5600 2356 
L 4319 2356 
L 4319 1672 
L 5913 1672 
L 5913 1203 
z
" transform="scale(0.015625)"/>
     <path id="ArialUnicodeMS-39bb" d="M 6113 1184 
L 5766 775 
Q 5031 1316 4457 1961 
Q 3884 2606 3444 3922 
L 3444 1613 
L 4678 1613 
L 4678 1147 
L 3444 1147 
L 3444 -428 
L 2956 -428 
L 2956 1147 
L 1728 1147 
L 1728 1613 
L 2950 1613 
L 2950 3872 
Q 2413 2063 659 744 
L 263 1125 
Q 1884 2178 2419 3822 
L 641 3822 
L 641 4288 
L 2956 4288 
L 2956 5294 
L 3444 5294 
L 3444 4288 
L 5728 4288 
L 5728 3822 
L 4019 3822 
Q 4450 2203 6113 1184 
z
" transform="scale(0.015625)"/>
     <path id="ArialUnicodeMS-5e92" d="M 1991 4306 
L 1606 3975 
Q 1400 4422 838 4897 
L 1166 5184 
Q 1728 4806 1991 4306 
z
M 5741 294 
Q 5741 16 5577 -165 
Q 5413 -347 5147 -347 
L 4544 -347 
L 4378 128 
Q 4831 106 5006 106 
Q 5166 106 5209 150 
Q 5253 194 5253 288 
L 5253 4538 
L 3016 4538 
L 3016 2859 
L 3025 1884 
Q 3025 869 2828 348 
Q 2631 -172 2316 -544 
L 1900 -238 
Q 2225 181 2353 518 
Q 2481 856 2504 1259 
Q 2528 1663 2528 2938 
L 2528 5006 
L 5741 5006 
L 5741 294 
z
M 5119 2463 
L 3163 2463 
L 3163 2906 
L 3903 2906 
L 3903 3384 
L 3206 3384 
L 3206 3828 
L 3903 3828 
L 3903 4384 
L 4366 4384 
L 4366 3828 
L 5069 3828 
L 5069 3384 
L 4366 3384 
L 4366 2906 
L 5119 2906 
L 5119 2463 
z
M 2388 850 
L 1478 269 
L 1197 678 
Q 1288 834 1288 959 
L 1288 3003 
L 459 3003 
L 459 3469 
L 1772 3469 
L 1772 1038 
L 2388 1369 
L 2388 850 
z
M 4884 550 
L 3378 550 
L 3378 2228 
L 4884 2228 
L 4884 550 
z
M 4422 991 
L 4422 1784 
L 3841 1784 
L 3841 991 
L 4422 991 
z
" transform="scale(0.015625)"/>
     <path id="ArialUnicodeMS-3803" d="M 6053 2322 
L 5825 1953 
Q 5019 2141 4575 2553 
Q 4088 2206 3519 1953 
L 3278 2316 
Q 3838 2544 4269 2900 
Q 4088 3169 3963 3494 
L 3725 3128 
L 3384 3322 
L 3384 3003 
L 2541 3003 
Q 2988 2866 3406 2516 
L 3103 2156 
Q 2831 2428 2344 2631 
L 2344 1984 
L 1856 1984 
L 1856 2919 
Q 1572 2306 609 1913 
L 384 2309 
Q 1103 2569 1422 3003 
L 763 3003 
L 763 4219 
L 1856 4219 
L 1856 4416 
L 488 4416 
L 488 4884 
L 1856 4884 
L 1856 5331 
L 2344 5331 
L 2344 4884 
L 3688 4884 
L 3688 4416 
L 2344 4416 
L 2344 4219 
L 3384 4219 
L 3384 3444 
Q 3919 4209 4109 5375 
L 4603 5234 
Q 4491 4816 4409 4569 
L 5875 4569 
L 5875 4103 
L 5509 4103 
Q 5241 3209 4916 2875 
Q 5272 2506 6053 2322 
z
M 5031 4103 
L 4256 4103 
L 4225 3994 
Q 4453 3388 4594 3219 
Q 4916 3619 5031 4103 
z
M 2900 3444 
L 2900 3775 
L 2344 3775 
L 2344 3444 
L 2900 3444 
z
M 1856 3444 
L 1856 3775 
L 1222 3775 
L 1222 3444 
L 1856 3444 
z
M 2413 3003 
L 2344 3003 
L 2344 2900 
L 2413 3003 
z
M 6047 -116 
L 325 -116 
L 325 325 
L 1369 325 
L 1369 1197 
L 1856 1197 
L 1856 325 
L 2900 325 
L 2900 1466 
L 716 1466 
L 716 1931 
L 5684 1931 
L 5684 1466 
L 3384 1466 
L 3384 1159 
L 5381 1159 
L 5381 716 
L 3384 716 
L 3384 325 
L 6047 325 
L 6047 -116 
z
" transform="scale(0.015625)"/>
    </defs>
    <use xlink:href="#ArialUnicodeMS-4dbb"/>
    <use xlink:href="#ArialUnicodeMS-211b" transform="translate(100 0)"/>
    <use xlink:href="#ArialUnicodeMS-687d" transform="translate(200 0)"/>
    <use xlink:href="#ArialUnicodeMS-19f6" transform="translate(300 0)"/>
    <use xlink:href="#ArialUnicodeMS-4169" transform="translate(400 0)"/>
    <use xlink:href="#ArialUnicodeMS-2537" transform="translate(500 0)"/>
    <use xlink:href="#ArialUnicodeMS-4d26" transform="translate(600 0)"/>
    <use xlink:href="#ArialUnicodeMS-2672" transform="translate(700 0)"/>
    <use xlink:href="#ArialUnicodeMS-209d" transform="translate(800 0)"/>
    <use xlink:href="#ArialUnicodeMS-269d" transform="translate(900 0)"/>
    <use xlink:href="#ArialUnicodeMS-3e44" transform="translate(1000 0)"/>
    <use xlink:href="#ArialUnicodeMS-3ac6" transform="translate(1100 0)"/>
    <use xlink:href="#ArialUnicodeMS-39bb" transform="translate(1200 0)"/>
    <use xlink:href="#ArialUnicodeMS-5e92" transform="translate(1300 0)"/>
    <use xlink:href="#ArialUnicodeMS-3803" transform="translate(1400 0)"/>
   </g>
  </g>
  <g id="text_32">
   <!-- 窗口内采用策略各自历史延续的SOC；滚动窗口相互重叠，不能当作独立重复实验。 -->
   <g style="fill: #5e666c" transform="translate(41.58 351.630352) scale(0.09 -0.09)">
    <defs>
     <path id="ArialUnicodeMS-2414" d="M 5538 84 
Q 5538 -341 4872 -341 
Q 4713 -341 4481 -331 
L 4294 141 
Q 4619 116 4800 116 
Q 5075 116 5075 281 
L 5075 3725 
L 3450 3725 
Q 3450 3322 3413 2938 
Q 4216 2334 4819 1300 
L 4428 1006 
Q 3994 1759 3263 2413 
Q 2831 1444 1772 872 
L 1478 1281 
Q 2225 1684 2600 2196 
Q 2975 2709 2975 3725 
L 1325 3725 
L 1325 -409 
L 838 -409 
L 838 4191 
L 3009 4191 
L 3009 5275 
L 3469 5275 
L 3469 4191 
L 5538 4191 
L 5538 84 
z
" transform="scale(0.015625)"/>
     <path id="ArialUnicodeMS-6456" d="M 5656 4928 
Q 4188 4256 934 4250 
L 738 4722 
Q 1975 4694 3336 4844 
Q 4697 4994 5350 5306 
L 5656 4928 
z
M 5363 4341 
Q 5247 3666 4531 2853 
L 4103 3097 
Q 4763 3759 4928 4525 
L 5363 4341 
z
M 3781 3103 
L 3303 2938 
Q 3175 3659 2700 4078 
L 3206 4256 
Q 3628 3747 3781 3103 
z
M 2284 2931 
L 1831 2713 
Q 1631 3503 1019 3922 
L 1491 4172 
Q 2013 3709 2284 2931 
z
M 6119 531 
L 5831 78 
Q 3900 763 3463 1813 
L 3463 -434 
L 2975 -434 
L 2975 1778 
L 2969 1778 
Q 2231 619 647 31 
L 331 475 
Q 1869 963 2541 1931 
L 703 1931 
L 703 2400 
L 2975 2400 
L 2975 2888 
L 3463 2888 
L 3463 2400 
L 5772 2400 
L 5772 1931 
L 3938 1931 
Q 4563 959 6119 531 
z
" transform="scale(0.015625)"/>
     <path id="ArialUnicodeMS-4de5" d="M 6041 4331 
L 5081 4331 
Q 5322 3997 5381 3866 
L 4953 3647 
Q 4791 4059 4481 4331 
L 4025 4331 
Q 3856 4084 3572 3859 
L 3175 4159 
Q 3753 4559 4025 5403 
L 4494 5259 
Q 4438 5084 4294 4800 
L 6041 4800 
L 6041 4331 
z
M 3359 4331 
L 2419 4331 
L 2669 3859 
L 2247 3628 
Q 2088 4078 1894 4331 
L 1388 4331 
Q 1041 3875 744 3688 
L 341 4000 
Q 1072 4453 1453 5394 
L 1888 5234 
Q 1831 5038 1684 4800 
L 3359 4800 
L 3359 4331 
z
M 6125 341 
L 5863 -91 
Q 4291 303 3494 1216 
L 3494 -416 
L 2988 -416 
L 2988 1222 
Q 2141 334 588 -116 
L 294 313 
Q 2072 744 2975 1906 
L 2975 2203 
L 1638 2203 
L 1638 1159 
L 1153 1159 
L 1153 2669 
L 2975 2669 
L 2975 3066 
L 703 3066 
L 703 3531 
L 2975 3531 
L 2975 3891 
L 3494 3891 
L 3494 3531 
L 5791 3531 
L 5791 3066 
L 3494 3066 
L 3494 2669 
L 5275 2669 
L 5275 1672 
Q 5244 1459 5101 1336 
Q 4959 1213 4836 1202 
Q 4713 1191 4422 1191 
L 4281 1672 
Q 4513 1644 4622 1644 
Q 4788 1644 4788 1838 
L 4788 2203 
L 3494 2203 
L 3494 1900 
Q 4259 819 6125 341 
z
" transform="scale(0.015625)"/>
     <path id="ArialUnicodeMS-47f4" d="M 6156 2284 
L 5825 1913 
Q 5034 2238 4453 2759 
Q 3938 2281 3122 1906 
L 2853 2253 
L 2847 2253 
L 2847 306 
L 2369 306 
L 2369 800 
L 1184 800 
L 1184 306 
L 703 306 
L 703 4609 
L 2847 4609 
L 2847 2309 
Q 3663 2675 4128 3091 
Q 3891 3409 3738 3738 
Q 3494 3338 3231 3084 
L 2869 3359 
Q 3625 4147 3981 5369 
L 4403 5209 
Q 4328 4947 4219 4647 
L 5644 4647 
Q 5509 3869 4775 3078 
Q 5381 2566 6156 2284 
z
M 4991 4178 
L 4056 4178 
Q 4384 3491 4475 3419 
Q 4788 3731 4991 4178 
z
M 2369 2994 
L 2369 4141 
L 1991 4141 
L 1991 2994 
L 2369 2994 
z
M 1550 2994 
L 1550 4141 
L 1184 4141 
L 1184 2994 
L 1550 2994 
z
M 2369 1269 
L 2369 2528 
L 1991 2528 
L 1991 1269 
L 2369 1269 
z
M 1550 1269 
L 1550 2528 
L 1184 2528 
L 1184 1269 
L 1550 1269 
z
M 5484 -422 
L 5006 -422 
L 5006 -13 
L 3909 -13 
L 3909 -422 
L 3431 -422 
L 3431 2016 
L 5484 2016 
L 5484 -422 
z
M 5006 453 
L 5006 1550 
L 3909 1550 
L 3909 453 
L 5006 453 
z
" transform="scale(0.015625)"/>
     <path id="ArialUnicodeMS-2693" d="M 6088 2247 
L 5797 1772 
Q 4028 2241 3238 2753 
Q 2069 2156 666 1791 
L 366 2222 
Q 1991 2641 2797 3059 
Q 2259 3491 1953 3963 
Q 1500 3394 1019 3072 
L 594 3397 
Q 1075 3650 1547 4219 
Q 2019 4788 2272 5350 
L 2753 5222 
Q 2666 4966 2491 4728 
L 4916 4728 
L 4916 4313 
Q 4403 3541 3700 3047 
Q 4050 2813 4815 2561 
Q 5581 2309 6088 2247 
z
M 4288 4263 
L 2344 4263 
Q 2656 3803 3244 3309 
Q 3941 3797 4288 4263 
z
M 4788 -403 
L 4281 -403 
L 4281 -31 
L 2181 -31 
L 2181 -416 
L 1678 -416 
L 1678 2009 
L 4788 2009 
L 4788 -403 
z
M 4281 434 
L 4281 1544 
L 2181 1544 
L 2181 434 
L 4281 434 
z
" transform="scale(0.015625)"/>
     <path id="ArialUnicodeMS-5479" d="M 5253 -428 
L 4722 -416 
L 4722 97 
L 1791 97 
L 1791 -428 
L 1288 -428 
L 1288 4416 
L 2766 4416 
Q 3081 4791 3425 5459 
L 3878 5216 
Q 3734 4866 3425 4416 
L 5253 4416 
L 5253 -428 
z
M 4722 3188 
L 4722 3950 
L 1791 3950 
L 1791 3188 
L 4722 3188 
z
M 4722 1906 
L 4722 2719 
L 1791 2719 
L 1791 1906 
L 4722 1906 
z
M 4722 581 
L 4722 1441 
L 1791 1441 
L 1791 581 
L 4722 581 
z
" transform="scale(0.015625)"/>
     <path id="ArialUnicodeMS-2615" d="M 5831 4563 
L 1472 4563 
L 1472 2081 
Q 1472 1406 1258 718 
Q 1044 31 678 -366 
L 250 -56 
Q 594 325 789 901 
Q 984 1478 984 2009 
L 984 5031 
L 5831 5031 
L 5831 4563 
z
M 5478 3494 
Q 5425 2381 5295 1287 
Q 5166 194 5016 -45 
Q 4866 -284 4550 -284 
Q 4350 -284 3794 -238 
L 3688 275 
Q 4141 178 4413 178 
Q 4547 178 4615 301 
Q 4684 425 4779 1128 
Q 4875 1831 4953 3028 
L 3578 3028 
Q 3409 1338 2928 611 
Q 2447 -116 2003 -353 
L 1588 25 
Q 2156 378 2550 984 
Q 2944 1591 3072 3028 
L 1684 3028 
L 1684 3494 
L 3116 3494 
L 3156 4378 
L 3628 4319 
L 3603 3494 
L 5478 3494 
z
" transform="scale(0.015625)"/>
     <path id="ArialUnicodeMS-2681" d="M 6100 103 
L 5825 -416 
Q 4138 -319 2644 403 
Q 1909 -184 594 -416 
L 403 91 
Q 1666 253 2203 678 
Q 1653 991 1234 1613 
L 1613 1913 
Q 2203 1197 2572 1019 
Q 2863 1350 2950 2144 
L 1100 2144 
L 1100 4313 
L 2956 4313 
L 2956 5344 
L 3444 5344 
L 3444 4313 
L 5253 4313 
L 5253 2144 
L 3475 2144 
Q 3350 1194 3034 781 
Q 3372 522 4330 308 
Q 5288 94 6100 103 
z
M 4769 2613 
L 4769 3847 
L 3444 3847 
L 3444 2613 
L 4769 2613 
z
M 2956 2613 
L 2956 3847 
L 1588 3847 
L 1588 2613 
L 2956 2613 
z
" transform="scale(0.015625)"/>
     <path id="ArialUnicodeMS-3185" d="M 5978 863 
L 2369 863 
L 2369 1331 
L 2772 1331 
L 2772 3547 
L 3256 3547 
L 3256 1331 
L 4072 1331 
L 4072 4325 
Q 3572 4213 2778 4122 
L 2553 4603 
Q 4341 4725 5528 5275 
L 5906 4897 
Q 5247 4603 4556 4428 
L 4556 3334 
L 5766 3334 
L 5766 2847 
L 4556 2847 
L 4556 1331 
L 5978 1331 
L 5978 863 
z
M 6075 359 
L 5850 -166 
L 3309 -166 
Q 2181 -166 1600 347 
Q 1228 -56 538 -397 
L 213 0 
Q 781 225 1253 684 
Q 966 994 716 1606 
L 1100 1844 
Q 1231 1413 1522 1063 
Q 1828 1709 1900 2541 
L 1306 2541 
L 1159 2253 
L 738 2444 
L 1600 4275 
L 403 4275 
L 403 4756 
L 2144 4756 
L 2144 4313 
L 1503 3009 
L 2419 3009 
Q 2319 1475 1875 728 
Q 2397 300 3378 300 
L 5247 300 
L 6075 359 
z
" transform="scale(0.015625)"/>
     <path id="ArialUnicodeMS-517c" d="M 2522 4056 
Q 1906 2766 1178 1997 
L 1191 1984 
L 2303 2156 
L 2303 1703 
L 525 1388 
L 325 1813 
Q 719 2116 1306 2950 
L 525 2859 
Q 369 3231 325 3309 
Q 1022 4175 1416 5331 
L 1919 5119 
Q 1353 3925 928 3384 
Q 1013 3384 1638 3463 
Q 1856 3847 2069 4288 
L 2522 4056 
z
M 5709 3250 
Q 5709 3241 5581 2969 
Q 5453 2697 5331 2503 
L 4856 2741 
Q 5100 3025 5191 3238 
L 3194 3238 
L 3194 3231 
Q 3534 3047 3938 2578 
L 3578 2253 
Q 3216 2719 2747 3028 
L 2956 3238 
L 2419 3238 
L 2419 3706 
L 3647 3706 
L 3647 4197 
L 2566 4197 
L 2566 4666 
L 3647 4666 
L 3647 5306 
L 4134 5306 
L 4134 4666 
L 5472 4666 
L 5472 4197 
L 4134 4197 
L 4134 3706 
L 5709 3706 
L 5709 3250 
z
M 5966 -63 
L 5550 -403 
Q 4850 325 4109 647 
Q 3609 -228 1869 -428 
L 1672 63 
Q 1800 63 2304 150 
Q 2809 238 3221 506 
Q 3634 775 3822 1172 
L 2363 1172 
L 2363 1638 
L 3956 1638 
Q 4013 2025 4031 3066 
L 4506 3053 
Q 4484 2084 4434 1638 
L 5825 1638 
L 5825 1172 
L 4353 1172 
L 4294 1038 
Q 5425 550 5966 -63 
z
M 3500 2069 
L 3163 1709 
Q 2822 2103 2234 2456 
Q 2447 2763 2478 2816 
Q 3013 2566 3500 2069 
z
M 2303 697 
L 500 116 
L 178 556 
Q 2116 1097 2303 1172 
L 2303 697 
z
" transform="scale(0.015625)"/>
     <path id="ArialUnicodeMS-4913" d="M 5644 4281 
Q 5619 1694 5395 673 
Q 5172 -347 4606 -347 
Q 4350 -347 3609 -134 
L 3525 403 
Q 4247 134 4531 134 
Q 4806 134 4976 1142 
Q 5147 2150 5159 3841 
L 3794 3841 
Q 3550 3166 3053 2497 
L 2719 2713 
L 2719 -147 
L 2216 -147 
L 2216 269 
L 1153 269 
L 1153 -250 
L 647 -250 
L 647 4184 
L 1234 4184 
Q 1494 4644 1625 5313 
L 2088 5125 
Q 1903 4444 1741 4184 
L 2719 4184 
L 2719 2881 
Q 3431 3888 3681 5363 
L 4191 5247 
Q 4106 4869 3916 4281 
L 5644 4281 
z
M 2216 2484 
L 2216 3719 
L 1153 3719 
L 1153 2484 
L 2216 2484 
z
M 2216 738 
L 2216 2016 
L 1153 2016 
L 1153 738 
L 2216 738 
z
M 4775 1369 
L 4313 1166 
Q 4034 1925 3444 2669 
L 3841 2931 
Q 4484 2191 4775 1369 
z
" transform="scale(0.015625)"/>
     <path id="ArialUnicodeMS-36" d="M 3213 3238 
Q 3175 3675 2897 3895 
Q 2619 4116 2100 4116 
Q 1631 4116 1337 3941 
Q 1044 3766 1044 3431 
Q 1044 3134 1270 2989 
Q 1497 2844 2138 2700 
Q 2706 2575 3065 2444 
Q 3425 2313 3681 2036 
Q 3938 1759 3938 1294 
Q 3938 703 3467 312 
Q 2997 -78 2241 -78 
Q 1275 -78 795 353 
Q 316 784 288 1472 
L 863 1522 
Q 903 972 1287 720 
Q 1672 469 2216 469 
Q 2725 469 3039 678 
Q 3353 888 3353 1247 
Q 3353 1622 3025 1794 
Q 2697 1966 1923 2133 
Q 1150 2300 809 2603 
Q 469 2906 469 3391 
Q 469 3941 900 4300 
Q 1331 4659 2075 4659 
Q 2838 4659 3302 4301 
Q 3766 3944 3794 3284 
L 3213 3238 
z
" transform="scale(0.015625)"/>
     <path id="ArialUnicodeMS-32" d="M 2497 4659 
Q 3459 4659 4071 4006 
Q 4684 3353 4684 2284 
Q 4684 1219 4068 570 
Q 3453 -78 2497 -78 
Q 1506 -78 903 594 
Q 300 1266 300 2234 
Q 300 3363 911 4011 
Q 1522 4659 2497 4659 
z
M 2491 441 
Q 3188 441 3620 928 
Q 4053 1416 4056 2284 
Q 4056 3178 3614 3659 
Q 3172 4141 2503 4141 
Q 1816 4141 1372 3669 
Q 928 3197 928 2222 
Q 928 1425 1362 933 
Q 1797 441 2491 441 
z
" transform="scale(0.015625)"/>
     <path id="ArialUnicodeMS-26" d="M 4372 1453 
Q 4172 681 3673 301 
Q 3175 -78 2478 -78 
Q 1353 -78 839 626 
Q 325 1331 325 2322 
Q 325 3419 929 4039 
Q 1534 4659 2484 4659 
Q 3153 4659 3628 4318 
Q 4103 3978 4294 3322 
L 3700 3181 
Q 3550 3659 3244 3900 
Q 2938 4141 2478 4141 
Q 1728 4141 1340 3648 
Q 953 3156 953 2328 
Q 953 1372 1361 906 
Q 1769 441 2425 441 
Q 2963 441 3298 731 
Q 3634 1022 3769 1606 
L 4372 1453 
z
" transform="scale(0.015625)"/>
     <path id="ArialUnicodeMS-19f7" d="M 3541 2675 
L 2900 2675 
L 2900 3316 
L 3541 3316 
L 3541 2675 
z
M 3541 0 
Q 3541 -397 3389 -606 
Q 3238 -816 3016 -903 
L 2863 -666 
Q 3213 -516 3216 0 
L 2900 0 
L 2900 641 
L 3541 641 
L 3541 0 
z
" transform="scale(0.015625)"/>
     <path id="ArialUnicodeMS-2121" d="M 5966 -38 
L 500 -38 
L 500 422 
L 4000 422 
L 4197 1491 
L 1947 1491 
L 1844 1019 
L 1338 1094 
L 2081 4500 
L 756 4500 
L 756 4959 
L 5722 4959 
L 5722 4500 
L 2613 4500 
L 2406 3572 
L 5075 3572 
L 4538 422 
L 5953 422 
L 5966 -38 
z
M 4494 3109 
L 2303 3109 
L 2047 1953 
L 4269 1953 
L 4494 3109 
z
" transform="scale(0.015625)"/>
     <path id="ArialUnicodeMS-645c" d="M 6059 -219 
L 441 -219 
L 441 250 
L 3022 250 
L 3022 609 
L 1100 609 
L 1100 1075 
L 3022 1075 
L 3022 1381 
L 1269 1381 
L 1269 3513 
L 3022 3513 
L 3022 3822 
L 653 3822 
L 653 4288 
L 3009 4288 
L 3009 4550 
L 1106 4500 
L 825 4953 
Q 1153 4941 1534 4941 
Q 3866 4941 5247 5319 
L 5528 4916 
Q 4928 4763 3506 4594 
L 3506 4288 
L 5856 4288 
L 5856 3822 
L 3506 3822 
L 3506 3513 
L 5269 3513 
L 5269 1381 
L 3506 1381 
L 3506 1075 
L 5356 1075 
L 5356 609 
L 3506 609 
L 3506 250 
L 6059 250 
L 6059 -219 
z
M 4781 2669 
L 4781 3047 
L 3506 3047 
L 3506 2669 
L 4781 2669 
z
M 3022 2669 
L 3022 3047 
L 1753 3047 
L 1753 2669 
L 3022 2669 
z
M 4781 1825 
L 4781 2228 
L 3506 2228 
L 3506 1825 
L 4781 1825 
z
M 3022 1825 
L 3022 2228 
L 1753 2228 
L 1753 1825 
L 3022 1825 
z
" transform="scale(0.015625)"/>
     <path id="ArialUnicodeMS-266f" d="M 5925 2700 
L 5797 2534 
L 5894 2534 
L 5894 1556 
L 5434 1556 
L 5434 2094 
L 1044 2094 
L 1044 1556 
L 556 1556 
L 556 2534 
L 634 2534 
Q 609 2569 528 2633 
Q 447 2697 366 2791 
Q 1016 2850 1478 3003 
L 1478 3016 
Q 1309 3044 884 3078 
Q 1106 3388 1119 3397 
L 722 3397 
L 722 3781 
L 1119 3781 
L 831 4134 
Q 2097 4206 2759 4319 
L 2759 4331 
Q 2253 4381 1691 4403 
L 1931 4744 
L 1228 4744 
L 1228 5159 
L 5216 5159 
L 5216 4781 
Q 4716 4481 4581 4434 
L 4581 4422 
Q 5084 4309 5588 4072 
L 5369 3781 
L 5772 3781 
L 5772 3469 
Q 5572 3247 5234 3053 
Q 5278 3028 5511 2926 
Q 5744 2825 5925 2700 
z
M 4300 4728 
L 2541 4744 
L 2541 4728 
Q 3006 4691 3278 4656 
L 3841 4581 
L 4300 4728 
z
M 5113 3781 
Q 4550 4031 3866 4159 
Q 3156 3925 1728 3788 
L 1728 3781 
L 3084 3781 
L 3084 3450 
Q 2950 3322 2534 3059 
Q 2678 3006 3109 2684 
L 2994 2534 
L 3263 2534 
Q 3184 2616 3059 2766 
Q 3747 2819 4166 2969 
L 4166 2981 
Q 3859 3041 3406 3072 
Q 3491 3231 3616 3397 
L 3219 3397 
L 3219 3781 
L 5113 3781 
z
M 5056 3397 
L 3859 3397 
L 3859 3384 
Q 4338 3338 4738 3225 
Q 5034 3375 5056 3397 
z
M 2356 3378 
L 2356 3397 
L 1428 3397 
L 1428 3378 
Q 1725 3344 2041 3238 
Q 2350 3378 2356 3378 
z
M 2591 2534 
Q 2300 2731 2081 2816 
Q 1953 2750 1809 2694 
Q 1691 2647 1569 2609 
Q 1475 2581 1431 2569 
Q 1403 2559 1363 2550 
L 1325 2541 
L 1281 2534 
L 2591 2534 
z
M 5369 2534 
Q 5028 2725 4763 2797 
Q 4556 2697 4294 2584 
L 4278 2575 
Q 4266 2566 4250 2559 
Q 4238 2553 4228 2550 
Q 4222 2547 4209 2544 
Q 4194 2538 4181 2534 
L 5369 2534 
z
M 6106 -184 
L 353 -184 
L 353 256 
L 1478 256 
L 1478 2009 
L 5006 2009 
L 5006 256 
L 6106 256 
L 6106 -184 
z
M 4519 1434 
L 4519 1619 
L 1966 1619 
L 1966 1434 
L 4519 1434 
z
M 4519 844 
L 4519 1056 
L 1966 1056 
L 1966 844 
L 4519 844 
z
M 4519 256 
L 4519 459 
L 1966 459 
L 1966 256 
L 4519 256 
z
" transform="scale(0.015625)"/>
     <path id="ArialUnicodeMS-19e8" d="M 3541 0 
Q 3541 -397 3389 -606 
Q 3238 -816 3016 -903 
L 2863 -666 
Q 3213 -516 3216 0 
L 2900 0 
L 2900 641 
L 3541 641 
L 3541 0 
z
" transform="scale(0.015625)"/>
     <path id="ArialUnicodeMS-209c" d="M 5900 4434 
L 3834 4434 
Q 3700 4209 3425 3816 
L 3425 -416 
L 2900 -416 
L 2900 3194 
Q 2281 2363 775 1528 
L 453 1947 
Q 1431 2419 2047 2975 
Q 2663 3531 3219 4434 
L 550 4434 
L 550 4922 
L 5900 4922 
L 5900 4434 
z
M 5941 1838 
L 5550 1503 
Q 4619 2634 3597 3078 
L 3938 3419 
Q 4969 2953 5941 1838 
z
" transform="scale(0.015625)"/>
     <path id="ArialUnicodeMS-538c" d="M 3419 3494 
L 3003 3231 
L 2809 3591 
L 531 3469 
L 403 3963 
L 844 3975 
Q 1316 4656 1644 5403 
L 2131 5191 
Q 1716 4381 1409 3975 
L 2541 4019 
Q 2359 4294 2144 4500 
L 2572 4738 
Q 3122 4225 3419 3494 
z
M 5978 3675 
Q 5825 2528 5294 2528 
L 4122 2528 
Q 3800 2563 3676 2722 
Q 3553 2881 3553 3009 
L 3553 5222 
L 4038 5222 
L 4038 4197 
Q 4997 4469 5556 4909 
L 5850 4544 
Q 5219 4009 4038 3719 
L 4038 3175 
Q 4066 2994 4366 2994 
L 5209 2994 
Q 5431 2994 5509 3853 
L 5978 3675 
z
M 3059 250 
Q 3059 28 2954 -105 
Q 2850 -238 2701 -277 
Q 2553 -316 1972 -306 
L 1791 184 
Q 2147 147 2297 147 
Q 2572 147 2572 319 
L 2572 922 
L 1234 922 
L 1234 -353 
L 750 -353 
L 750 3091 
L 3059 3091 
L 3059 250 
z
M 2572 2241 
L 2572 2625 
L 1234 2625 
L 1234 2241 
L 2572 2241 
z
M 2572 1388 
L 2572 1772 
L 1234 1772 
L 1234 1388 
L 2572 1388 
z
M 6138 800 
Q 6019 134 5831 -73 
Q 5644 -281 5369 -281 
L 4166 -281 
Q 3859 -281 3718 -92 
Q 3578 97 3578 263 
L 3578 2309 
L 4063 2309 
L 4063 1422 
Q 4950 1625 5606 2113 
L 5941 1753 
Q 5169 1163 4063 941 
L 4063 347 
Q 4063 184 4281 184 
L 5319 184 
Q 5469 184 5544 362 
Q 5619 541 5663 1031 
L 6138 800 
z
" transform="scale(0.015625)"/>
     <path id="ArialUnicodeMS-31e2" d="M 5422 -384 
L 4959 -384 
L 4959 -19 
L 788 -19 
L 788 422 
L 4959 422 
L 4959 1363 
L 1147 1363 
L 1147 1806 
L 4959 1806 
L 4959 2669 
L 831 2669 
L 831 3109 
L 3091 3109 
L 3091 5313 
L 3578 5313 
L 3578 3109 
L 5422 3109 
L 5422 -384 
z
M 5619 4716 
Q 5097 3884 4409 3284 
L 3988 3628 
Q 4675 4163 5209 4972 
L 5619 4716 
z
M 2675 3597 
L 2241 3272 
Q 1669 4072 909 4634 
L 1253 4959 
Q 2041 4366 2675 3597 
z
" transform="scale(0.015625)"/>
     <path id="ArialUnicodeMS-21eb" d="M 6106 3706 
L 3781 3706 
L 3781 2956 
L 5850 2956 
L 5850 2491 
L 3781 2491 
L 3781 1703 
L 5972 1703 
L 5984 1234 
L 3781 1234 
L 3781 -428 
L 3297 -428 
L 3297 3706 
Q 3041 2972 2316 2278 
L 1875 2516 
Q 2978 3916 3213 5422 
L 3694 5247 
Q 3628 4800 3391 4172 
L 6106 4172 
L 6106 3706 
z
M 2309 5125 
Q 2238 4878 2041 4366 
L 1844 3872 
L 1844 -428 
L 1356 -428 
L 1356 3034 
Q 1063 2494 684 2088 
L 238 2344 
Q 1313 3516 1875 5325 
L 2309 5125 
z
" transform="scale(0.015625)"/>
     <path id="ArialUnicodeMS-457b" d="M 6069 -84 
L 5569 -313 
Q 5425 156 5313 331 
L 2638 -281 
L 2388 238 
L 3897 506 
L 3897 1569 
L 2656 1569 
L 2656 3975 
L 3897 3975 
L 3897 5294 
L 4384 5294 
L 4384 3975 
L 5563 3975 
L 5563 1569 
L 4384 1569 
L 4384 603 
L 5119 763 
Q 4953 1013 4800 1184 
L 5184 1441 
Q 5800 738 6069 -84 
z
M 5075 2034 
L 5075 3506 
L 4384 3506 
L 4384 2034 
L 5075 2034 
z
M 3897 2034 
L 3897 3506 
L 3144 3506 
L 3144 2034 
L 3897 2034 
z
M 2169 4684 
Q 1866 4100 1778 3988 
Q 2163 3459 2163 2053 
Q 2163 953 2092 511 
Q 2022 69 1820 -151 
Q 1619 -372 1281 -372 
Q 1038 -372 647 -300 
L 453 244 
Q 950 91 1219 91 
Q 1438 91 1531 336 
Q 1625 581 1656 1300 
L 1703 2247 
Q 1259 1538 569 1044 
L 213 1416 
Q 1066 2003 1638 2906 
Q 1600 3309 1459 3513 
Q 1138 3016 684 2713 
L 306 3109 
Q 906 3513 1203 3950 
Q 994 4234 313 4628 
L 609 4997 
Q 1072 4753 1497 4366 
Q 1731 4794 1806 4972 
L 2169 4684 
z
" transform="scale(0.015625)"/>
     <path id="ArialUnicodeMS-4d5a" d="M 5528 3719 
L 897 3719 
L 897 4184 
L 2956 4184 
L 2956 5259 
L 3444 5259 
L 3444 4184 
L 5528 4184 
L 5528 3719 
z
M 5838 -19 
L 609 -19 
L 609 447 
L 3341 447 
Q 4088 1822 4313 3609 
L 4831 3456 
Q 4556 1697 3897 447 
L 5838 447 
L 5838 -19 
z
M 2869 788 
L 2381 641 
Q 2191 2250 1497 3384 
L 1959 3597 
Q 2744 2244 2869 788 
z
" transform="scale(0.015625)"/>
     <path id="ArialUnicodeMS-2b9c" d="M 6106 84 
L 5819 -391 
Q 4316 -269 3419 72 
Q 2341 -347 659 -416 
L 353 103 
Q 1988 91 2859 372 
Q 2338 700 2075 966 
Q 1744 719 1369 525 
L 1025 884 
Q 2088 1463 2291 1991 
L 1581 1991 
L 1581 3609 
Q 963 3019 763 2900 
L 359 3219 
Q 1472 3894 1931 5306 
L 2375 5113 
Q 2341 4950 2209 4684 
L 5691 4684 
L 5684 4219 
L 1978 4219 
Q 1947 4178 1883 4068 
Q 1819 3959 1784 3916 
L 5050 3916 
L 5050 1991 
L 2656 1991 
L 2656 1978 
L 2822 1875 
L 2663 1650 
L 5056 1650 
L 5056 1209 
Q 4731 819 4025 372 
Q 4581 163 6106 84 
z
M 4550 3200 
L 4550 3463 
L 2075 3463 
L 2075 3200 
L 4550 3200 
z
M 4550 2463 
L 4550 2731 
L 2075 2731 
L 2075 2463 
L 4550 2463 
z
M 4325 1184 
L 2516 1184 
Q 2953 794 3438 609 
Q 4066 931 4325 1184 
z
" transform="scale(0.015625)"/>
     <path id="ArialUnicodeMS-2e2d" d="M 5791 3513 
L 5306 3513 
L 5306 4103 
L 1063 4103 
L 1063 3513 
L 575 3513 
L 575 4569 
L 3144 4569 
Q 2956 4859 2547 5094 
L 2913 5325 
Q 3375 5066 3591 4666 
L 3384 4581 
L 3384 4569 
L 5791 4569 
L 5791 3513 
z
M 3122 3066 
L 2741 2803 
Q 2453 3331 1856 3731 
L 2181 4006 
Q 2759 3669 3122 3066 
z
M 5894 1684 
L 3634 1684 
Q 3063 131 831 -366 
L 469 72 
Q 2528 400 3109 1684 
L 469 1684 
L 469 2150 
L 3256 2150 
Q 3366 2500 3366 3022 
L 3366 3903 
L 3847 3903 
Q 3847 2459 3756 2150 
L 5894 2150 
L 5894 1684 
z
M 2450 2478 
L 2100 2188 
Q 1769 2722 1191 3084 
L 1503 3372 
Q 2100 3031 2450 2478 
z
M 5947 -13 
L 5613 -391 
Q 4900 422 3566 1006 
L 3816 1363 
Q 5075 866 5947 -13 
z
" transform="scale(0.015625)"/>
     <path id="ArialUnicodeMS-6d1b" d="M 6034 2994 
L 5638 2650 
Q 5191 2994 5106 3072 
L 5100 2869 
L 3034 2869 
L 3034 3047 
Q 2850 2884 2472 2694 
L 2163 3128 
Q 3228 3622 3750 4806 
L 3988 5344 
L 4441 5178 
Q 4406 5022 4306 4825 
Q 5116 3509 6034 2994 
z
M 4838 3334 
Q 4313 3991 4116 4453 
Q 3781 3797 3328 3334 
L 4838 3334 
z
M 2444 2606 
Q 2253 166 2075 -118 
Q 1897 -403 1494 -403 
Q 1288 -403 916 -325 
Q 900 -266 869 -97 
Q 838 72 794 184 
Q 913 169 1152 116 
Q 1391 63 1519 63 
Q 1628 63 1695 238 
Q 1763 413 1959 2138 
L 525 2138 
L 525 2606 
Q 744 3528 744 4397 
L 1228 4219 
Q 1209 3416 1025 2606 
L 1569 2606 
Q 1722 3563 1722 4563 
L 403 4563 
L 403 5031 
L 2181 5031 
Q 2181 4103 2022 2606 
L 2444 2606 
z
M 4366 1275 
L 3903 1056 
Q 3866 1653 3372 2591 
L 3769 2766 
Q 4247 1969 4366 1275 
z
M 5900 -109 
L 2322 -109 
L 2322 359 
L 4347 359 
Q 4788 1172 4984 2619 
L 5459 2425 
Q 5219 1147 4850 359 
L 5900 359 
L 5900 -109 
z
M 3616 769 
L 3128 506 
Q 3078 1359 2522 2247 
L 2956 2431 
Q 3481 1738 3616 769 
z
M 1747 1269 
Q 1484 1119 494 691 
L 213 1178 
Q 691 1291 1747 1753 
L 1747 1269 
z
" transform="scale(0.015625)"/>
     <path id="ArialUnicodeMS-11ed" d="M 1466 1503 
Q 1847 1503 2117 1231 
Q 2388 959 2388 575 
Q 2388 194 2119 -76 
Q 1850 -347 1472 -347 
Q 1091 -347 820 -76 
Q 550 194 550 575 
Q 550 959 819 1231 
Q 1088 1503 1466 1503 
z
M 1469 44 
Q 1691 44 1845 201 
Q 2000 359 2000 581 
Q 2000 803 1844 958 
Q 1688 1113 1469 1113 
Q 1250 1113 1094 958 
Q 938 803 938 581 
Q 938 359 1092 201 
Q 1247 44 1469 44 
z
" transform="scale(0.015625)"/>
    </defs>
    <use xlink:href="#ArialUnicodeMS-4d26"/>
    <use xlink:href="#ArialUnicodeMS-2672" transform="translate(100 0)"/>
    <use xlink:href="#ArialUnicodeMS-2414" transform="translate(200 0)"/>
    <use xlink:href="#ArialUnicodeMS-6456" transform="translate(300 0)"/>
    <use xlink:href="#ArialUnicodeMS-47b7" transform="translate(400 0)"/>
    <use xlink:href="#ArialUnicodeMS-4de5" transform="translate(500 0)"/>
    <use xlink:href="#ArialUnicodeMS-47f4" transform="translate(600 0)"/>
    <use xlink:href="#ArialUnicodeMS-2693" transform="translate(700 0)"/>
    <use xlink:href="#ArialUnicodeMS-5479" transform="translate(800 0)"/>
    <use xlink:href="#ArialUnicodeMS-2615" transform="translate(900 0)"/>
    <use xlink:href="#ArialUnicodeMS-2681" transform="translate(1000 0)"/>
    <use xlink:href="#ArialUnicodeMS-3185" transform="translate(1100 0)"/>
    <use xlink:href="#ArialUnicodeMS-517c" transform="translate(1200 0)"/>
    <use xlink:href="#ArialUnicodeMS-4913" transform="translate(1300 0)"/>
    <use xlink:href="#ArialUnicodeMS-36" transform="translate(1400 0)"/>
    <use xlink:href="#ArialUnicodeMS-32" transform="translate(1466.703125 0)"/>
    <use xlink:href="#ArialUnicodeMS-26" transform="translate(1544.484375 0)"/>
    <use xlink:href="#ArialUnicodeMS-19f7" transform="translate(1616.703125 0)"/>
    <use xlink:href="#ArialUnicodeMS-4169" transform="translate(1716.703125 0)"/>
    <use xlink:href="#ArialUnicodeMS-2537" transform="translate(1816.703125 0)"/>
    <use xlink:href="#ArialUnicodeMS-4d26" transform="translate(1916.703125 0)"/>
    <use xlink:href="#ArialUnicodeMS-2672" transform="translate(2016.703125 0)"/>
    <use xlink:href="#ArialUnicodeMS-4987" transform="translate(2116.703125 0)"/>
    <use xlink:href="#ArialUnicodeMS-2121" transform="translate(2216.703125 0)"/>
    <use xlink:href="#ArialUnicodeMS-645c" transform="translate(2316.703125 0)"/>
    <use xlink:href="#ArialUnicodeMS-266f" transform="translate(2416.703125 0)"/>
    <use xlink:href="#ArialUnicodeMS-19e8" transform="translate(2516.703125 0)"/>
    <use xlink:href="#ArialUnicodeMS-209c" transform="translate(2616.703125 0)"/>
    <use xlink:href="#ArialUnicodeMS-538c" transform="translate(2716.703125 0)"/>
    <use xlink:href="#ArialUnicodeMS-31e2" transform="translate(2816.703125 0)"/>
    <use xlink:href="#ArialUnicodeMS-21eb" transform="translate(2916.703125 0)"/>
    <use xlink:href="#ArialUnicodeMS-457b" transform="translate(3016.703125 0)"/>
    <use xlink:href="#ArialUnicodeMS-4d5a" transform="translate(3116.703125 0)"/>
    <use xlink:href="#ArialUnicodeMS-645c" transform="translate(3216.703125 0)"/>
    <use xlink:href="#ArialUnicodeMS-2b9c" transform="translate(3316.703125 0)"/>
    <use xlink:href="#ArialUnicodeMS-2e2d" transform="translate(3416.703125 0)"/>
    <use xlink:href="#ArialUnicodeMS-6d1b" transform="translate(3516.703125 0)"/>
    <use xlink:href="#ArialUnicodeMS-11ed" transform="translate(3616.703125 0)"/>
   </g>
  </g>
 </g>
 <defs>
  <clipPath id="p6b7d550b5e">
   <rect x="47.38957" y="64.040484" width="326.283116" height="224.560825"/>
  </clipPath>
  <clipPath id="p659fae1d41">
   <rect x="416.516884" y="64.040484" width="326.283116" height="224.560825"/>
  </clipPath>
 </defs>
</svg>
